<svg width="1441" height="313" viewBox="0 0 1441 313" fill="none" xmlns="http://www.w3.org/2000/svg">
<g clip-path="url(#clip0_331_1070)">
<g opacity="0.1">
<mask id="mask0_331_1070" style="mask-type:alpha" maskUnits="userSpaceOnUse" x="-36" y="-1075" width="1493" height="1437">
<g clip-path="url(#clip1_331_1070)">
<mask id="mask1_331_1070" style="mask-type:luminance" maskUnits="userSpaceOnUse" x="0" y="-1075" width="1439" height="1438">
<path d="M1438.31 -1075H0.939941V362.001H1438.31V-1075Z" fill="white"/>
</mask>
<g mask="url(#mask1_331_1070)">
<mask id="mask2_331_1070" style="mask-type:luminance" maskUnits="userSpaceOnUse" x="719" y="-357" width="720" height="719">
<path d="M1438.32 -356.5H719.629V362H1438.32V-356.5Z" fill="white"/>
</mask>
<g mask="url(#mask2_331_1070)">
<path d="M1302.15 39.4026C1306.85 37.7212 1309.02 31.791 1307 26.1572C1304.99 20.5235 1299.54 17.3195 1294.85 19.0009C1290.15 20.6824 1287.98 26.6124 1289.99 32.2462C1292.01 37.88 1297.46 41.084 1302.15 39.4026Z" fill="white"/>
<path d="M1278.69 89.3253C1284.35 87.4437 1287.66 82.0691 1286.08 77.3208C1284.5 72.5725 1278.63 70.2486 1272.97 72.1302C1267.31 74.0118 1264 79.3864 1265.58 84.1347C1267.15 88.883 1273.02 91.2069 1278.69 89.3253Z" fill="white"/>
<path d="M1286.17 44.8327C1290 40.5671 1288.95 33.3826 1283.82 28.7856C1278.69 24.1887 1271.44 23.92 1267.61 28.1856C1263.78 32.4512 1264.84 39.6358 1269.96 44.2327C1275.09 48.8297 1282.35 49.0983 1286.17 44.8327Z" fill="white"/>
<path d="M1280.15 62.1544C1281.08 56.4888 1276.34 50.9907 1269.56 49.8741C1262.77 48.7575 1256.52 52.4452 1255.58 58.1108C1254.65 63.7765 1259.39 69.2746 1266.18 70.3912C1272.96 71.5078 1279.22 67.8201 1280.15 62.1544Z" fill="white"/>
<path d="M1287.27 57.3205C1282.65 69.8655 1292.24 84.9253 1300.91 88.1585C1308.76 91.09 1319.11 81.5124 1316.63 70.6703C1316.14 68.5579 1316.92 66.3449 1318.62 65.0085C1329.1 56.7242 1330.66 46.2341 1317.71 40.9387C1309.15 37.4396 1291.9 44.7755 1287.28 57.3205H1287.27Z" fill="white"/>
<path d="M1432.06 88.5694C1433.08 82.6921 1429.91 77.2531 1424.98 76.4125C1420.05 75.5718 1415.22 79.6528 1414.2 85.5302C1413.18 91.4075 1416.35 96.8466 1421.28 97.6872C1426.21 98.5279 1431.04 94.4467 1432.06 88.5694Z" fill="white"/>
<path d="M1453.32 96.321C1457.57 90.917 1457.35 83.6601 1452.84 80.1124C1448.32 76.5647 1441.22 78.0696 1436.97 83.4737C1432.72 88.8777 1432.94 96.1345 1437.46 99.6822C1441.97 103.23 1449.08 101.725 1453.32 96.321Z" fill="white"/>
<path d="M1438.17 108.414C1429.4 98.3187 1411.58 99.461 1404.57 105.496C1398.22 110.964 1401.62 124.644 1412.32 127.691C1414.4 128.287 1415.96 130.033 1416.32 132.16C1418.53 145.33 1426.97 151.761 1437.86 142.966C1445.05 137.154 1446.93 118.501 1438.17 108.406V108.414Z" fill="white"/>
<path d="M1382.5 275.343C1383.29 270.418 1379.14 265.657 1373.24 264.709C1367.33 263.76 1361.89 266.984 1361.1 271.909C1360.31 276.834 1364.46 281.595 1370.37 282.543C1376.28 283.492 1381.71 280.268 1382.5 275.343Z" fill="white"/>
<path d="M1346.44 230.505C1347.52 224.639 1344.4 219.15 1339.48 218.244C1334.56 217.338 1329.69 221.359 1328.61 227.225C1327.53 233.09 1330.65 238.58 1335.57 239.485C1340.49 240.391 1345.36 236.371 1346.44 230.505Z" fill="white"/>
<path d="M1379.16 260.891C1385.66 258.617 1389.39 252.389 1387.5 246.98C1385.61 241.572 1378.8 239.031 1372.3 241.306C1365.8 243.58 1362.07 249.808 1363.96 255.216C1365.85 260.625 1372.66 263.165 1379.16 260.891Z" fill="white"/>
<path d="M1367.73 238.136C1371.98 232.732 1371.76 225.476 1367.24 221.928C1362.73 218.38 1355.62 219.885 1351.38 225.289C1347.13 230.693 1347.35 237.95 1351.86 241.498C1356.38 245.045 1363.48 243.541 1367.73 238.136Z" fill="white"/>
<path d="M1352.57 250.231C1343.8 240.136 1325.98 241.279 1318.97 247.314C1312.62 252.782 1316.02 266.462 1326.72 269.509C1328.8 270.105 1330.36 271.851 1330.72 273.978C1332.93 287.148 1341.37 293.578 1352.25 284.784C1359.45 278.971 1361.33 260.319 1352.57 250.224V250.231Z" fill="white"/>
<path d="M942.807 219.03C947.505 217.349 949.677 211.419 947.659 205.785C945.641 200.151 940.198 196.947 935.501 198.629C930.803 200.31 928.631 206.24 930.649 211.874C932.667 217.508 938.11 220.712 942.807 219.03Z" fill="white"/>
<path d="M919.352 268.959C925.013 267.077 928.322 261.703 926.743 256.954C925.164 252.206 919.294 249.882 913.633 251.764C907.972 253.645 904.663 259.02 906.242 263.768C907.821 268.517 913.691 270.84 919.352 268.959Z" fill="white"/>
<path d="M926.849 224.462C930.676 220.197 929.622 213.012 924.496 208.415C919.369 203.818 912.111 203.55 908.284 207.815C904.457 212.081 905.511 219.265 910.637 223.862C915.764 228.459 923.022 228.728 926.849 224.462Z" fill="white"/>
<path d="M920.773 241.787C921.706 236.121 916.964 230.623 910.18 229.507C903.397 228.39 897.142 232.078 896.209 237.743C895.276 243.409 900.018 248.907 906.801 250.024C913.585 251.14 919.84 247.453 920.773 241.787Z" fill="white"/>
<path d="M927.924 236.944C923.303 249.489 932.897 264.549 941.565 267.782C949.42 270.714 959.762 261.136 957.282 250.294C956.801 248.181 957.577 245.968 959.273 244.632C969.752 236.348 971.318 225.858 958.368 220.562C949.808 217.063 932.552 224.399 927.931 236.944H927.924Z" fill="white"/>
<path d="M1108.74 313.243C1109.59 308.329 1105.5 303.536 1099.6 302.53C1093.7 301.524 1088.23 304.7 1087.37 309.607C1086.52 314.515 1090.61 319.314 1096.51 320.32C1102.41 321.326 1107.88 318.15 1108.74 313.243Z" fill="white"/>
<path d="M1072.72 268.193C1073.74 262.316 1070.57 256.877 1065.64 256.036C1060.7 255.195 1055.87 259.276 1054.85 265.154C1053.83 271.031 1057 276.47 1061.93 277.311C1066.87 278.151 1071.7 274.07 1072.72 268.193Z" fill="white"/>
<path d="M1105.42 298.7C1111.92 296.426 1115.66 290.198 1113.77 284.789C1111.87 279.381 1105.07 276.84 1098.57 279.115C1092.07 281.389 1088.33 287.617 1090.23 293.026C1092.12 298.434 1098.92 300.974 1105.42 298.7Z" fill="white"/>
<path d="M1094.01 275.952C1098.26 270.548 1098.04 263.291 1093.52 259.743C1089.01 256.195 1081.9 257.7 1077.65 263.104C1073.41 268.508 1073.62 275.765 1078.14 279.313C1082.66 282.861 1089.76 281.356 1094.01 275.952Z" fill="white"/>
<path d="M1078.83 288.038C1070.06 277.943 1052.24 279.086 1045.23 285.121C1038.88 290.589 1042.27 304.269 1052.98 307.315C1055.06 307.912 1056.62 309.658 1056.98 311.784C1059.19 324.955 1067.63 331.385 1078.51 322.591C1085.7 316.778 1087.59 298.126 1078.83 288.031V288.038Z" fill="white"/>
<path d="M1179.44 262.33C1183.53 265.175 1189.61 263.494 1193.01 258.565C1196.4 253.636 1195.84 247.335 1191.74 244.489C1187.64 241.644 1181.57 243.325 1178.17 248.254C1174.77 253.183 1175.34 259.485 1179.44 262.33Z" fill="white"/>
<path d="M1249.45 247.579C1252.35 243.499 1250.75 237.393 1245.89 233.939C1241.02 230.486 1234.73 230.994 1231.83 235.074C1228.94 239.154 1230.53 245.26 1235.39 248.714C1240.26 252.167 1246.55 251.659 1249.45 247.579Z" fill="white"/>
<path d="M1214.72 267.546C1215.39 260.695 1211.32 254.682 1205.62 254.117C1199.91 253.552 1194.74 258.648 1194.06 265.499C1193.38 272.351 1197.45 278.363 1203.16 278.928C1208.86 279.493 1214.04 274.397 1214.72 267.546Z" fill="white"/>
<path d="M1234.24 271.04C1239.36 268.443 1240.99 261.369 1237.88 255.239C1234.78 249.109 1228.1 246.245 1222.98 248.842C1217.86 251.439 1216.23 258.514 1219.33 264.643C1222.44 270.773 1229.12 273.637 1234.24 271.04Z" fill="white"/>
<path d="M1214.9 245.84C1227.75 242.154 1234.24 225.506 1231.72 216.611C1229.44 208.55 1215.6 205.862 1208.32 214.276C1206.9 215.914 1204.65 216.597 1202.58 216.022C1189.7 212.465 1180.31 217.409 1183.7 230.981C1185.93 239.955 1202.05 249.533 1214.9 245.84Z" fill="white"/>
<path d="M749.397 133.617C750.252 128.702 746.163 123.91 740.262 122.904C734.362 121.898 728.885 125.074 728.03 129.981C727.175 134.888 731.264 139.688 737.165 140.694C743.065 141.7 748.541 138.524 749.397 133.617Z" fill="white"/>
<path d="M746.079 119.088C752.579 116.813 756.314 110.585 754.42 105.177C752.527 99.7684 745.723 97.2279 739.223 99.5022C732.723 101.777 728.989 108.005 730.882 113.413C732.775 118.821 739.579 121.362 746.079 119.088Z" fill="white"/>
<path d="M734.679 96.3533C738.927 90.9492 738.709 83.6924 734.193 80.1446C729.677 76.5969 722.573 78.1018 718.325 83.5059C714.078 88.91 714.295 96.1667 718.811 99.7145C723.327 103.262 730.432 101.757 734.679 96.3533Z" fill="white"/>
<path d="M719.485 108.412C710.717 98.3167 692.894 99.4591 685.887 105.494C679.534 110.962 682.933 124.643 693.634 127.689C695.718 128.285 697.278 130.031 697.637 132.158C699.844 145.328 708.288 151.759 719.169 142.964C726.363 137.152 728.246 118.499 719.485 108.404V108.412Z" fill="white"/>
<path d="M786.517 265.29C781.616 266.21 778.562 271.728 779.69 277.598C780.818 283.475 785.713 287.485 790.614 286.565C795.515 285.645 798.57 280.127 797.442 274.257C796.313 268.38 791.419 264.371 786.517 265.29Z" fill="white"/>
<path d="M760.174 332.705C766.047 331.659 770.096 326.816 769.217 321.89C768.338 316.964 762.865 313.819 756.992 314.866C751.119 315.913 747.07 320.755 747.949 325.682C748.827 330.608 754.301 333.752 760.174 332.705Z" fill="white"/>
<path d="M774.094 289.808C778.496 286.138 778.488 278.877 774.077 273.59C769.666 268.302 762.522 266.992 758.121 270.662C753.719 274.332 753.727 281.593 758.138 286.88C762.549 292.167 769.693 293.478 774.094 289.808Z" fill="white"/>
<path d="M765.606 305.8C767.345 300.328 763.442 294.205 756.89 292.124C750.338 290.044 743.617 292.794 741.879 298.266C740.14 303.739 744.042 309.862 750.594 311.942C757.147 314.023 763.867 311.273 765.606 305.8Z" fill="white"/>
<path d="M773.407 302.134C767.032 313.882 774.355 330.17 782.469 334.61C789.821 338.641 801.435 330.651 800.537 319.565C800.365 317.402 801.45 315.326 803.318 314.248C814.882 307.559 817.937 297.399 805.884 290.3C797.914 285.609 779.781 290.387 773.407 302.134Z" fill="white"/>
<path d="M820.093 82.7048C824.19 85.5501 830.263 83.8688 833.662 78.9399C837.061 74.011 836.494 67.7097 832.397 64.8644C828.301 62.0192 822.228 63.7004 818.828 68.6294C815.429 73.5583 815.997 79.8596 820.093 82.7048Z" fill="white"/>
<path d="M890.097 67.9297C892.995 63.8499 891.401 57.7431 886.537 54.2899C881.673 50.8367 875.38 51.3446 872.482 55.4244C869.584 59.5042 871.178 65.6109 876.042 69.0642C880.906 72.5174 887.199 72.0095 890.097 67.9297Z" fill="white"/>
<path d="M855.354 87.9047C856.033 81.0535 851.96 75.0413 846.256 74.4762C840.553 73.9111 835.378 79.007 834.699 85.8582C834.02 92.7094 838.093 98.7215 843.797 99.2867C849.5 99.8518 854.674 94.7559 855.354 87.9047Z" fill="white"/>
<path d="M874.898 91.415C880.02 88.8181 881.652 81.7436 878.543 75.6139C875.434 69.4841 868.761 66.6203 863.638 69.2172C858.516 71.8142 856.884 78.8885 859.993 85.0183C863.102 91.148 869.775 94.012 874.898 91.415Z" fill="white"/>
<path d="M855.56 66.2147C868.41 62.5288 874.892 45.8812 872.377 36.9861C870.099 28.9246 856.257 26.2374 848.977 34.651C847.561 36.2892 845.311 36.9717 843.234 36.3969C830.355 32.8403 820.969 37.7837 824.354 51.3561C826.59 60.3302 842.71 69.9077 855.56 66.2147Z" fill="white"/>
<path d="M1023.16 95.7132C1023.95 90.7883 1019.8 86.0269 1013.89 85.0784C1007.98 84.1299 1002.55 87.3535 1001.76 92.2785C1000.97 97.2034 1005.12 101.965 1011.03 102.913C1016.94 103.862 1022.37 100.638 1023.16 95.7132Z" fill="white"/>
<path d="M987.092 50.8856C988.172 45.02 985.057 39.5307 980.135 38.6249C975.212 37.719 970.347 41.7396 969.267 47.6052C968.187 53.4708 971.301 58.9602 976.224 59.866C981.146 60.7719 986.012 56.7512 987.092 50.8856Z" fill="white"/>
<path d="M1019.81 81.2728C1026.31 78.9985 1030.05 72.7703 1028.15 67.362C1026.26 61.9537 1019.46 59.4131 1012.96 61.6875C1006.46 63.9619 1002.72 70.1899 1004.61 75.5983C1006.51 81.0066 1013.31 83.5472 1019.81 81.2728Z" fill="white"/>
<path d="M1008.4 58.5386C1012.65 53.1345 1012.43 45.8777 1007.92 42.3299C1003.4 38.7822 996.295 40.2871 992.048 45.6912C987.8 51.0953 988.018 58.352 992.534 61.8998C997.05 65.4475 1004.15 63.9426 1008.4 58.5386Z" fill="white"/>
<path d="M993.226 70.6047C984.458 60.5098 966.635 61.6522 959.627 67.6876C953.274 73.1554 956.674 86.8357 967.375 89.8821C969.459 90.4785 971.019 92.2244 971.378 94.3512C973.584 107.521 982.029 113.952 992.91 105.157C1000.1 99.3448 1001.99 80.6925 993.226 70.5976V70.6047Z" fill="white"/>
<path d="M1145.86 85.6655C1140.96 86.5852 1137.9 92.1032 1139.03 97.9734C1140.16 103.851 1145.05 107.86 1149.96 106.94C1154.86 106.021 1157.91 100.502 1156.78 94.6323C1155.66 88.755 1150.76 84.7458 1145.86 85.6655Z" fill="white"/>
<path d="M1119.53 153.104C1125.4 152.057 1129.45 147.215 1128.57 142.289C1127.7 137.363 1122.22 134.218 1116.35 135.265C1110.48 136.312 1106.43 141.154 1107.31 146.08C1108.19 151.006 1113.66 154.151 1119.53 153.104Z" fill="white"/>
<path d="M1133.45 110.189C1137.86 106.518 1137.85 99.2571 1133.44 93.9699C1129.03 88.6828 1121.88 87.372 1117.48 91.0421C1113.08 94.7123 1113.09 101.974 1117.5 107.261C1121.91 112.548 1129.05 113.859 1133.45 110.189Z" fill="white"/>
<path d="M1124.96 126.169C1126.69 120.697 1122.79 114.574 1116.24 112.494C1109.69 110.413 1102.97 113.163 1101.23 118.636C1099.49 124.108 1103.39 130.231 1109.94 132.311C1116.5 134.392 1123.22 131.642 1124.96 126.169Z" fill="white"/>
<path d="M1132.75 122.511C1126.38 134.258 1133.7 150.547 1141.81 154.987C1149.17 159.018 1160.78 151.028 1159.88 139.941C1159.71 137.779 1160.79 135.702 1162.66 134.625C1174.23 127.935 1177.28 117.776 1165.23 110.677C1157.26 105.985 1139.13 110.763 1132.75 122.511Z" fill="white"/>
</g>
<mask id="mask3_331_1070" style="mask-type:luminance" maskUnits="userSpaceOnUse" x="0" y="-357" width="720" height="719">
<path d="M719.627 -356.5H0.94043V362H719.627V-356.5Z" fill="white"/>
</mask>
<g mask="url(#mask3_331_1070)">
<path d="M583.468 39.4067C588.166 37.7253 590.338 31.7951 588.32 26.1614C586.302 20.5276 580.859 17.3237 576.162 19.0051C571.464 20.6865 569.292 26.6166 571.31 32.2503C573.328 37.8841 578.771 41.0882 583.468 39.4067Z" fill="white"/>
<path d="M560.007 89.3568C565.668 87.4752 568.977 82.1007 567.398 77.3523C565.819 72.604 559.949 70.2801 554.288 72.1617C548.627 74.0433 545.318 79.4179 546.897 84.1662C548.476 88.9145 554.346 91.2384 560.007 89.3568Z" fill="white"/>
<path d="M567.518 44.8603C571.345 40.5947 570.292 33.4102 565.165 28.8132C560.038 24.2162 552.78 23.9476 548.953 28.2132C545.126 32.4788 546.18 39.6633 551.306 44.2603C556.433 48.8573 563.691 49.1259 567.518 44.8603Z" fill="white"/>
<path d="M561.412 62.1434C562.345 56.4777 557.603 50.9796 550.819 49.863C544.036 48.7464 537.781 52.4342 536.848 58.0998C535.914 63.7655 540.657 69.2636 547.44 70.3802C554.224 71.4968 560.479 67.809 561.412 62.1434Z" fill="white"/>
<path d="M568.585 57.3207C563.964 69.8657 573.559 84.9255 582.226 88.1588C590.081 91.0903 600.423 81.5127 597.944 70.6705C597.462 68.5581 598.238 66.3451 599.934 65.0087C610.413 56.7244 611.98 46.2343 599.029 40.939C590.469 37.4399 573.214 44.7757 568.592 57.3207H568.585Z" fill="white"/>
<path d="M713.376 88.5682C714.396 82.6909 711.227 77.2519 706.297 76.4112C701.359 75.5706 696.53 79.6516 695.509 85.529C694.489 91.4063 697.658 96.8454 702.588 97.686C707.526 98.5267 712.355 94.4455 713.376 88.5682Z" fill="white"/>
<path d="M734.678 96.3552C738.926 90.9512 738.708 83.6943 734.192 80.1466C729.676 76.5989 722.572 78.1038 718.324 83.5079C714.077 88.9119 714.294 96.1687 718.81 99.7164C723.326 103.264 730.43 101.759 734.678 96.3552Z" fill="white"/>
<path d="M719.484 108.413C710.716 98.3184 692.893 99.4608 685.886 105.496C679.532 110.964 682.932 124.644 693.633 127.691C695.717 128.287 697.277 130.033 697.636 132.16C699.842 145.33 708.287 151.76 719.168 142.966C726.362 137.153 728.245 118.501 719.484 108.406V108.413Z" fill="white"/>
<path d="M663.817 275.342C664.607 270.417 660.458 265.656 654.548 264.707C648.638 263.759 643.206 266.982 642.415 271.907C641.624 276.832 645.774 281.594 651.684 282.542C657.594 283.491 663.026 280.267 663.817 275.342Z" fill="white"/>
<path d="M627.752 230.51C628.832 224.644 625.717 219.155 620.794 218.249C615.872 217.343 611.006 221.364 609.926 227.229C608.846 233.095 611.961 238.584 616.883 239.49C621.806 240.396 626.672 236.375 627.752 230.51Z" fill="white"/>
<path d="M660.475 260.905C666.975 258.63 670.71 252.402 668.816 246.994C666.923 241.586 660.119 239.045 653.619 241.319C647.119 243.594 643.385 249.822 645.278 255.23C647.171 260.638 653.975 263.179 660.475 260.905Z" fill="white"/>
<path d="M649.095 238.172C653.343 232.768 653.125 225.511 648.609 221.963C644.093 218.415 636.989 219.92 632.741 225.324C628.494 230.728 628.711 237.985 633.227 241.533C637.743 245.081 644.848 243.576 649.095 238.172Z" fill="white"/>
<path d="M633.883 250.232C625.115 240.137 607.292 241.279 600.285 247.315C593.932 252.782 597.331 266.463 608.032 269.509C610.116 270.105 611.676 271.851 612.035 273.978C614.242 287.148 622.686 293.579 633.567 284.784C640.761 278.972 642.644 260.319 633.883 250.225V250.232Z" fill="white"/>
<path d="M224.123 219.037C228.82 217.355 230.992 211.425 228.975 205.791C226.957 200.158 221.513 196.954 216.816 198.635C212.119 200.317 209.947 206.247 211.964 211.88C213.982 217.514 219.426 220.718 224.123 219.037Z" fill="white"/>
<path d="M200.673 268.993C206.334 267.111 209.643 261.737 208.064 256.989C206.485 252.24 200.616 249.916 194.955 251.798C189.294 253.68 185.985 259.054 187.564 263.802C189.143 268.551 195.012 270.875 200.673 268.993Z" fill="white"/>
<path d="M208.199 224.493C212.026 220.228 210.972 213.043 205.846 208.446C200.719 203.849 193.461 203.581 189.634 207.846C185.807 212.112 186.861 219.296 191.987 223.893C197.114 228.49 204.372 228.759 208.199 224.493Z" fill="white"/>
<path d="M202.042 241.779C202.975 236.113 198.233 230.615 191.449 229.498C184.666 228.382 178.411 232.069 177.478 237.735C176.545 243.401 181.287 248.899 188.07 250.015C194.854 251.132 201.109 247.444 202.042 241.779Z" fill="white"/>
<path d="M209.24 236.947C204.618 249.492 214.213 264.552 222.88 267.785C230.735 270.716 241.077 261.139 238.598 250.296C238.116 248.184 238.893 245.971 240.589 244.635C251.067 236.35 252.634 225.86 239.683 220.565C231.124 217.066 213.868 224.402 209.247 236.947H209.24Z" fill="white"/>
<path d="M390.051 313.244C390.906 308.33 386.817 303.537 380.916 302.531C375.016 301.526 369.539 304.701 368.684 309.609C367.829 314.516 371.918 319.316 377.819 320.322C383.719 321.327 389.195 318.152 390.051 313.244Z" fill="white"/>
<path d="M354.031 268.195C355.052 262.318 351.882 256.879 346.952 256.038C342.015 255.198 337.185 259.279 336.164 265.156C335.144 271.033 338.313 276.472 343.244 277.313C348.181 278.154 353.01 274.072 354.031 268.195Z" fill="white"/>
<path d="M386.737 298.723C393.237 296.448 396.972 290.22 395.078 284.812C393.185 279.403 386.381 276.863 379.881 279.137C373.381 281.412 369.646 287.64 371.54 293.048C373.433 298.456 380.237 300.997 386.737 298.723Z" fill="white"/>
<path d="M375.366 275.995C379.613 270.591 379.396 263.334 374.88 259.787C370.364 256.239 363.259 257.744 359.012 263.148C354.764 268.552 354.982 275.809 359.498 279.357C364.014 282.904 371.118 281.399 375.366 275.995Z" fill="white"/>
<path d="M360.139 288.039C351.371 277.944 333.548 279.087 326.541 285.122C320.188 290.59 323.587 304.27 334.288 307.317C336.372 307.913 337.932 309.659 338.291 311.786C340.498 324.956 348.942 331.386 359.823 322.592C367.017 316.779 368.9 298.127 360.139 288.032V288.039Z" fill="white"/>
<path d="M460.751 262.331C464.848 265.177 470.921 263.495 474.32 258.566C477.719 253.637 477.152 247.336 473.055 244.491C468.959 241.646 462.886 243.327 459.486 248.256C456.087 253.185 456.655 259.486 460.751 262.331Z" fill="white"/>
<path d="M530.73 247.552C533.628 243.472 532.035 237.366 527.17 233.912C522.306 230.459 516.014 230.967 513.116 235.047C510.218 239.127 511.812 245.233 516.676 248.687C521.54 252.14 527.832 251.632 530.73 247.552Z" fill="white"/>
<path d="M495.989 267.537C496.669 260.686 492.596 254.674 486.892 254.109C481.188 253.544 476.014 258.64 475.335 265.491C474.656 272.342 478.729 278.354 484.432 278.919C490.136 279.484 495.31 274.388 495.989 267.537Z" fill="white"/>
<path d="M515.558 271.041C520.68 268.444 522.312 261.369 519.203 255.239C516.094 249.11 509.421 246.246 504.298 248.843C499.176 251.44 497.544 258.514 500.653 264.644C503.762 270.774 510.435 273.637 515.558 271.041Z" fill="white"/>
<path d="M496.218 245.841C509.068 242.155 515.55 225.508 513.035 216.613C510.757 208.551 496.915 205.864 489.635 214.277C488.219 215.916 485.969 216.598 483.892 216.023C471.013 212.467 461.627 217.41 465.012 230.983C467.248 239.957 483.368 249.534 496.218 245.841Z" fill="white"/>
<path d="M30.7084 133.619C31.5636 128.704 27.4743 123.912 21.5739 122.906C15.6735 121.9 10.1971 125.076 9.34182 129.983C8.48658 134.891 12.5759 139.69 18.4763 140.696C24.3768 141.702 29.8531 138.526 30.7084 133.619Z" fill="white"/>
<path d="M27.397 119.105C33.897 116.831 37.6313 110.602 35.7379 105.194C33.8445 99.7857 27.0404 97.2452 20.5404 99.5196C14.0405 101.794 10.3061 108.022 12.1995 113.43C14.0929 118.839 20.8971 121.379 27.397 119.105Z" fill="white"/>
<path d="M16.0354 96.3979C20.283 90.9939 20.0654 83.737 15.5494 80.1893C11.0334 76.6416 3.9292 78.1465 -0.318373 83.5505C-4.56594 88.9546 -4.34836 96.2114 0.167634 99.7591C4.68363 103.307 11.7879 101.802 16.0354 96.3979Z" fill="white"/>
<path d="M0.79715 108.414C-7.97083 98.3189 -25.7943 99.4613 -32.8015 105.497C-39.1547 110.964 -35.7553 124.645 -25.054 127.691C-22.9698 128.288 -21.4103 130.033 -21.0509 132.16C-18.8446 145.33 -10.4 151.761 0.480927 142.966C7.67498 137.154 9.55794 118.502 0.79715 108.407V108.414Z" fill="white"/>
<path d="M67.8292 265.291C62.9278 266.21 59.8734 271.728 61.0017 277.599C62.13 283.476 67.0243 287.485 71.9257 286.566C76.8272 285.646 79.8816 280.128 78.7533 274.258C77.6249 268.38 72.7307 264.371 67.8292 265.291Z" fill="white"/>
<path d="M41.4772 332.655C47.3503 331.608 51.3991 326.766 50.5205 321.84C49.6419 316.914 44.1686 313.769 38.2955 314.816C32.4224 315.863 28.3736 320.705 29.2522 325.631C30.1308 330.557 35.6041 333.702 41.4772 332.655Z" fill="white"/>
<path d="M55.3776 289.774C59.7791 286.104 59.7715 278.843 55.3605 273.556C50.9496 268.268 43.8057 266.958 39.4042 270.628C35.0027 274.298 35.0103 281.559 39.4212 286.846C43.8322 292.134 50.9761 293.444 55.3776 289.774Z" fill="white"/>
<path d="M46.9156 305.798C48.6541 300.325 44.752 294.202 38.1999 292.122C31.6477 290.041 24.9268 292.791 23.1882 298.264C21.4497 303.736 25.3519 309.859 31.904 311.94C38.4561 314.02 45.177 311.27 46.9156 305.798Z" fill="white"/>
<path d="M54.7182 302.136C48.3435 313.883 55.6669 330.172 63.7808 334.612C71.133 338.643 82.747 330.653 81.8486 319.567C81.6761 317.404 82.7614 315.328 84.63 314.25C96.1936 307.561 99.248 297.401 87.1957 290.302C79.2254 285.61 61.093 290.388 54.7182 302.136Z" fill="white"/>
<path d="M101.405 82.707C105.501 85.5523 111.574 83.871 114.974 78.9421C118.373 74.0132 117.805 67.7119 113.709 64.8666C109.612 62.0214 103.539 63.7026 100.14 68.6315C96.7405 73.5605 97.3082 79.8618 101.405 82.707Z" fill="white"/>
<path d="M171.376 67.9106C174.274 63.8308 172.68 57.7241 167.816 54.2709C162.952 50.8176 156.66 51.3256 153.762 55.4054C150.864 59.4852 152.457 65.5919 157.322 69.0451C162.186 72.4983 168.478 71.9904 171.376 67.9106Z" fill="white"/>
<path d="M136.627 87.9028C137.306 81.0516 133.233 75.0394 127.529 74.4743C121.826 73.9092 116.652 79.0051 115.972 85.8563C115.293 92.7075 119.366 98.7196 125.07 99.2847C130.773 99.8498 135.948 94.754 136.627 87.9028Z" fill="white"/>
<path d="M156.211 91.4172C161.334 88.8203 162.966 81.7458 159.857 75.6161C156.747 69.4863 150.074 66.6225 144.952 69.2194C139.829 71.8164 138.197 78.8907 141.307 85.0205C144.416 91.1502 151.089 94.0142 156.211 91.4172Z" fill="white"/>
<path d="M136.871 66.2169C149.721 62.5309 156.204 45.8834 153.689 36.9883C151.41 28.9268 137.568 26.2396 130.288 34.6532C128.872 36.2914 126.623 36.9739 124.546 36.3991C111.667 32.8425 102.281 37.7859 105.666 51.3583C107.901 60.3324 124.021 69.9099 136.871 66.2169Z" fill="white"/>
<path d="M304.472 95.7132C305.262 90.7882 301.113 86.0269 295.203 85.0784C289.293 84.1299 283.861 87.3535 283.07 92.2784C282.279 97.2034 286.429 101.965 292.339 102.913C298.249 103.862 303.681 100.638 304.472 95.7132Z" fill="white"/>
<path d="M268.409 50.8849C269.489 45.0193 266.374 39.5299 261.451 38.6241C256.529 37.7182 251.663 41.7389 250.583 47.6045C249.503 53.4701 252.618 58.9594 257.54 59.8653C262.463 60.7712 267.329 56.7505 268.409 50.8849Z" fill="white"/>
<path d="M301.132 81.2882C307.632 79.0139 311.367 72.7857 309.473 67.3774C307.58 61.9691 300.776 59.4285 294.276 61.7029C287.776 63.9773 284.041 70.2053 285.935 75.6137C287.828 81.022 294.632 83.5626 301.132 81.2882Z" fill="white"/>
<path d="M289.764 58.5752C294.012 53.1711 293.794 45.9143 289.278 42.3666C284.762 38.8189 277.658 40.3237 273.411 45.7278C269.163 51.1318 269.381 58.3887 273.897 61.9364C278.413 65.4841 285.517 63.9792 289.764 58.5752Z" fill="white"/>
<path d="M274.538 70.6071C265.77 60.5122 247.947 61.6547 240.94 67.6901C234.587 73.1579 237.986 86.8381 248.687 89.8846C250.771 90.4809 252.331 92.2268 252.69 94.3536C254.897 107.524 263.341 113.954 274.222 105.16C281.416 99.3472 283.299 80.695 274.538 70.6V70.6071Z" fill="white"/>
<path d="M427.176 85.6662C422.274 86.5859 419.22 92.104 420.348 97.9741C421.476 103.851 426.371 107.861 431.272 106.941C436.174 106.021 439.228 100.503 438.1 94.6331C436.971 88.7558 432.077 84.7465 427.176 85.6662Z" fill="white"/>
<path d="M400.838 153.054C406.711 152.007 410.76 147.165 409.881 142.239C409.002 137.313 403.529 134.168 397.656 135.215C391.783 136.262 387.734 141.104 388.613 146.03C389.491 150.956 394.965 154.101 400.838 153.054Z" fill="white"/>
<path d="M414.742 110.162C419.144 106.492 419.136 99.2304 414.725 93.9433C410.314 88.6562 403.17 87.3453 398.769 91.0155C394.367 94.6856 394.375 101.947 398.786 107.234C403.197 112.521 410.341 113.832 414.742 110.162Z" fill="white"/>
<path d="M406.262 126.174C408.001 120.702 404.098 114.579 397.546 112.498C390.994 110.418 384.273 113.168 382.535 118.64C380.796 124.113 384.698 130.236 391.25 132.316C397.803 134.397 404.523 131.647 406.262 126.174Z" fill="white"/>
<path d="M414.065 122.51C407.69 134.258 415.013 150.546 423.127 154.987C430.479 159.017 442.093 151.028 441.195 139.941C441.023 137.779 442.108 135.702 443.976 134.624C455.54 127.935 458.594 117.775 446.542 110.677C438.572 105.985 420.439 110.763 414.065 122.51Z" fill="white"/>
</g>
</g>
</g>
</mask>
<g mask="url(#mask0_331_1070)">
<path d="M1456.4 361.501H-39.9941V-36.9517C94.1638 -70.3013 203 106 348 153C563.968 223.003 485.711 -110.697 703.5 -99C921.289 -87.3027 1038.75 -121.072 1038.75 -357.755C1038.75 -576.306 1065.63 -562.332 1137.31 -631.271H1456.4V361.501Z" fill="#D9D9D9" fill-opacity="0.6"/>
</g>
</g>
</g>
<defs>
<clipPath id="clip0_331_1070">
<rect width="1441" height="313" fill="white"/>
</clipPath>
<clipPath id="clip1_331_1070">
<rect width="1492.4" height="1437" fill="white" transform="translate(-36 -1075)"/>
</clipPath>
</defs>
</svg>
