<svg width="1440" height="313" viewBox="0 0 1440 313" fill="none" xmlns="http://www.w3.org/2000/svg">
<g clip-path="url(#clip0_331_1070)">
<g opacity="0.1">
<mask id="mask0_331_1070" style="mask-type:alpha" maskUnits="userSpaceOnUse" x="-37" y="-1075" width="1493" height="1437">
<g clip-path="url(#clip1_331_1070)">
<mask id="mask1_331_1070" style="mask-type:luminance" maskUnits="userSpaceOnUse" x="0" y="-1075" width="1440" height="1437">
<path d="M1440 -1075H0V362H1440V-1075Z" fill="white"/>
</mask>
<g mask="url(#mask1_331_1070)">
<mask id="mask2_331_1070" style="mask-type:luminance" maskUnits="userSpaceOnUse" x="719" y="-356" width="721" height="718">
<path d="M1440 -356H719V362H1440V-356Z" fill="white"/>
</mask>
<g mask="url(#mask2_331_1070)">
<path d="M1301.15 39.4026C1305.85 37.7212 1308.02 31.791 1306 26.1572C1303.99 20.5235 1298.54 17.3195 1293.85 19.0009C1289.15 20.6824 1286.98 26.6124 1288.99 32.2462C1291.01 37.88 1296.46 41.084 1301.15 39.4026Z" fill="white"/>
<path d="M1277.69 89.3253C1283.35 87.4437 1286.66 82.0691 1285.08 77.3208C1283.5 72.5725 1277.63 70.2486 1271.97 72.1302C1266.31 74.0118 1263 79.3864 1264.58 84.1347C1266.15 88.883 1272.02 91.2069 1277.69 89.3253Z" fill="white"/>
<path d="M1285.17 44.8327C1289 40.5671 1287.95 33.3826 1282.82 28.7856C1277.69 24.1887 1270.44 23.92 1266.61 28.1856C1262.78 32.4512 1263.84 39.6358 1268.96 44.2327C1274.09 48.8297 1281.35 49.0983 1285.17 44.8327Z" fill="white"/>
<path d="M1279.15 62.1544C1280.08 56.4888 1275.34 50.9907 1268.56 49.8741C1261.77 48.7575 1255.52 52.4452 1254.58 58.1108C1253.65 63.7765 1258.39 69.2746 1265.18 70.3912C1271.96 71.5078 1278.22 67.8201 1279.15 62.1544Z" fill="white"/>
<path d="M1286.27 57.3205C1281.65 69.8655 1291.24 84.9253 1299.91 88.1585C1307.76 91.09 1318.11 81.5124 1315.63 70.6703C1315.14 68.5579 1315.92 66.3449 1317.62 65.0085C1328.1 56.7242 1329.66 46.2341 1316.71 40.9387C1308.15 37.4396 1290.9 44.7755 1286.28 57.3205H1286.27Z" fill="white"/>
<path d="M1431.06 88.5694C1432.08 82.6921 1428.91 77.2531 1423.98 76.4125C1419.05 75.5718 1414.22 79.6528 1413.2 85.5302C1412.18 91.4075 1415.35 96.8466 1420.28 97.6872C1425.21 98.5279 1430.04 94.4467 1431.06 88.5694Z" fill="white"/>
<path d="M1452.32 96.321C1456.57 90.917 1456.35 83.6601 1451.84 80.1124C1447.32 76.5647 1440.22 78.0696 1435.97 83.4737C1431.72 88.8777 1431.94 96.1345 1436.46 99.6822C1440.97 103.23 1448.08 101.725 1452.32 96.321Z" fill="white"/>
<path d="M1437.17 108.414C1428.4 98.3187 1410.58 99.461 1403.57 105.496C1397.22 110.964 1400.62 124.644 1411.32 127.691C1413.4 128.287 1414.96 130.033 1415.32 132.16C1417.53 145.33 1425.97 151.761 1436.86 142.966C1444.05 137.154 1445.93 118.501 1437.17 108.406V108.414Z" fill="white"/>
<path d="M1381.5 275.343C1382.29 270.418 1378.14 265.657 1372.24 264.709C1366.33 263.76 1360.89 266.984 1360.1 271.909C1359.31 276.834 1363.46 281.595 1369.37 282.543C1375.28 283.492 1380.71 280.268 1381.5 275.343Z" fill="white"/>
<path d="M1345.44 230.505C1346.52 224.639 1343.4 219.15 1338.48 218.244C1333.56 217.338 1328.69 221.359 1327.61 227.225C1326.53 233.09 1329.65 238.58 1334.57 239.485C1339.49 240.391 1344.36 236.371 1345.44 230.505Z" fill="white"/>
<path d="M1378.16 260.891C1384.66 258.617 1388.39 252.389 1386.5 246.98C1384.61 241.572 1377.8 239.031 1371.3 241.306C1364.8 243.58 1361.07 249.808 1362.96 255.216C1364.85 260.625 1371.66 263.165 1378.16 260.891Z" fill="white"/>
<path d="M1366.73 238.136C1370.98 232.732 1370.76 225.476 1366.24 221.928C1361.73 218.38 1354.62 219.885 1350.38 225.289C1346.13 230.693 1346.35 237.95 1350.86 241.498C1355.38 245.045 1362.48 243.541 1366.73 238.136Z" fill="white"/>
<path d="M1351.57 250.231C1342.8 240.136 1324.98 241.279 1317.97 247.314C1311.62 252.782 1315.02 266.462 1325.72 269.509C1327.8 270.105 1329.36 271.851 1329.72 273.978C1331.93 287.148 1340.37 293.578 1351.25 284.784C1358.45 278.971 1360.33 260.319 1351.57 250.224V250.231Z" fill="white"/>
<path d="M941.807 219.03C946.505 217.349 948.677 211.419 946.659 205.785C944.641 200.151 939.198 196.947 934.501 198.629C929.803 200.31 927.631 206.24 929.649 211.874C931.667 217.508 937.11 220.712 941.807 219.03Z" fill="white"/>
<path d="M918.352 268.959C924.013 267.077 927.322 261.703 925.743 256.954C924.164 252.206 918.294 249.882 912.633 251.764C906.972 253.645 903.663 259.02 905.242 263.768C906.821 268.517 912.691 270.84 918.352 268.959Z" fill="white"/>
<path d="M925.849 224.462C929.676 220.197 928.622 213.012 923.496 208.415C918.369 203.818 911.111 203.55 907.284 207.815C903.457 212.081 904.511 219.265 909.637 223.862C914.764 228.459 922.022 228.728 925.849 224.462Z" fill="white"/>
<path d="M919.773 241.787C920.706 236.121 915.964 230.623 909.18 229.507C902.397 228.39 896.142 232.078 895.209 237.743C894.276 243.409 899.018 248.907 905.801 250.024C912.585 251.14 918.84 247.453 919.773 241.787Z" fill="white"/>
<path d="M926.924 236.944C922.303 249.489 931.897 264.549 940.565 267.782C948.42 270.714 958.762 261.136 956.282 250.294C955.801 248.181 956.577 245.968 958.273 244.632C968.752 236.348 970.318 225.858 957.368 220.562C948.808 217.063 931.552 224.399 926.931 236.944H926.924Z" fill="white"/>
<path d="M1107.74 313.243C1108.59 308.329 1104.5 303.536 1098.6 302.53C1092.7 301.524 1087.23 304.7 1086.37 309.607C1085.52 314.515 1089.61 319.314 1095.51 320.32C1101.41 321.326 1106.88 318.15 1107.74 313.243Z" fill="white"/>
<path d="M1071.72 268.193C1072.74 262.316 1069.57 256.877 1064.64 256.036C1059.7 255.195 1054.87 259.276 1053.85 265.154C1052.83 271.031 1056 276.47 1060.93 277.311C1065.87 278.151 1070.7 274.07 1071.72 268.193Z" fill="white"/>
<path d="M1104.42 298.7C1110.92 296.426 1114.66 290.198 1112.77 284.789C1110.87 279.381 1104.07 276.84 1097.57 279.115C1091.07 281.389 1087.33 287.617 1089.23 293.026C1091.12 298.434 1097.92 300.974 1104.42 298.7Z" fill="white"/>
<path d="M1093.01 275.952C1097.26 270.548 1097.04 263.291 1092.52 259.743C1088.01 256.195 1080.9 257.7 1076.65 263.104C1072.41 268.508 1072.62 275.765 1077.14 279.313C1081.66 282.861 1088.76 281.356 1093.01 275.952Z" fill="white"/>
<path d="M1077.83 288.038C1069.06 277.943 1051.24 279.086 1044.23 285.121C1037.88 290.589 1041.27 304.269 1051.98 307.315C1054.06 307.912 1055.62 309.658 1055.98 311.784C1058.19 324.955 1066.63 331.385 1077.51 322.591C1084.7 316.778 1086.59 298.126 1077.83 288.031V288.038Z" fill="white"/>
<path d="M1178.44 262.33C1182.53 265.175 1188.61 263.494 1192.01 258.565C1195.4 253.636 1194.84 247.335 1190.74 244.489C1186.64 241.644 1180.57 243.325 1177.17 248.254C1173.77 253.183 1174.34 259.485 1178.44 262.33Z" fill="white"/>
<path d="M1248.45 247.579C1251.35 243.499 1249.75 237.393 1244.89 233.939C1240.02 230.486 1233.73 230.994 1230.83 235.074C1227.94 239.154 1229.53 245.26 1234.39 248.714C1239.26 252.167 1245.55 251.659 1248.45 247.579Z" fill="white"/>
<path d="M1213.72 267.546C1214.39 260.695 1210.32 254.682 1204.62 254.117C1198.91 253.552 1193.74 258.648 1193.06 265.499C1192.38 272.351 1196.45 278.363 1202.16 278.928C1207.86 279.493 1213.04 274.397 1213.72 267.546Z" fill="white"/>
<path d="M1233.24 271.04C1238.36 268.443 1239.99 261.369 1236.88 255.239C1233.78 249.109 1227.1 246.245 1221.98 248.842C1216.86 251.439 1215.23 258.514 1218.33 264.643C1221.44 270.773 1228.12 273.637 1233.24 271.04Z" fill="white"/>
<path d="M1213.9 245.84C1226.75 242.154 1233.24 225.506 1230.72 216.611C1228.44 208.55 1214.6 205.862 1207.32 214.276C1205.9 215.914 1203.65 216.597 1201.58 216.022C1188.7 212.465 1179.31 217.409 1182.7 230.981C1184.93 239.955 1201.05 249.533 1213.9 245.84Z" fill="white"/>
<path d="M748.397 133.617C749.252 128.702 745.163 123.91 739.262 122.904C733.362 121.898 727.885 125.074 727.03 129.981C726.175 134.888 730.264 139.688 736.165 140.694C742.065 141.7 747.541 138.524 748.397 133.617Z" fill="white"/>
<path d="M745.079 119.088C751.579 116.813 755.314 110.585 753.42 105.177C751.527 99.7684 744.723 97.2279 738.223 99.5022C731.723 101.777 727.989 108.005 729.882 113.413C731.775 118.821 738.579 121.362 745.079 119.088Z" fill="white"/>
<path d="M733.679 96.3533C737.927 90.9492 737.709 83.6924 733.193 80.1446C728.677 76.5969 721.573 78.1018 717.325 83.5059C713.078 88.91 713.295 96.1667 717.811 99.7145C722.327 103.262 729.432 101.757 733.679 96.3533Z" fill="white"/>
<path d="M718.485 108.412C709.717 98.3167 691.894 99.4591 684.887 105.494C678.534 110.962 681.933 124.643 692.634 127.689C694.718 128.285 696.278 130.031 696.637 132.158C698.844 145.328 707.288 151.759 718.169 142.964C725.363 137.152 727.246 118.499 718.485 108.404V108.412Z" fill="white"/>
<path d="M785.517 265.29C780.616 266.21 777.562 271.728 778.69 277.598C779.818 283.475 784.713 287.485 789.614 286.565C794.515 285.645 797.57 280.127 796.442 274.257C795.313 268.38 790.419 264.371 785.517 265.29Z" fill="white"/>
<path d="M759.174 332.705C765.047 331.659 769.096 326.816 768.217 321.89C767.338 316.964 761.865 313.819 755.992 314.866C750.119 315.913 746.07 320.755 746.949 325.682C747.827 330.608 753.301 333.752 759.174 332.705Z" fill="white"/>
<path d="M773.094 289.808C777.496 286.138 777.488 278.877 773.077 273.59C768.666 268.302 761.522 266.992 757.121 270.662C752.719 274.332 752.727 281.593 757.138 286.88C761.549 292.167 768.693 293.478 773.094 289.808Z" fill="white"/>
<path d="M764.606 305.8C766.345 300.328 762.442 294.205 755.89 292.124C749.338 290.044 742.617 292.794 740.879 298.266C739.14 303.739 743.042 309.862 749.594 311.942C756.147 314.023 762.867 311.273 764.606 305.8Z" fill="white"/>
<path d="M772.407 302.134C766.032 313.882 773.355 330.17 781.469 334.61C788.821 338.641 800.435 330.651 799.537 319.565C799.365 317.402 800.45 315.326 802.318 314.248C813.882 307.559 816.937 297.399 804.884 290.3C796.914 285.609 778.781 290.387 772.407 302.134Z" fill="white"/>
<path d="M819.093 82.7048C823.19 85.5501 829.263 83.8688 832.662 78.9399C836.061 74.011 835.494 67.7097 831.397 64.8644C827.301 62.0192 821.228 63.7004 817.828 68.6294C814.429 73.5583 814.997 79.8596 819.093 82.7048Z" fill="white"/>
<path d="M889.097 67.9297C891.995 63.8499 890.401 57.7431 885.537 54.2899C880.673 50.8367 874.38 51.3446 871.482 55.4244C868.584 59.5042 870.178 65.6109 875.042 69.0642C879.906 72.5174 886.199 72.0095 889.097 67.9297Z" fill="white"/>
<path d="M854.354 87.9047C855.033 81.0535 850.96 75.0413 845.256 74.4762C839.553 73.9111 834.378 79.007 833.699 85.8582C833.02 92.7094 837.093 98.7215 842.797 99.2867C848.5 99.8518 853.674 94.7559 854.354 87.9047Z" fill="white"/>
<path d="M873.898 91.415C879.02 88.8181 880.652 81.7436 877.543 75.6139C874.434 69.4841 867.761 66.6203 862.638 69.2172C857.516 71.8142 855.884 78.8885 858.993 85.0183C862.102 91.148 868.775 94.012 873.898 91.415Z" fill="white"/>
<path d="M854.56 66.2147C867.41 62.5288 873.892 45.8812 871.377 36.9861C869.099 28.9246 855.257 26.2374 847.977 34.651C846.561 36.2892 844.311 36.9717 842.234 36.3969C829.355 32.8403 819.969 37.7837 823.354 51.3561C825.59 60.3302 841.71 69.9077 854.56 66.2147Z" fill="white"/>
<path d="M1022.16 95.7132C1022.95 90.7883 1018.8 86.0269 1012.89 85.0784C1006.98 84.1299 1001.55 87.3535 1000.76 92.2785C999.969 97.2034 1004.12 101.965 1010.03 102.913C1015.94 103.862 1021.37 100.638 1022.16 95.7132Z" fill="white"/>
<path d="M986.092 50.8856C987.172 45.02 984.057 39.5307 979.135 38.6249C974.212 37.719 969.347 41.7396 968.267 47.6052C967.187 53.4708 970.301 58.9602 975.224 59.866C980.146 60.7719 985.012 56.7512 986.092 50.8856Z" fill="white"/>
<path d="M1018.81 81.2728C1025.31 78.9985 1029.05 72.7703 1027.15 67.362C1025.26 61.9537 1018.46 59.4131 1011.96 61.6875C1005.46 63.9619 1001.72 70.1899 1003.61 75.5983C1005.51 81.0066 1012.31 83.5472 1018.81 81.2728Z" fill="white"/>
<path d="M1007.4 58.5386C1011.65 53.1345 1011.43 45.8777 1006.92 42.3299C1002.4 38.7822 995.295 40.2871 991.048 45.6912C986.8 51.0953 987.018 58.352 991.534 61.8998C996.05 65.4475 1003.15 63.9426 1007.4 58.5386Z" fill="white"/>
<path d="M992.226 70.6047C983.458 60.5098 965.635 61.6522 958.627 67.6876C952.274 73.1554 955.674 86.8357 966.375 89.8821C968.459 90.4785 970.019 92.2244 970.378 94.3512C972.584 107.521 981.029 113.952 991.91 105.157C999.104 99.3448 1000.99 80.6925 992.226 70.5976V70.6047Z" fill="white"/>
<path d="M1144.86 85.6655C1139.96 86.5852 1136.9 92.1032 1138.03 97.9734C1139.16 103.851 1144.05 107.86 1148.96 106.94C1153.86 106.021 1156.91 100.502 1155.78 94.6323C1154.66 88.755 1149.76 84.7458 1144.86 85.6655Z" fill="white"/>
<path d="M1118.53 153.104C1124.4 152.057 1128.45 147.215 1127.57 142.289C1126.7 137.363 1121.22 134.218 1115.35 135.265C1109.48 136.312 1105.43 141.154 1106.31 146.08C1107.19 151.006 1112.66 154.151 1118.53 153.104Z" fill="white"/>
<path d="M1132.45 110.189C1136.86 106.518 1136.85 99.2571 1132.44 93.9699C1128.03 88.6828 1120.88 87.372 1116.48 91.0421C1112.08 94.7123 1112.09 101.974 1116.5 107.261C1120.91 112.548 1128.05 113.859 1132.45 110.189Z" fill="white"/>
<path d="M1123.96 126.169C1125.69 120.697 1121.79 114.574 1115.24 112.494C1108.69 110.413 1101.97 113.163 1100.23 118.636C1098.49 124.108 1102.39 130.231 1108.94 132.311C1115.5 134.392 1122.22 131.642 1123.96 126.169Z" fill="white"/>
<path d="M1131.75 122.511C1125.38 134.258 1132.7 150.547 1140.81 154.987C1148.17 159.018 1159.78 151.028 1158.88 139.941C1158.71 137.779 1159.79 135.702 1161.66 134.625C1173.23 127.935 1176.28 117.776 1164.23 110.677C1156.26 105.985 1138.13 110.763 1131.75 122.511Z" fill="white"/>
</g>
<mask id="mask3_331_1070" style="mask-type:luminance" maskUnits="userSpaceOnUse" x="-1" y="-357" width="720" height="719">
<path d="M718.627 -356.5H-0.0595703V362H718.627V-356.5Z" fill="white"/>
</mask>
<g mask="url(#mask3_331_1070)">
<path d="M582.468 39.4067C587.166 37.7253 589.338 31.7951 587.32 26.1614C585.302 20.5276 579.859 17.3237 575.162 19.0051C570.464 20.6865 568.292 26.6166 570.31 32.2503C572.328 37.8841 577.771 41.0882 582.468 39.4067Z" fill="white"/>
<path d="M559.007 89.3568C564.668 87.4752 567.977 82.1007 566.398 77.3523C564.819 72.604 558.949 70.2801 553.288 72.1617C547.627 74.0433 544.318 79.4179 545.897 84.1662C547.476 88.9145 553.346 91.2384 559.007 89.3568Z" fill="white"/>
<path d="M566.518 44.8603C570.345 40.5947 569.292 33.4102 564.165 28.8132C559.038 24.2162 551.78 23.9476 547.953 28.2132C544.126 32.4788 545.18 39.6633 550.306 44.2603C555.433 48.8573 562.691 49.1259 566.518 44.8603Z" fill="white"/>
<path d="M560.412 62.1434C561.345 56.4777 556.603 50.9796 549.819 49.863C543.036 48.7464 536.781 52.4342 535.848 58.0998C534.914 63.7655 539.657 69.2636 546.44 70.3802C553.224 71.4968 559.479 67.809 560.412 62.1434Z" fill="white"/>
<path d="M567.585 57.3207C562.964 69.8657 572.559 84.9255 581.226 88.1588C589.081 91.0903 599.423 81.5127 596.944 70.6705C596.462 68.5581 597.238 66.3451 598.934 65.0087C609.413 56.7244 610.98 46.2343 598.029 40.939C589.469 37.4399 572.214 44.7757 567.592 57.3207H567.585Z" fill="white"/>
<path d="M712.376 88.5682C713.396 82.6909 710.227 77.2519 705.297 76.4112C700.359 75.5706 695.53 79.6516 694.509 85.529C693.489 91.4063 696.658 96.8454 701.588 97.686C706.526 98.5267 711.355 94.4455 712.376 88.5682Z" fill="white"/>
<path d="M733.678 96.3552C737.926 90.9512 737.708 83.6943 733.192 80.1466C728.676 76.5989 721.572 78.1038 717.324 83.5079C713.077 88.9119 713.294 96.1687 717.81 99.7164C722.326 103.264 729.43 101.759 733.678 96.3552Z" fill="white"/>
<path d="M718.484 108.413C709.716 98.3184 691.893 99.4608 684.886 105.496C678.532 110.964 681.932 124.644 692.633 127.691C694.717 128.287 696.277 130.033 696.636 132.16C698.842 145.33 707.287 151.76 718.168 142.966C725.362 137.153 727.245 118.501 718.484 108.406V108.413Z" fill="white"/>
<path d="M662.817 275.342C663.607 270.417 659.458 265.656 653.548 264.707C647.638 263.759 642.206 266.982 641.415 271.907C640.624 276.832 644.774 281.594 650.684 282.542C656.594 283.491 662.026 280.267 662.817 275.342Z" fill="white"/>
<path d="M626.752 230.51C627.832 224.644 624.717 219.155 619.794 218.249C614.872 217.343 610.006 221.364 608.926 227.229C607.846 233.095 610.961 238.584 615.883 239.49C620.806 240.396 625.672 236.375 626.752 230.51Z" fill="white"/>
<path d="M659.475 260.905C665.975 258.63 669.71 252.402 667.816 246.994C665.923 241.586 659.119 239.045 652.619 241.319C646.119 243.594 642.385 249.822 644.278 255.23C646.171 260.638 652.975 263.179 659.475 260.905Z" fill="white"/>
<path d="M648.095 238.172C652.343 232.768 652.125 225.511 647.609 221.963C643.093 218.415 635.989 219.92 631.741 225.324C627.494 230.728 627.711 237.985 632.227 241.533C636.743 245.081 643.848 243.576 648.095 238.172Z" fill="white"/>
<path d="M632.883 250.232C624.115 240.137 606.292 241.279 599.285 247.315C592.932 252.782 596.331 266.463 607.032 269.509C609.116 270.105 610.676 271.851 611.035 273.978C613.242 287.148 621.686 293.579 632.567 284.784C639.761 278.972 641.644 260.319 632.883 250.225V250.232Z" fill="white"/>
<path d="M223.123 219.037C227.82 217.355 229.992 211.425 227.975 205.791C225.957 200.158 220.513 196.954 215.816 198.635C211.119 200.317 208.947 206.247 210.964 211.88C212.982 217.514 218.426 220.718 223.123 219.037Z" fill="white"/>
<path d="M199.673 268.993C205.334 267.111 208.643 261.737 207.064 256.989C205.485 252.24 199.616 249.916 193.955 251.798C188.294 253.68 184.985 259.054 186.564 263.802C188.143 268.551 194.012 270.875 199.673 268.993Z" fill="white"/>
<path d="M207.199 224.493C211.026 220.228 209.972 213.043 204.846 208.446C199.719 203.849 192.461 203.581 188.634 207.846C184.807 212.112 185.861 219.296 190.987 223.893C196.114 228.49 203.372 228.759 207.199 224.493Z" fill="white"/>
<path d="M201.042 241.779C201.975 236.113 197.233 230.615 190.449 229.498C183.666 228.382 177.411 232.069 176.478 237.735C175.545 243.401 180.287 248.899 187.07 250.015C193.854 251.132 200.109 247.444 201.042 241.779Z" fill="white"/>
<path d="M208.24 236.947C203.618 249.492 213.213 264.552 221.88 267.785C229.735 270.716 240.077 261.139 237.598 250.296C237.116 248.184 237.893 245.971 239.589 244.635C250.067 236.35 251.634 225.86 238.683 220.565C230.124 217.066 212.868 224.402 208.247 236.947H208.24Z" fill="white"/>
<path d="M389.051 313.244C389.906 308.33 385.817 303.537 379.916 302.531C374.016 301.526 368.539 304.701 367.684 309.609C366.829 314.516 370.918 319.316 376.819 320.322C382.719 321.327 388.195 318.152 389.051 313.244Z" fill="white"/>
<path d="M353.031 268.195C354.052 262.318 350.882 256.879 345.952 256.038C341.015 255.198 336.185 259.279 335.164 265.156C334.144 271.033 337.313 276.472 342.244 277.313C347.181 278.154 352.01 274.072 353.031 268.195Z" fill="white"/>
<path d="M385.737 298.723C392.237 296.448 395.972 290.22 394.078 284.812C392.185 279.403 385.381 276.863 378.881 279.137C372.381 281.412 368.646 287.64 370.54 293.048C372.433 298.456 379.237 300.997 385.737 298.723Z" fill="white"/>
<path d="M374.366 275.995C378.613 270.591 378.396 263.334 373.88 259.787C369.364 256.239 362.259 257.744 358.012 263.148C353.764 268.552 353.982 275.809 358.498 279.357C363.014 282.904 370.118 281.399 374.366 275.995Z" fill="white"/>
<path d="M359.139 288.039C350.371 277.944 332.548 279.087 325.541 285.122C319.188 290.59 322.587 304.27 333.288 307.317C335.372 307.913 336.932 309.659 337.291 311.786C339.498 324.956 347.942 331.386 358.823 322.592C366.017 316.779 367.9 298.127 359.139 288.032V288.039Z" fill="white"/>
<path d="M459.751 262.331C463.848 265.177 469.921 263.495 473.32 258.566C476.719 253.637 476.152 247.336 472.055 244.491C467.959 241.646 461.886 243.327 458.486 248.256C455.087 253.185 455.655 259.486 459.751 262.331Z" fill="white"/>
<path d="M529.73 247.552C532.628 243.472 531.035 237.366 526.17 233.912C521.306 230.459 515.014 230.967 512.116 235.047C509.218 239.127 510.812 245.233 515.676 248.687C520.54 252.14 526.832 251.632 529.73 247.552Z" fill="white"/>
<path d="M494.989 267.537C495.669 260.686 491.596 254.674 485.892 254.109C480.188 253.544 475.014 258.64 474.335 265.491C473.656 272.342 477.729 278.354 483.432 278.919C489.136 279.484 494.31 274.388 494.989 267.537Z" fill="white"/>
<path d="M514.558 271.041C519.68 268.444 521.312 261.369 518.203 255.239C515.094 249.11 508.421 246.246 503.298 248.843C498.176 251.44 496.544 258.514 499.653 264.644C502.762 270.774 509.435 273.637 514.558 271.041Z" fill="white"/>
<path d="M495.218 245.841C508.068 242.155 514.55 225.508 512.035 216.613C509.757 208.551 495.915 205.864 488.635 214.277C487.219 215.916 484.969 216.598 482.892 216.023C470.013 212.467 460.627 217.41 464.012 230.983C466.248 239.957 482.368 249.534 495.218 245.841Z" fill="white"/>
<path d="M29.7084 133.619C30.5636 128.704 26.4743 123.912 20.5739 122.906C14.6735 121.9 9.19706 125.076 8.34182 129.983C7.48658 134.891 11.5759 139.69 17.4763 140.696C23.3768 141.702 28.8531 138.526 29.7084 133.619Z" fill="white"/>
<path d="M26.397 119.105C32.897 116.831 36.6313 110.602 34.7379 105.194C32.8445 99.7857 26.0404 97.2452 19.5404 99.5196C13.0405 101.794 9.30614 108.022 11.1995 113.43C13.0929 118.839 19.8971 121.379 26.397 119.105Z" fill="white"/>
<path d="M15.0354 96.3979C19.283 90.9939 19.0654 83.737 14.5494 80.1893C10.0334 76.6416 2.9292 78.1465 -1.31837 83.5505C-5.56594 88.9546 -5.34836 96.2114 -0.832366 99.7591C3.68363 103.307 10.7879 101.802 15.0354 96.3979Z" fill="white"/>
<path d="M-0.20285 108.414C-8.97083 98.3189 -26.7943 99.4613 -33.8015 105.497C-40.1547 110.964 -36.7553 124.645 -26.054 127.691C-23.9698 128.288 -22.4103 130.033 -22.0509 132.16C-19.8446 145.33 -11.4 151.761 -0.519073 142.966C6.67498 137.154 8.55794 118.502 -0.20285 108.407V108.414Z" fill="white"/>
<path d="M66.8292 265.291C61.9278 266.21 58.8734 271.728 60.0017 277.599C61.13 283.476 66.0243 287.485 70.9257 286.566C75.8272 285.646 78.8816 280.128 77.7533 274.258C76.6249 268.38 71.7307 264.371 66.8292 265.291Z" fill="white"/>
<path d="M40.4772 332.655C46.3503 331.608 50.3991 326.766 49.5205 321.84C48.6419 316.914 43.1686 313.769 37.2955 314.816C31.4224 315.863 27.3736 320.705 28.2522 325.631C29.1308 330.557 34.6041 333.702 40.4772 332.655Z" fill="white"/>
<path d="M54.3776 289.774C58.7791 286.104 58.7715 278.843 54.3605 273.556C49.9496 268.268 42.8057 266.958 38.4042 270.628C34.0027 274.298 34.0103 281.559 38.4212 286.846C42.8322 292.134 49.9761 293.444 54.3776 289.774Z" fill="white"/>
<path d="M45.9156 305.798C47.6541 300.325 43.752 294.202 37.1999 292.122C30.6477 290.041 23.9268 292.791 22.1882 298.264C20.4497 303.736 24.3519 309.859 30.904 311.94C37.4561 314.02 44.177 311.27 45.9156 305.798Z" fill="white"/>
<path d="M53.7182 302.136C47.3435 313.883 54.6669 330.172 62.7808 334.612C70.133 338.643 81.747 330.653 80.8486 319.567C80.6761 317.404 81.7614 315.328 83.63 314.25C95.1936 307.561 98.248 297.401 86.1957 290.302C78.2254 285.61 60.093 290.388 53.7182 302.136Z" fill="white"/>
<path d="M100.405 82.707C104.501 85.5523 110.574 83.871 113.974 78.9421C117.373 74.0132 116.805 67.7119 112.709 64.8666C108.612 62.0214 102.539 63.7026 99.1399 68.6315C95.7405 73.5605 96.3082 79.8618 100.405 82.707Z" fill="white"/>
<path d="M170.376 67.9106C173.274 63.8308 171.68 57.7241 166.816 54.2709C161.952 50.8176 155.66 51.3256 152.762 55.4054C149.864 59.4852 151.457 65.5919 156.322 69.0451C161.186 72.4983 167.478 71.9904 170.376 67.9106Z" fill="white"/>
<path d="M135.627 87.9028C136.306 81.0516 132.233 75.0394 126.529 74.4743C120.826 73.9092 115.652 79.0051 114.972 85.8563C114.293 92.7075 118.366 98.7196 124.07 99.2847C129.773 99.8498 134.948 94.754 135.627 87.9028Z" fill="white"/>
<path d="M155.211 91.4172C160.334 88.8203 161.966 81.7458 158.857 75.6161C155.747 69.4863 149.074 66.6225 143.952 69.2194C138.829 71.8164 137.197 78.8907 140.307 85.0205C143.416 91.1502 150.089 94.0142 155.211 91.4172Z" fill="white"/>
<path d="M135.871 66.2169C148.721 62.5309 155.204 45.8834 152.689 36.9883C150.41 28.9268 136.568 26.2396 129.288 34.6532C127.872 36.2914 125.623 36.9739 123.546 36.3991C110.667 32.8425 101.281 37.7859 104.666 51.3583C106.901 60.3324 123.021 69.9099 135.871 66.2169Z" fill="white"/>
<path d="M303.472 95.7132C304.262 90.7882 300.113 86.0269 294.203 85.0784C288.293 84.1299 282.861 87.3535 282.07 92.2784C281.279 97.2034 285.429 101.965 291.339 102.913C297.249 103.862 302.681 100.638 303.472 95.7132Z" fill="white"/>
<path d="M267.409 50.8849C268.489 45.0193 265.374 39.5299 260.451 38.6241C255.529 37.7182 250.663 41.7389 249.583 47.6045C248.503 53.4701 251.618 58.9594 256.54 59.8653C261.463 60.7712 266.329 56.7505 267.409 50.8849Z" fill="white"/>
<path d="M300.132 81.2882C306.632 79.0139 310.367 72.7857 308.473 67.3774C306.58 61.9691 299.776 59.4285 293.276 61.7029C286.776 63.9773 283.041 70.2053 284.935 75.6137C286.828 81.022 293.632 83.5626 300.132 81.2882Z" fill="white"/>
<path d="M288.764 58.5752C293.012 53.1711 292.794 45.9143 288.278 42.3666C283.762 38.8189 276.658 40.3237 272.411 45.7278C268.163 51.1318 268.381 58.3887 272.897 61.9364C277.413 65.4841 284.517 63.9792 288.764 58.5752Z" fill="white"/>
<path d="M273.538 70.6071C264.77 60.5122 246.947 61.6547 239.94 67.6901C233.587 73.1579 236.986 86.8381 247.687 89.8846C249.771 90.4809 251.331 92.2268 251.69 94.3536C253.897 107.524 262.341 113.954 273.222 105.16C280.416 99.3472 282.299 80.695 273.538 70.6V70.6071Z" fill="white"/>
<path d="M426.176 85.6662C421.274 86.5859 418.22 92.104 419.348 97.9741C420.476 103.851 425.371 107.861 430.272 106.941C435.174 106.021 438.228 100.503 437.1 94.6331C435.971 88.7558 431.077 84.7465 426.176 85.6662Z" fill="white"/>
<path d="M399.838 153.054C405.711 152.007 409.76 147.165 408.881 142.239C408.002 137.313 402.529 134.168 396.656 135.215C390.783 136.262 386.734 141.104 387.613 146.03C388.491 150.956 393.965 154.101 399.838 153.054Z" fill="white"/>
<path d="M413.742 110.162C418.144 106.492 418.136 99.2304 413.725 93.9433C409.314 88.6562 402.17 87.3453 397.769 91.0155C393.367 94.6856 393.375 101.947 397.786 107.234C402.197 112.521 409.341 113.832 413.742 110.162Z" fill="white"/>
<path d="M405.262 126.174C407.001 120.702 403.098 114.579 396.546 112.498C389.994 110.418 383.273 113.168 381.535 118.64C379.796 124.113 383.698 130.236 390.25 132.316C396.803 134.397 403.523 131.647 405.262 126.174Z" fill="white"/>
<path d="M413.065 122.51C406.69 134.258 414.013 150.546 422.127 154.987C429.479 159.017 441.093 151.028 440.195 139.941C440.023 137.779 441.108 135.702 442.976 134.624C454.54 127.935 457.594 117.775 445.542 110.677C437.572 105.985 419.439 110.763 413.065 122.51Z" fill="white"/>
</g>
</g>
</g>
</mask>
<g mask="url(#mask0_331_1070)">
<path d="M1455.4 361.501H-40.9941V-36.9517C93.1638 -70.3013 202 106 347 153C562.968 223.003 484.711 -110.697 702.5 -99C920.289 -87.3027 1037.75 -121.072 1037.75 -357.755C1037.75 -576.306 1064.63 -562.332 1136.31 -631.271H1455.4V361.501Z" fill="#D9D9D9" fill-opacity="0.6"/>
</g>
</g>
</g>
<defs>
<clipPath id="clip0_331_1070">
<rect width="1440" height="313" fill="white"/>
</clipPath>
<clipPath id="clip1_331_1070">
<rect width="1492.4" height="1437" fill="white" transform="translate(-37 -1075)"/>
</clipPath>
</defs>
</svg>
