<svg width="138" height="26" viewBox="0 0 138 26" fill="none" xmlns="http://www.w3.org/2000/svg">
<g clip-path="url(#clip0_38_594)">
<path fill-rule="evenodd" clip-rule="evenodd" d="M19.8207 3.29874C20.0089 3.35699 20.1776 3.46543 20.3088 3.61241C20.4399 3.75939 20.5285 3.93934 20.565 4.13291L22.0177 11.8842C22.1586 12.6284 22.203 13.3651 22.1651 14.0833H22.7501C23.0374 14.0833 23.3129 14.1975 23.5161 14.4006C23.7193 14.6038 23.8334 14.8793 23.8334 15.1667C23.8334 15.454 23.7193 15.7295 23.5161 15.9327C23.3129 16.1359 23.0374 16.25 22.7501 16.25H21.7816C21.6253 16.7584 21.4256 17.2524 21.1847 17.7266L22.3438 18.6539C22.4549 18.7428 22.5474 18.8528 22.6161 18.9774C22.6847 19.1021 22.7281 19.2391 22.7438 19.3805C22.7595 19.5219 22.7472 19.6651 22.7075 19.8018C22.6679 19.9384 22.6017 20.066 22.5128 20.1771C22.4239 20.2882 22.314 20.3807 22.1893 20.4493C22.0646 20.5179 21.9277 20.5613 21.7862 20.577C21.6448 20.5927 21.5017 20.5804 21.365 20.5408C21.2283 20.5012 21.1008 20.435 20.9897 20.3461L19.9757 19.5347C19.1164 20.5452 18.0472 21.3564 16.8425 21.9116C15.6378 22.4669 14.3266 22.753 13.0001 22.75C11.6734 22.7532 10.362 22.4672 9.15709 21.9119C7.95221 21.3566 6.88283 20.5453 6.02341 19.5347L5.0105 20.3461C4.89939 20.435 4.77185 20.5012 4.63518 20.5408C4.4985 20.5804 4.35535 20.5927 4.21391 20.577C4.07247 20.5613 3.93551 20.5179 3.81084 20.4493C3.68618 20.3807 3.57625 20.2882 3.48733 20.1771C3.39842 20.066 3.33225 19.9384 3.29263 19.8018C3.253 19.6651 3.24068 19.5219 3.25637 19.3805C3.27207 19.2391 3.31546 19.1021 3.38409 18.9774C3.45271 18.8528 3.54522 18.7428 3.65633 18.6539L4.8155 17.7266C4.57434 17.2526 4.37497 16.7586 4.21966 16.25H3.25008C2.96276 16.25 2.68721 16.1359 2.48405 15.9327C2.28088 15.7295 2.16675 15.454 2.16675 15.1667C2.16675 14.8793 2.28088 14.6038 2.48405 14.4006C2.68721 14.1975 2.96276 14.0833 3.25008 14.0833H3.83508C3.79618 13.347 3.84564 12.6087 3.98241 11.8842L5.43516 4.13399C5.47147 3.94016 5.56 3.75991 5.69121 3.61269C5.82241 3.46546 5.99132 3.35685 6.17971 3.29855C6.3681 3.24025 6.56883 3.23447 6.76026 3.28185C6.95169 3.32923 7.12655 3.42797 7.266 3.56741L9.88116 6.18258C10.0843 6.38576 10.3598 6.49993 10.6471 6.49999H15.3531C15.6404 6.49993 15.9159 6.38576 16.119 6.18258L18.7342 3.56741C18.8737 3.42795 19.0486 3.32922 19.2401 3.28188C19.4316 3.23453 19.6323 3.24036 19.8207 3.29874ZM13.5992 15.8221L13.0001 16.1222L12.401 15.8232C12.2733 15.7543 12.1331 15.7118 11.9886 15.6982C11.8442 15.6845 11.6985 15.7 11.5601 15.7438C11.4218 15.7875 11.2937 15.8586 11.1833 15.9528C11.073 16.047 10.9827 16.1624 10.9178 16.2922C10.853 16.422 10.8148 16.5635 10.8056 16.7082C10.7965 16.853 10.8165 16.9982 10.8645 17.1351C10.9125 17.272 10.9875 17.3979 11.0851 17.5053C11.1826 17.6126 11.3008 17.6993 11.4325 17.7602L12.0316 18.0602C12.3323 18.2105 12.6639 18.2888 13.0001 18.2888C13.3363 18.2888 13.6678 18.2105 13.9686 18.0602L14.5677 17.7602C14.6994 17.6993 14.8175 17.6126 14.9151 17.5053C15.0127 17.3979 15.0877 17.272 15.1357 17.1351C15.1837 16.9982 15.2037 16.853 15.1945 16.7082C15.1854 16.5635 15.1472 16.422 15.0823 16.2922C15.0174 16.1624 14.9271 16.047 14.8168 15.9528C14.7065 15.8586 14.5783 15.7875 14.44 15.7438C14.3017 15.7 14.156 15.6845 14.0115 15.6982C13.8671 15.7118 13.7269 15.7543 13.5992 15.8232V15.8221ZM10.2917 10.8333C9.86077 10.8333 9.44745 11.0045 9.1427 11.3093C8.83795 11.614 8.66675 12.0274 8.66675 12.4583C8.66675 12.8893 8.83795 13.3026 9.1427 13.6074C9.44745 13.9121 9.86077 14.0833 10.2917 14.0833C10.7227 14.0833 11.136 13.9121 11.4408 13.6074C11.7455 13.3026 11.9167 12.8893 11.9167 12.4583C11.9167 12.0274 11.7455 11.614 11.4408 11.3093C11.136 11.0045 10.7227 10.8333 10.2917 10.8333ZM15.7084 10.8333C15.2774 10.8333 14.8641 11.0045 14.5594 11.3093C14.2546 11.614 14.0834 12.0274 14.0834 12.4583C14.0834 12.8893 14.2546 13.3026 14.5594 13.6074C14.8641 13.9121 15.2774 14.0833 15.7084 14.0833C16.1394 14.0833 16.5527 13.9121 16.8575 13.6074C17.1622 13.3026 17.3334 12.8893 17.3334 12.4583C17.3334 12.0274 17.1622 11.614 16.8575 11.3093C16.5527 11.0045 16.1394 10.8333 15.7084 10.8333Z" fill="white"/>
</g>
<path d="M35.5909 20V7.20004H38.3886L43.0331 14.752L41.0583 14.7337L45.7577 7.20004H48.464V20H45.4285V16.1234C45.4285 15.0019 45.4529 13.9962 45.5017 13.1063C45.5626 12.2042 45.6602 11.3204 45.7942 10.4549L46.1417 11.4057L42.6125 16.8732H41.3691L37.9131 11.4423L38.2606 10.4549C38.4068 11.2716 38.5044 12.1189 38.5531 12.9966C38.6141 13.8621 38.6446 14.9044 38.6446 16.1234V20H35.5909ZM51.5164 20V10.2903H54.4604V20H51.5164ZM52.9975 8.37032C52.4367 8.37032 51.9979 8.24232 51.6809 7.98633C51.3762 7.71814 51.2238 7.34023 51.2238 6.85261C51.2238 6.40157 51.3823 6.03585 51.6992 5.75547C52.0162 5.47509 52.4489 5.3349 52.9975 5.3349C53.5339 5.3349 53.9545 5.469 54.2592 5.73719C54.5762 5.99319 54.7346 6.365 54.7346 6.85261C54.7346 7.30366 54.5762 7.66937 54.2592 7.94975C53.9545 8.23013 53.5339 8.37032 52.9975 8.37032ZM61.4873 20.1829C60.5487 20.1829 59.7014 19.9634 58.9456 19.5246C58.202 19.0857 57.6169 18.4884 57.1902 17.7326C56.7635 16.9646 56.5502 16.1052 56.5502 15.1543C56.5502 14.1791 56.7635 13.3135 57.1902 12.5577C57.6169 11.7897 58.202 11.1863 58.9456 10.7475C59.7014 10.3086 60.5487 10.0892 61.4873 10.0892C62.3529 10.0892 63.1452 10.2477 63.8645 10.5646C64.5959 10.8694 65.1688 11.2899 65.5833 11.8263L63.9925 13.7646C63.834 13.5574 63.639 13.3684 63.4073 13.1977C63.1757 13.0271 62.9197 12.893 62.6393 12.7955C62.359 12.6979 62.0664 12.6492 61.7616 12.6492C61.2984 12.6492 60.89 12.7589 60.5365 12.9783C60.183 13.1855 59.9087 13.4781 59.7136 13.856C59.5186 14.2339 59.4211 14.6606 59.4211 15.136C59.4211 15.5993 59.5186 16.0198 59.7136 16.3977C59.9209 16.7634 60.2012 17.056 60.5548 17.2754C60.9083 17.4949 61.3045 17.6046 61.7433 17.6046C62.0603 17.6046 62.3529 17.5619 62.621 17.4766C62.8892 17.3912 63.133 17.2693 63.3525 17.1109C63.5841 16.9524 63.7974 16.7634 63.9925 16.544L65.5833 18.4823C65.1688 18.9943 64.5898 19.4088 63.8462 19.7257C63.1026 20.0305 62.3163 20.1829 61.4873 20.1829ZM67.191 20V6.46862H70.0985V12.2652L69.495 12.4846C69.6291 12.0457 69.8668 11.6496 70.2082 11.296C70.5617 10.9303 70.9823 10.6377 71.4699 10.4183C71.9575 10.1989 72.4695 10.0892 73.0059 10.0892C73.7373 10.0892 74.3529 10.2416 74.8527 10.5463C75.3525 10.8389 75.7243 11.2838 75.9681 11.8812C76.2241 12.4663 76.3521 13.1916 76.3521 14.0572V20H73.4082V14.2766C73.4082 13.8865 73.3533 13.5634 73.2436 13.3075C73.1339 13.0515 72.9693 12.8625 72.7499 12.7406C72.5304 12.6187 72.2562 12.5638 71.927 12.576C71.671 12.576 71.4333 12.6187 71.2139 12.704C70.9944 12.7772 70.7994 12.893 70.6287 13.0515C70.4703 13.1977 70.3484 13.3684 70.263 13.5634C70.1777 13.7585 70.135 13.9779 70.135 14.2217V20H68.6539C68.3369 20 68.0505 20 67.7945 20C67.5507 20 67.3495 20 67.191 20ZM78.9806 20V10.2903H81.9246V20H78.9806ZM80.4617 8.37032C79.9009 8.37032 79.4621 8.24232 79.1451 7.98633C78.8404 7.71814 78.688 7.34023 78.688 6.85261C78.688 6.40157 78.8465 6.03585 79.1634 5.75547C79.4804 5.47509 79.9131 5.3349 80.4617 5.3349C80.9981 5.3349 81.4187 5.469 81.7234 5.73719C82.0404 5.99319 82.1988 6.365 82.1988 6.85261C82.1988 7.30366 82.0404 7.66937 81.7234 7.94975C81.4187 8.23013 80.9981 8.37032 80.4617 8.37032ZM95.4064 15.1909C95.4186 16.7878 94.9614 18.0373 94.0349 18.9394C93.1085 19.8293 91.8346 20.2743 90.2132 20.2743C89.2502 20.2743 88.3603 20.0549 87.5435 19.616C86.739 19.1771 86.099 18.5554 85.6235 17.7509C85.1481 16.9463 84.9104 16.0198 84.9104 14.9714V12.3017C84.9104 11.2656 85.1359 10.3452 85.587 9.54061C86.0502 8.73604 86.678 8.11432 87.4704 7.67547C88.275 7.22442 89.171 6.9989 90.1584 6.9989C91.7797 6.9989 93.0475 7.44385 93.9618 8.33375C94.8883 9.21146 95.3576 10.4549 95.3698 12.064H92.0784C92.0662 11.4423 91.8955 10.9608 91.5664 10.6195C91.2494 10.2781 90.7801 10.1075 90.1584 10.1075C89.5976 10.1075 89.1344 10.2842 88.7687 10.6377C88.403 10.9913 88.2201 11.4911 88.2201 12.1372V15.1177C88.2201 15.7638 88.4091 16.2697 88.787 16.6354C89.1771 16.989 89.6525 17.1657 90.2132 17.1657C91.4932 17.1657 92.1332 16.5074 92.1332 15.1909H95.4064ZM98.3912 12.2286C98.3912 11.2777 98.6289 10.3939 99.1044 9.57718C99.5798 8.76042 100.22 8.11432 101.024 7.6389C101.841 7.16347 102.731 6.92576 103.694 6.92576C104.657 6.92576 105.541 7.16347 106.345 7.6389C107.162 8.11432 107.808 8.76042 108.284 9.57718C108.759 10.3939 108.997 11.2777 108.997 12.2286V15.0446C108.997 15.9954 108.759 16.8792 108.284 17.696C107.808 18.5128 107.162 19.1589 106.345 19.6343C105.541 20.1097 104.657 20.3474 103.694 20.3474C102.731 20.3474 101.841 20.1097 101.024 19.6343C100.22 19.1589 99.5798 18.5128 99.1044 17.696C98.6289 16.8792 98.3912 15.9954 98.3912 15.0446V12.2286ZM101.719 15.0446C101.719 15.6297 101.902 16.1295 102.268 16.544C102.633 16.9585 103.109 17.1657 103.694 17.1657C104.267 17.1657 104.736 16.9585 105.102 16.544C105.468 16.1295 105.651 15.6297 105.651 15.0446V12.2103C105.651 11.613 105.468 11.1132 105.102 10.7109C104.736 10.3086 104.267 10.1075 103.694 10.1075C103.109 10.1075 102.633 10.3086 102.268 10.7109C101.902 11.1132 101.719 11.613 101.719 12.2103V15.0446ZM112.274 19.9817V7.2549H112.987L121.874 15.904V7.2549H122.551V19.9817H112.274ZM135.812 7.27318V7.94975H127.053V12.0275H134.075V15.2457H127.053V20H126.377V7.27318H135.812Z" fill="white"/>
<defs>
<clipPath id="clip0_38_594">
<rect width="26" height="26" fill="white"/>
</clipPath>
</defs>
</svg>
