<svg width="305" height="48" viewBox="0 0 305 48" fill="none" xmlns="http://www.w3.org/2000/svg">
<g clip-path="url(#clip0_82_4358)">
<path fill-rule="evenodd" clip-rule="evenodd" d="M36.592 6.09001C36.9394 6.19753 37.2509 6.39774 37.493 6.66909C37.7351 6.94044 37.8986 7.27266 37.966 7.63001L40.648 21.94C40.908 23.314 40.99 24.674 40.92 26H42C42.5304 26 43.0391 26.2107 43.4142 26.5858C43.7893 26.9609 44 27.4696 44 28C44 28.5304 43.7893 29.0391 43.4142 29.4142C43.0391 29.7893 42.5304 30 42 30H40.212C39.9235 30.9386 39.5548 31.8506 39.11 32.726L41.25 34.438C41.4551 34.6022 41.6259 34.8051 41.7526 35.0353C41.8793 35.2654 41.9594 35.5183 41.9884 35.7794C42.0174 36.0405 41.9946 36.3048 41.9215 36.5571C41.8483 36.8094 41.7262 37.0449 41.562 37.25C41.3978 37.4551 41.1949 37.6259 40.9647 37.7526C40.7346 37.8793 40.4817 37.9594 40.2206 37.9884C39.9595 38.0174 39.6952 37.9946 39.4429 37.9215C39.1906 37.8483 38.9551 37.7262 38.75 37.562L36.878 36.064C35.2916 37.9296 33.3177 39.4271 31.0937 40.4523C28.8696 41.4774 26.4489 42.0056 24 42C21.5507 42.0059 19.1296 41.4779 16.9052 40.4527C14.6809 39.4275 12.7066 37.9299 11.12 36.064L9.25 37.562C9.04488 37.7262 8.80943 37.8483 8.5571 37.9215C8.30477 37.9946 8.0405 38.0174 7.77938 37.9884C7.51826 37.9594 7.26541 37.8793 7.03525 37.7526C6.8051 37.6259 6.60215 37.4551 6.438 37.25C6.27385 37.0449 6.1517 36.8094 6.07855 36.5571C6.00539 36.3048 5.98264 36.0405 6.01162 35.7794C6.04059 35.5183 6.12071 35.2654 6.2474 35.0353C6.37409 34.8051 6.54488 34.6022 6.75 34.438L8.89 32.726C8.44478 31.8511 8.07672 30.9389 7.79 30H6C5.46957 30 4.96086 29.7893 4.58579 29.4142C4.21071 29.0391 4 28.5304 4 28C4 27.4696 4.21071 26.9609 4.58579 26.5858C4.96086 26.2107 5.46957 26 6 26H7.08C7.00818 24.6407 7.09949 23.2776 7.352 21.94L10.034 7.63201C10.101 7.27416 10.2645 6.9414 10.5067 6.6696C10.7489 6.3978 11.0607 6.19727 11.4085 6.08964C11.7563 5.98201 12.1269 5.97136 12.4803 6.05883C12.8337 6.1463 13.1566 6.32858 13.414 6.58601L18.242 11.414C18.617 11.7891 19.1256 11.9999 19.656 12H28.344C28.8744 11.9999 29.383 11.7891 29.758 11.414L34.586 6.58601C34.8435 6.32854 35.1665 6.14627 35.52 6.05887C35.8735 5.97146 36.2442 5.98223 36.592 6.09001ZM25.106 29.21L24 29.764L22.894 29.212C22.6582 29.0849 22.3994 29.0064 22.1327 28.9812C21.866 28.956 21.597 28.9847 21.3417 29.0655C21.0863 29.1462 20.8497 29.2775 20.646 29.4514C20.4423 29.6253 20.2757 29.8384 20.1559 30.0779C20.0361 30.3175 19.9656 30.5787 19.9487 30.846C19.9318 31.1133 19.9687 31.3813 20.0574 31.6341C20.146 31.8868 20.2845 32.1192 20.4646 32.3174C20.6447 32.5157 20.8628 32.6757 21.106 32.788L22.212 33.342C22.7672 33.6194 23.3793 33.7639 24 33.7639C24.6207 33.7639 25.2328 33.6194 25.788 33.342L26.894 32.788C27.1372 32.6757 27.3553 32.5157 27.5354 32.3174C27.7155 32.1192 27.854 31.8868 27.9426 31.6341C28.0313 31.3813 28.0682 31.1133 28.0513 30.846C28.0344 30.5787 27.9639 30.3175 27.8441 30.0779C27.7243 29.8384 27.5577 29.6253 27.354 29.4514C27.1503 29.2775 26.9137 29.1462 26.6583 29.0655C26.403 28.9847 26.134 28.956 25.8673 28.9812C25.6006 29.0064 25.3418 29.0849 25.106 29.212V29.21ZM19 20C18.2044 20 17.4413 20.3161 16.8787 20.8787C16.3161 21.4413 16 22.2044 16 23C16 23.7957 16.3161 24.5587 16.8787 25.1213C17.4413 25.6839 18.2044 26 19 26C19.7956 26 20.5587 25.6839 21.1213 25.1213C21.6839 24.5587 22 23.7957 22 23C22 22.2044 21.6839 21.4413 21.1213 20.8787C20.5587 20.3161 19.7956 20 19 20ZM29 20C28.2044 20 27.4413 20.3161 26.8787 20.8787C26.3161 21.4413 26 22.2044 26 23C26 23.7957 26.3161 24.5587 26.8787 25.1213C27.4413 25.6839 28.2044 26 29 26C29.7956 26 30.5587 25.6839 31.1213 25.1213C31.6839 24.5587 32 23.7957 32 23C32 22.2044 31.6839 21.4413 31.1213 20.8787C30.5587 20.3161 29.7956 20 29 20Z" fill="url(#paint0_linear_82_4358)"/>
</g>
<path d="M58.937 37V13.3693H64.102L72.6765 27.3114L69.0306 27.2777L77.7065 13.3693H82.7027V37H77.0988V29.8433C77.0988 27.7728 77.1438 25.9161 77.2339 24.2732C77.3464 22.6078 77.5264 20.9761 77.774 19.3783L78.4154 21.1337L71.9001 31.2274H69.6045L63.2242 21.2012L63.8656 19.3783C64.1357 20.8861 64.3158 22.4502 64.4058 24.0706C64.5183 25.6685 64.5746 27.5927 64.5746 29.8433V37H58.937ZM88.3379 37V19.0744H93.773V37H88.3379ZM91.0723 15.5298C90.0371 15.5298 89.2269 15.2935 88.6417 14.8209C88.0791 14.3258 87.7978 13.6281 87.7978 12.7279C87.7978 11.8952 88.0904 11.22 88.6755 10.7024C89.2606 10.1848 90.0596 9.92598 91.0723 9.92598C92.0626 9.92598 92.839 10.1735 93.4016 10.6687C93.9868 11.1413 94.2793 11.8277 94.2793 12.7279C94.2793 13.5606 93.9868 14.2358 93.4016 14.7534C92.839 15.271 92.0626 15.5298 91.0723 15.5298ZM106.746 37.3376C105.013 37.3376 103.449 36.9325 102.053 36.1223C100.681 35.3121 99.6004 34.2093 98.8127 32.814C98.025 31.3962 97.6312 29.8095 97.6312 28.0541C97.6312 26.2537 98.025 24.6558 98.8127 23.2604C99.6004 21.8426 100.681 20.7286 102.053 19.9184C103.449 19.1082 105.013 18.7031 106.746 18.7031C108.344 18.7031 109.807 18.9957 111.134 19.5808C112.485 20.1434 113.542 20.9199 114.308 21.9101L111.371 25.4885C111.078 25.1059 110.718 24.7571 110.29 24.442C109.863 24.1269 109.39 23.8793 108.873 23.6993C108.355 23.5193 107.815 23.4292 107.252 23.4292C106.397 23.4292 105.643 23.6318 104.99 24.0369C104.338 24.4195 103.831 24.9596 103.471 25.6573C103.111 26.3549 102.931 27.1426 102.931 28.0203C102.931 28.8755 103.111 29.652 103.471 30.3496C103.854 31.0248 104.372 31.5649 105.024 31.97C105.677 32.3751 106.408 32.5777 107.218 32.5777C107.804 32.5777 108.344 32.4989 108.839 32.3414C109.334 32.1838 109.784 31.9588 110.189 31.6662C110.617 31.3736 111.011 31.0248 111.371 30.6197L114.308 34.1981C113.542 35.1433 112.473 35.9085 111.101 36.4936C109.728 37.0563 108.276 37.3376 106.746 37.3376ZM117.276 37V12.019H122.643V22.7203L121.529 23.1254C121.777 22.3152 122.216 21.5838 122.846 20.9311C123.499 20.256 124.275 19.7158 125.175 19.3107C126.075 18.9056 127.021 18.7031 128.011 18.7031C129.361 18.7031 130.498 18.9844 131.42 19.547C132.343 20.0872 133.03 20.9086 133.48 22.0114C133.952 23.0916 134.189 24.4307 134.189 26.0286V37H128.754V26.4337C128.754 25.7135 128.652 25.1171 128.45 24.6445C128.247 24.1719 127.943 23.8231 127.538 23.598C127.133 23.373 126.627 23.2717 126.019 23.2942C125.546 23.2942 125.108 23.373 124.703 23.5305C124.297 23.6655 123.937 23.8793 123.622 24.1719C123.33 24.442 123.105 24.7571 122.947 25.1171C122.79 25.4772 122.711 25.8823 122.711 26.3324V37H119.976C119.391 37 118.862 37 118.39 37C117.94 37 117.568 37 117.276 37ZM139.041 37V19.0744H144.476V37H139.041ZM141.775 15.5298C140.74 15.5298 139.93 15.2935 139.345 14.8209C138.782 14.3258 138.501 13.6281 138.501 12.7279C138.501 11.8952 138.793 11.22 139.379 10.7024C139.964 10.1848 140.763 9.92598 141.775 9.92598C142.766 9.92598 143.542 10.1735 144.105 10.6687C144.69 11.1413 144.982 11.8277 144.982 12.7279C144.982 13.5606 144.69 14.2358 144.105 14.7534C143.542 15.271 142.766 15.5298 141.775 15.5298ZM169.366 28.1216C169.388 31.0698 168.544 33.3766 166.834 35.042C165.123 36.6849 162.772 37.5064 159.778 37.5064C158 37.5064 156.357 37.1013 154.85 36.2911C153.364 35.4809 152.183 34.3331 151.305 32.8478C150.427 31.3624 149.988 29.652 149.988 27.7165V22.7878C149.988 20.8749 150.405 19.1757 151.237 17.6903C152.093 16.205 153.252 15.0572 154.715 14.247C156.2 13.4143 157.854 12.998 159.677 12.998C162.67 12.998 165.011 13.8194 166.699 15.4623C168.409 17.0827 169.276 19.3783 169.298 22.349H163.222C163.199 21.2012 162.884 20.3122 162.276 19.6821C161.691 19.0519 160.825 18.7369 159.677 18.7369C158.642 18.7369 157.787 19.0632 157.111 19.7158C156.436 20.3685 156.099 21.2912 156.099 22.484V27.9866C156.099 29.1794 156.447 30.1133 157.145 30.7885C157.865 31.4412 158.743 31.7675 159.778 31.7675C162.141 31.7675 163.323 30.5522 163.323 28.1216H169.366ZM174.876 22.6528C174.876 20.8974 175.315 19.2657 176.193 17.7579C177.07 16.25 178.252 15.0572 179.737 14.1795C181.245 13.3018 182.888 12.8629 184.666 12.8629C186.444 12.8629 188.076 13.3018 189.561 14.1795C191.069 15.0572 192.262 16.25 193.139 17.7579C194.017 19.2657 194.456 20.8974 194.456 22.6528V27.8515C194.456 29.607 194.017 31.2386 193.139 32.7465C192.262 34.2543 191.069 35.4471 189.561 36.3248C188.076 37.2025 186.444 37.6414 184.666 37.6414C182.888 37.6414 181.245 37.2025 179.737 36.3248C178.252 35.4471 177.07 34.2543 176.193 32.7465C175.315 31.2386 174.876 29.607 174.876 27.8515V22.6528ZM181.02 27.8515C181.02 28.9318 181.358 29.8545 182.033 30.6197C182.708 31.3849 183.586 31.7675 184.666 31.7675C185.724 31.7675 186.59 31.3849 187.265 30.6197C187.94 29.8545 188.278 28.9318 188.278 27.8515V22.619C188.278 21.5163 187.94 20.5935 187.265 19.8509C186.59 19.1082 185.724 18.7369 184.666 18.7369C183.586 18.7369 182.708 19.1082 182.033 19.8509C181.358 20.5935 181.02 21.5163 181.02 22.619V27.8515ZM200.506 36.9662V13.4706H201.823L218.229 29.4382V13.4706H219.478V36.9662H200.506ZM243.961 13.5043V14.7534H227.791V22.2815H240.754V28.2229H227.791V37H226.542V13.5043H243.961Z" fill="url(#paint1_linear_82_4358)"/>
<defs>
<linearGradient id="paint0_linear_82_4358" x1="4" y1="24.0002" x2="44" y2="24.0002" gradientUnits="userSpaceOnUse">
<stop stop-color="#C000FF"/>
<stop offset="1" stop-color="#00BCB1"/>
</linearGradient>
<linearGradient id="paint1_linear_82_4358" x1="56" y1="24" x2="296" y2="24" gradientUnits="userSpaceOnUse">
<stop stop-color="#C000FF"/>
<stop offset="1" stop-color="#00BCB1"/>
</linearGradient>
<clipPath id="clip0_82_4358">
<rect width="48" height="48" fill="white"/>
</clipPath>
</defs>
</svg>
