<svg width="14" height="12" viewBox="0 0 14 12" fill="none" xmlns="http://www.w3.org/2000/svg">
<path fill-rule="evenodd" clip-rule="evenodd" d="M11.1973 0.0300436C11.313 0.0658855 11.4169 0.132621 11.4976 0.22307C11.5783 0.313519 11.6328 0.424259 11.6553 0.543377L12.5493 5.31338C12.6359 5.77138 12.6633 6.22471 12.6399 6.66671H12.9999C13.1767 6.66671 13.3463 6.73695 13.4713 6.86197C13.5963 6.987 13.6666 7.15657 13.6666 7.33338C13.6666 7.51019 13.5963 7.67976 13.4713 7.80478C13.3463 7.92981 13.1767 8.00004 12.9999 8.00004H12.4039C12.3078 8.31291 12.1849 8.61692 12.0366 8.90871L12.7499 9.47938C12.8183 9.53409 12.8752 9.60174 12.9175 9.67846C12.9597 9.75518 12.9864 9.83946 12.996 9.9265C13.0057 10.0135 12.9981 10.1016 12.9737 10.1857C12.9494 10.2699 12.9086 10.3483 12.8539 10.4167C12.7992 10.4851 12.7316 10.542 12.6548 10.5842C12.5781 10.6265 12.4938 10.6532 12.4068 10.6628C12.3198 10.6725 12.2317 10.6649 12.1476 10.6405C12.0634 10.6161 11.985 10.5754 11.9166 10.5207L11.2926 10.0214C10.7638 10.6433 10.1058 11.1424 9.36447 11.4841C8.62313 11.8258 7.81622 12.0019 6.99992 12C6.1835 12.002 5.37647 11.826 4.635 11.4843C3.89354 11.1426 3.23546 10.6433 2.70659 10.0214L2.08325 10.5207C2.01488 10.5754 1.93639 10.6161 1.85228 10.6405C1.76817 10.6649 1.68009 10.6725 1.59305 10.6628C1.50601 10.6532 1.42172 10.6265 1.345 10.5842C1.26829 10.542 1.20064 10.4851 1.14592 10.4167C1.0912 10.3483 1.05049 10.2699 1.0261 10.1857C1.00171 10.1016 0.994133 10.0135 1.00379 9.9265C1.01345 9.83946 1.04015 9.75518 1.08238 9.67846C1.12462 9.60174 1.18154 9.53409 1.24992 9.47938L1.96325 8.90871C1.81484 8.61706 1.69216 8.31302 1.59659 8.00004H0.999919C0.823108 8.00004 0.653538 7.92981 0.528514 7.80478C0.40349 7.67976 0.333252 7.51019 0.333252 7.33338C0.333252 7.15657 0.40349 6.987 0.528514 6.86197C0.653538 6.73695 0.823108 6.66671 0.999919 6.66671H1.35992C1.33598 6.2136 1.36642 5.75925 1.45059 5.31338L2.34459 0.544044C2.36693 0.424761 2.42141 0.31384 2.50215 0.223241C2.58289 0.132641 2.68683 0.0657987 2.80276 0.0299214C2.9187 -0.00595597 3.04222 -0.00950764 3.16003 0.0196493C3.27783 0.0488063 3.38544 0.109566 3.47125 0.195377L5.08059 1.80471C5.20558 1.92974 5.37512 2.00001 5.55192 2.00004H8.44792C8.62471 2.00001 8.79426 1.92974 8.91925 1.80471L10.5286 0.195377C10.6144 0.109555 10.7221 0.0487988 10.8399 0.0196625C10.9577 -0.00947368 11.0813 -0.00588423 11.1973 0.0300436ZM7.36859 7.73671L6.99992 7.92138L6.63125 7.73738C6.55267 7.695 6.46637 7.66884 6.37748 7.66045C6.2886 7.65206 6.19893 7.6616 6.1138 7.68853C6.02868 7.71545 5.94983 7.75919 5.88193 7.81717C5.81403 7.87514 5.75847 7.94616 5.71854 8.02602C5.67861 8.10588 5.65513 8.19294 5.64949 8.28204C5.64385 8.37115 5.65616 8.46048 5.6857 8.54473C5.71524 8.62898 5.7614 8.70645 5.82145 8.77252C5.88149 8.8386 5.9542 8.89194 6.03525 8.92938L6.40392 9.11404C6.58898 9.20652 6.79303 9.25466 6.99992 9.25466C7.2068 9.25466 7.41085 9.20652 7.59592 9.11404L7.96458 8.92938C8.04564 8.89194 8.11834 8.8386 8.17839 8.77252C8.23843 8.70645 8.2846 8.62898 8.31413 8.54473C8.34367 8.46048 8.35599 8.37115 8.35035 8.28204C8.34471 8.19294 8.32122 8.10588 8.2813 8.02602C8.24137 7.94616 8.18581 7.87514 8.11791 7.81717C8.05001 7.75919 7.97116 7.71545 7.88603 7.68853C7.80091 7.6616 7.71124 7.65206 7.62235 7.66045C7.53346 7.66884 7.44717 7.695 7.36859 7.73738V7.73671ZM5.33325 4.66671C5.06804 4.66671 4.81368 4.77207 4.62614 4.9596C4.43861 5.14714 4.33325 5.40149 4.33325 5.66671C4.33325 5.93193 4.43861 6.18628 4.62614 6.37382C4.81368 6.56135 5.06804 6.66671 5.33325 6.66671C5.59847 6.66671 5.85282 6.56135 6.04036 6.37382C6.22789 6.18628 6.33325 5.93193 6.33325 5.66671C6.33325 5.40149 6.22789 5.14714 6.04036 4.9596C5.85282 4.77207 5.59847 4.66671 5.33325 4.66671ZM8.66658 4.66671C8.40137 4.66671 8.14701 4.77207 7.95948 4.9596C7.77194 5.14714 7.66658 5.40149 7.66658 5.66671C7.66658 5.93193 7.77194 6.18628 7.95948 6.37382C8.14701 6.56135 8.40137 6.66671 8.66658 6.66671C8.9318 6.66671 9.18616 6.56135 9.37369 6.37382C9.56123 6.18628 9.66658 5.93193 9.66658 5.66671C9.66658 5.40149 9.56123 5.14714 9.37369 4.9596C9.18616 4.77207 8.9318 4.66671 8.66658 4.66671Z" fill="url(#paint0_linear_97_130)"/>
<defs>
<linearGradient id="paint0_linear_97_130" x1="0.333252" y1="6.00009" x2="13.6666" y2="6.00009" gradientUnits="userSpaceOnUse">
<stop stop-color="#C000FF"/>
<stop offset="1" stop-color="#00BCB1"/>
</linearGradient>
</defs>
</svg>
