<svg width="542" height="255" viewBox="0 0 542 255" fill="none" xmlns="http://www.w3.org/2000/svg">
<path d="M315.856 203L312.592 194.936L331.888 173.624C333.04 172.408 334.256 171.032 335.536 169.496C336.816 167.96 338.032 166.392 339.184 164.792C340.4 163.128 341.36 161.528 342.064 159.992C342.832 158.456 343.216 157.08 343.216 155.864C343.216 154.584 342.928 153.464 342.352 152.504C341.84 151.544 341.04 150.808 339.952 150.296C338.928 149.72 337.584 149.432 335.92 149.432C334.512 149.432 333.136 149.816 331.792 150.584C330.448 151.352 329.168 152.504 327.952 154.04C326.8 155.512 325.712 157.4 324.688 159.704L312.592 152.984C313.936 149.272 315.824 146.008 318.256 143.192C320.752 140.376 323.664 138.168 326.992 136.568C330.32 134.968 333.872 134.2 337.648 134.264C341.616 134.264 345.168 135.096 348.304 136.76C351.504 138.424 354.032 140.728 355.888 143.672C357.808 146.552 358.768 149.944 358.768 153.848C358.768 155.576 358.512 157.368 358 159.224C357.552 161.08 356.784 163.064 355.696 165.176C354.672 167.224 353.296 169.432 351.568 171.8C349.84 174.168 347.728 176.728 345.232 179.48L330.352 195.704L328.336 188.504H361.744V203H315.856ZM394.85 203.96C388.834 203.96 383.714 202.584 379.49 199.832C375.266 197.08 372.034 193.144 369.794 188.024C367.554 182.84 366.434 176.632 366.434 169.4C366.434 162.168 367.554 155.992 369.794 150.872C372.034 145.688 375.266 141.72 379.49 138.968C383.714 136.216 388.834 134.84 394.85 134.84C400.866 134.84 405.986 136.216 410.21 138.968C414.434 141.72 417.666 145.688 419.906 150.872C422.146 155.992 423.266 162.168 423.266 169.4C423.266 176.632 422.146 182.84 419.906 188.024C417.666 193.144 414.434 197.08 410.21 199.832C405.986 202.584 400.866 203.96 394.85 203.96ZM394.85 190.04C398.946 190.04 402.082 188.248 404.258 184.664C406.498 181.08 407.618 175.992 407.618 169.4C407.618 162.552 406.498 157.304 404.258 153.656C402.082 150.008 398.946 148.184 394.85 148.184C390.754 148.184 387.586 150.008 385.346 153.656C383.106 157.304 381.986 162.552 381.986 169.4C381.986 175.992 383.106 181.08 385.346 184.664C387.586 188.248 390.754 190.04 394.85 190.04ZM432.95 203L429.686 194.936L448.982 173.624C450.134 172.408 451.35 171.032 452.63 169.496C453.91 167.96 455.126 166.392 456.278 164.792C457.494 163.128 458.454 161.528 459.158 159.992C459.926 158.456 460.31 157.08 460.31 155.864C460.31 154.584 460.022 153.464 459.446 152.504C458.934 151.544 458.134 150.808 457.046 150.296C456.022 149.72 454.678 149.432 453.014 149.432C451.606 149.432 450.23 149.816 448.886 150.584C447.542 151.352 446.262 152.504 445.046 154.04C443.894 155.512 442.806 157.4 441.782 159.704L429.686 152.984C431.03 149.272 432.918 146.008 435.35 143.192C437.846 140.376 440.758 138.168 444.086 136.568C447.414 134.968 450.966 134.2 454.742 134.264C458.71 134.264 462.262 135.096 465.398 136.76C468.598 138.424 471.126 140.728 472.982 143.672C474.902 146.552 475.862 149.944 475.862 153.848C475.862 155.576 475.606 157.368 475.094 159.224C474.646 161.08 473.878 163.064 472.79 165.176C471.766 167.224 470.39 169.432 468.662 171.8C466.934 174.168 464.822 176.728 462.326 179.48L447.446 195.704L445.43 188.504H478.838V203H432.95ZM511.125 203V148.952L519.669 149.24L495.861 178.328L493.653 175.448H537.909V188.984H486.261L479.637 176.312L513.621 135.224H526.965V203H511.125Z" fill="white"/>
<path d="M534.536 22.864V26.416H488.552V47.824H525.416V64.72H488.552V89.68H485V22.864H534.536Z" fill="white"/>
<path d="M417 89.5841V22.7681H420.744L467.4 68.1761V22.7681H470.952V89.5841H417Z" fill="white"/>
<path d="M320.248 64.4321C320.312 72.8161 317.912 79.3761 313.048 84.1121C308.184 88.7841 301.496 91.1201 292.984 91.1201C287.928 91.1201 283.256 89.9681 278.968 87.6641C274.744 85.3601 271.384 82.0961 268.888 77.8721C266.392 73.6481 265.144 68.7841 265.144 63.2801V49.2641C265.144 43.8241 266.328 38.9921 268.696 34.7681C271.128 30.5441 274.424 27.2801 278.584 24.9761C282.808 22.6081 287.512 21.4241 292.696 21.4241C301.208 21.4241 307.864 23.7601 312.664 28.4321C317.528 33.0401 319.992 39.5681 320.056 48.0161H302.776C302.712 44.7521 301.816 42.2241 300.088 40.4321C298.424 38.6401 295.96 37.7441 292.696 37.7441C289.752 37.7441 287.32 38.6721 285.4 40.5281C283.48 42.3841 282.52 45.0081 282.52 48.4001V64.0481C282.52 67.4401 283.512 70.0961 285.496 72.0161C287.544 73.8721 290.04 74.8001 292.984 74.8001C299.704 74.8001 303.064 71.3441 303.064 64.4321H320.248Z" fill="white"/>
<g clip-path="url(#clip0_38_1076)">
<path fill-rule="evenodd" clip-rule="evenodd" d="M390.274 25.1552C390.874 25.3411 391.413 25.6873 391.832 26.1565C392.25 26.6257 392.533 27.2002 392.65 27.8181L397.287 52.5625C397.737 54.9384 397.879 57.2901 397.758 59.5829H399.625C400.542 59.5829 401.422 59.9473 402.07 60.5958C402.719 61.2444 403.083 62.1241 403.083 63.0413C403.083 63.9585 402.719 64.8381 402.07 65.4867C401.422 66.1352 400.542 66.4996 399.625 66.4996H396.533C396.035 68.1226 395.397 69.6996 394.628 71.2133L398.328 74.1736C398.683 74.4575 398.978 74.8084 399.197 75.2064C399.416 75.6044 399.555 76.0416 399.605 76.4931C399.655 76.9446 399.616 77.4016 399.489 77.8379C399.363 78.2742 399.152 78.6814 398.868 79.036C398.584 79.3907 398.233 79.6861 397.835 79.9051C397.437 80.1242 397 80.2627 396.548 80.3128C396.097 80.3629 395.64 80.3236 395.203 80.1971C394.767 80.0706 394.36 79.8594 394.005 79.5756L390.768 76.9853C388.025 80.2112 384.612 82.8007 380.766 84.5733C376.92 86.3459 372.735 87.2592 368.5 87.2496C364.265 87.2597 360.078 86.3467 356.232 84.574C352.386 82.8014 348.972 80.2117 346.228 76.9853L342.995 79.5756C342.64 79.8594 342.233 80.0706 341.797 80.1971C341.36 80.3236 340.903 80.3629 340.452 80.3128C340 80.2627 339.563 80.1242 339.165 79.9051C338.767 79.6861 338.416 79.3907 338.132 79.036C337.849 78.6814 337.637 78.2742 337.511 77.8379C337.384 77.4016 337.345 76.9446 337.395 76.4931C337.445 76.0416 337.584 75.6044 337.803 75.2064C338.022 74.8084 338.317 74.4575 338.672 74.1736L342.372 71.2133C341.603 69.7004 340.966 68.1231 340.47 66.4996H337.375C336.458 66.4996 335.578 66.1352 334.93 65.4867C334.281 64.8381 333.917 63.9585 333.917 63.0413C333.917 62.1241 334.281 61.2444 334.93 60.5958C335.578 59.9473 336.458 59.5829 337.375 59.5829H339.243C339.118 57.2324 339.276 54.8755 339.713 52.5625L344.351 27.8216C344.466 27.2028 344.749 26.6274 345.168 26.1574C345.587 25.6874 346.126 25.3407 346.727 25.1546C347.329 24.9685 347.97 24.95 348.581 25.1013C349.192 25.2525 349.75 25.5677 350.195 26.0129L358.544 34.3613C359.192 35.0099 360.071 35.3744 360.989 35.3746H376.012C376.929 35.3744 377.808 35.0099 378.457 34.3613L386.805 26.0129C387.25 25.5677 387.809 25.2525 388.42 25.1014C389.031 24.9502 389.672 24.9688 390.274 25.1552ZM370.413 65.1335L368.5 66.0915L366.588 65.137C366.18 64.9172 365.732 64.7815 365.271 64.7379C364.81 64.6944 364.345 64.7439 363.903 64.8836C363.462 65.0232 363.053 65.2502 362.701 65.5509C362.348 65.8517 362.06 66.2201 361.853 66.6343C361.646 67.0486 361.524 67.5002 361.495 67.9625C361.465 68.4247 361.529 68.8881 361.683 69.3252C361.836 69.7622 362.075 70.1641 362.387 70.5068C362.698 70.8496 363.075 71.1263 363.496 71.3205L365.408 72.2785C366.368 72.7582 367.427 73.0079 368.5 73.0079C369.573 73.0079 370.632 72.7582 371.592 72.2785L373.504 71.3205C373.925 71.1263 374.302 70.8496 374.613 70.5068C374.925 70.1641 375.164 69.7622 375.318 69.3252C375.471 68.8881 375.535 68.4247 375.505 67.9625C375.476 67.5002 375.354 67.0486 375.147 66.6343C374.94 66.2201 374.652 65.8517 374.3 65.5509C373.947 65.2502 373.538 65.0232 373.097 64.8836C372.655 64.7439 372.19 64.6944 371.729 64.7379C371.268 64.7815 370.82 64.9172 370.413 65.137V65.1335ZM359.854 49.2079C358.478 49.2079 357.159 49.7545 356.186 50.7273C355.213 51.7002 354.667 53.0196 354.667 54.3954C354.667 55.7712 355.213 57.0907 356.186 58.0635C357.159 59.0364 358.478 59.5829 359.854 59.5829C361.23 59.5829 362.55 59.0364 363.522 58.0635C364.495 57.0907 365.042 55.7712 365.042 54.3954C365.042 53.0196 364.495 51.7002 363.522 50.7273C362.55 49.7545 361.23 49.2079 359.854 49.2079ZM377.146 49.2079C375.77 49.2079 374.451 49.7545 373.478 50.7273C372.505 51.7002 371.958 53.0196 371.958 54.3954C371.958 55.7712 372.505 57.0907 373.478 58.0635C374.451 59.0364 375.77 59.5829 377.146 59.5829C378.522 59.5829 379.841 59.0364 380.814 58.0635C381.787 57.0907 382.333 55.7712 382.333 54.3954C382.333 53.0196 381.787 51.7002 380.814 50.7273C379.841 49.7545 378.522 49.2079 377.146 49.2079Z" fill="white"/>
</g>
<path d="M8.352 91V23.8H23.04L47.424 63.448L37.056 63.352L61.728 23.8H75.936V91H60V70.648C60 64.76 60.128 59.48 60.384 54.808C60.704 50.072 61.216 45.432 61.92 40.888L63.744 45.88L45.216 74.584H38.688L20.544 46.072L22.368 40.888C23.136 45.176 23.648 49.624 23.904 54.232C24.224 58.776 24.384 64.248 24.384 70.648V91H8.352ZM91.9613 91V40.024H107.417V91H91.9613ZM99.7373 29.944C96.7933 29.944 94.4893 29.272 92.8253 27.928C91.2253 26.52 90.4253 24.536 90.4253 21.976C90.4253 19.608 91.2573 17.688 92.9213 16.216C94.5853 14.744 96.8573 14.008 99.7373 14.008C102.553 14.008 104.761 14.712 106.361 16.12C108.025 17.464 108.857 19.416 108.857 21.976C108.857 24.344 108.025 26.264 106.361 27.736C104.761 29.208 102.553 29.944 99.7373 29.944ZM144.309 91.96C139.381 91.96 134.933 90.808 130.965 88.504C127.061 86.2 123.989 83.064 121.749 79.096C119.509 75.064 118.389 70.552 118.389 65.56C118.389 60.44 119.509 55.896 121.749 51.928C123.989 47.896 127.061 44.728 130.965 42.424C134.933 40.12 139.381 38.968 144.309 38.968C148.853 38.968 153.013 39.8 156.789 41.464C160.629 43.064 163.637 45.272 165.813 48.088L157.461 58.264C156.629 57.176 155.605 56.184 154.389 55.288C153.173 54.392 151.829 53.688 150.357 53.176C148.885 52.664 147.349 52.408 145.749 52.408C143.317 52.408 141.173 52.984 139.317 54.136C137.461 55.224 136.021 56.76 134.997 58.744C133.973 60.728 133.461 62.968 133.461 65.464C133.461 67.896 133.973 70.104 134.997 72.088C136.085 74.008 137.557 75.544 139.413 76.696C141.269 77.848 143.349 78.424 145.653 78.424C147.317 78.424 148.853 78.2 150.261 77.752C151.669 77.304 152.949 76.664 154.101 75.832C155.317 75 156.437 74.008 157.461 72.856L165.813 83.032C163.637 85.72 160.597 87.896 156.693 89.56C152.789 91.16 148.661 91.96 144.309 91.96ZM174.254 91V19.96H189.518V50.392L186.35 51.544C187.054 49.24 188.302 47.16 190.094 45.304C191.95 43.384 194.158 41.848 196.718 40.696C199.278 39.544 201.966 38.968 204.782 38.968C208.622 38.968 211.854 39.768 214.478 41.368C217.102 42.904 219.054 45.24 220.333 48.376C221.678 51.448 222.35 55.256 222.35 59.8V91H206.894V60.952C206.894 58.904 206.606 57.208 206.03 55.864C205.454 54.52 204.59 53.528 203.438 52.888C202.286 52.248 200.846 51.96 199.118 52.024C197.774 52.024 196.526 52.248 195.374 52.696C194.222 53.08 193.198 53.688 192.302 54.52C191.47 55.288 190.83 56.184 190.382 57.208C189.934 58.232 189.71 59.384 189.71 60.664V91H181.934C180.27 91 178.766 91 177.422 91C176.142 91 175.086 91 174.254 91ZM236.149 91V40.024H251.605V91H236.149ZM243.925 29.944C240.981 29.944 238.677 29.272 237.013 27.928C235.413 26.52 234.613 24.536 234.613 21.976C234.613 19.608 235.445 17.688 237.109 16.216C238.773 14.744 241.045 14.008 243.925 14.008C246.741 14.008 248.949 14.712 250.549 16.12C252.213 17.464 253.045 19.416 253.045 21.976C253.045 24.344 252.213 26.264 250.549 27.736C248.949 29.208 246.741 29.944 243.925 29.944Z" fill="white"/>
<g filter="url(#filter0_bdf_38_1076)">
<path d="M353 202.85C353 221.627 337.778 236.85 319 236.85C300.222 236.85 285 221.627 285 202.85C285 184.072 300.222 168.85 319 168.85C337.778 168.85 353 184.072 353 202.85Z" fill="#04B8B2" fill-opacity="0.5" shape-rendering="crispEdges"/>
</g>
<defs>
<filter id="filter0_bdf_38_1076" x="263" y="157.85" width="101" height="97" filterUnits="userSpaceOnUse" color-interpolation-filters="sRGB">
<feFlood flood-opacity="0" result="BackgroundImageFix"/>
<feGaussianBlur in="BackgroundImageFix" stdDeviation="1"/>
<feComposite in2="SourceAlpha" operator="in" result="effect1_backgroundBlur_38_1076"/>
<feColorMatrix in="SourceAlpha" type="matrix" values="0 0 0 0 0 0 0 0 0 0 0 0 0 0 0 0 0 0 127 0" result="hardAlpha"/>
<feOffset dx="-18" dy="14"/>
<feGaussianBlur stdDeviation="2"/>
<feComposite in2="hardAlpha" operator="out"/>
<feColorMatrix type="matrix" values="0 0 0 0 0.331528 0 0 0 0 0.83545 0 0 0 0 0.904167 0 0 0 0.08 0"/>
<feBlend mode="normal" in2="effect1_backgroundBlur_38_1076" result="effect2_dropShadow_38_1076"/>
<feBlend mode="normal" in="SourceGraphic" in2="effect2_dropShadow_38_1076" result="shape"/>
<feGaussianBlur stdDeviation="5.5" result="effect3_foregroundBlur_38_1076"/>
</filter>
<clipPath id="clip0_38_1076">
<rect width="83" height="83" fill="white" transform="translate(327 16)"/>
</clipPath>
</defs>
</svg>
