<svg width="519" height="468" viewBox="0 0 519 468" fill="none" xmlns="http://www.w3.org/2000/svg">
<g opacity="0.3" clip-path="url(#clip0_539_386)">
<path fill-rule="evenodd" clip-rule="evenodd" d="M68.1711 84.9208C68.1176 84.4864 66.7235 81.2277 66.4472 80.7079L66.4456 80.7081C66.463 80.5389 66.4163 80.3055 66.3541 79.9941C66.187 79.1582 65.9076 77.7604 66.4539 75.5345C67.7809 70.1318 72.9402 68.3104 77.7822 69.0587C78.4657 69.1645 78.9073 69.3023 79.3449 69.4388C80.1472 69.6891 80.9361 69.9352 83.1774 69.9722C84.3675 69.9918 85.3547 69.8043 86.2763 69.6292C87.8447 69.3312 89.2231 69.0693 91.0887 69.9262C97.9096 73.059 97.1498 82.0488 87.044 84.2241L87.0174 84.2297C86.1895 84.4072 85.1023 84.6403 84.4122 85.5151C83.8469 86.2316 83.7694 87.3987 83.6772 88.7868C83.5264 91.0576 83.3364 93.9197 80.9071 96.3678C76.5966 100.712 68.9517 97.6166 69.2611 90.1451C69.3025 89.1616 68.9105 86.0541 68.1711 84.9208ZM81.912 55.6192C83.5132 55.8844 85.2542 56.8765 86.4211 58.3169L86.4203 58.3178C88.4216 60.7873 89.5362 64.3359 86.5191 66.9831C84.3839 68.8555 80.1005 69.3376 78.055 66.4311C75.1179 62.2587 77.4759 54.883 81.912 55.6192ZM64.6564 83.2485L65.9515 84.1133L65.9524 84.114C68.3814 86.2238 67.7215 90.6101 65.8383 92.5103C61.0252 97.3669 50.0282 89.2905 56.3207 84.3951C58.6266 82.6005 62.3457 81.883 64.6564 83.2485ZM64.131 76.4012C60.6657 85.4059 48.7629 77.1012 51.4257 71.2232L51.4241 71.2234C52.9425 67.8741 57.733 67.8568 60.1167 68.5609C64.3618 69.816 65.3309 73.2826 64.131 76.4012ZM63.9406 66.7372C61.7837 64.2733 61.2263 60.4006 62.4263 57.7732C65.5046 51.0344 78.3542 59.2099 73.0472 66.0653C71.7266 67.7707 70.1209 68.2328 68.6525 68.4869C67.2132 68.7356 65.4065 68.4122 63.9406 66.7372ZM44.5799 143.585C44.8562 144.105 46.2503 147.364 46.3039 147.798C47.0432 148.932 47.4353 152.039 47.3946 153.022C47.0852 160.493 54.7301 163.589 59.0397 159.244C61.4689 156.796 61.659 153.933 61.8098 151.663C61.9019 150.275 61.9794 149.107 62.5447 148.391C63.233 147.519 64.317 147.285 65.1432 147.107L65.1766 147.1C75.2817 144.926 76.0421 135.935 69.2221 132.803C67.3565 131.946 65.9782 132.208 64.4097 132.506C63.4882 132.681 62.501 132.868 61.3108 132.849C59.0695 132.812 58.2806 132.566 57.4783 132.315C57.0407 132.179 56.5991 132.041 55.9156 131.935C51.0736 131.187 45.9143 133.008 44.5873 138.411C44.041 140.637 44.3204 142.035 44.4875 142.871C44.5498 143.182 44.5964 143.415 44.579 143.585L44.5799 143.585ZM64.5538 121.194C63.3869 119.754 61.646 118.762 60.0455 118.496C55.6094 117.76 53.2514 125.135 56.1885 129.308C58.2339 132.214 62.5173 131.732 64.6526 129.86C67.6697 127.212 66.555 123.664 64.5538 121.194ZM44.0843 146.991L42.7891 146.126C40.4784 144.76 36.7594 145.478 34.4534 147.272C28.161 152.168 39.1579 160.244 43.9711 155.388C45.8542 153.487 46.5141 149.101 44.0851 146.991L44.0843 146.991ZM29.5585 134.101C26.8956 139.979 38.7984 148.283 42.2637 139.279C43.4636 136.16 42.4945 132.693 38.2494 131.438C35.8657 130.734 31.0753 130.752 29.5569 134.101L29.5585 134.101ZM40.559 120.651C39.3583 123.279 39.9164 127.151 42.0733 129.615C43.5392 131.29 45.346 131.613 46.7853 131.364C48.2537 131.11 49.8593 130.648 51.1799 128.943C56.4869 122.087 43.6373 113.912 40.559 120.651ZM126.524 140.121C126.471 139.685 125.077 136.428 124.8 135.908L124.799 135.909C124.817 135.74 124.77 135.506 124.708 135.194C124.541 134.358 124.262 132.96 124.808 130.735C126.135 125.333 131.293 123.512 136.135 124.26C136.819 124.366 137.261 124.504 137.7 124.64L137.7 124.64C138.502 124.89 139.291 125.136 141.531 125.173C142.721 125.193 143.708 125.005 144.63 124.83C146.198 124.532 147.577 124.27 149.442 125.127C156.262 128.259 155.503 137.249 145.397 139.424L145.366 139.431C144.539 139.609 143.453 139.843 142.766 140.716C142.201 141.432 142.123 142.599 142.031 143.987C141.88 146.258 141.689 149.121 139.261 151.569C134.949 155.912 127.305 152.817 127.615 145.346C127.655 144.362 127.264 141.255 126.524 140.121ZM140.266 110.818C141.866 111.084 143.607 112.075 144.775 113.516L144.776 113.517C146.775 115.986 147.891 119.536 144.874 122.183C142.737 124.055 138.454 124.537 136.409 121.631C133.472 117.458 135.83 110.082 140.266 110.818ZM123.658 138.882C123.874 139.026 124.09 139.17 124.305 139.314C126.734 141.424 126.073 145.809 124.191 147.71C119.378 152.567 108.382 144.49 114.674 139.594C116.98 137.801 120.699 137.084 123.01 138.449C123.226 138.593 123.442 138.738 123.658 138.882ZM122.485 131.6C119.019 140.605 107.116 132.301 109.779 126.423L109.779 126.422C111.297 123.074 116.088 123.056 118.472 123.76C122.716 125.014 123.684 128.482 122.485 131.6ZM122.294 121.936C120.137 119.472 119.58 115.601 120.78 112.972L120.781 112.972C123.858 106.234 136.708 114.408 131.401 121.264C130.079 122.969 128.475 123.432 127.005 123.685C125.565 123.935 123.758 123.612 122.294 121.936ZM102.934 198.784C103.211 199.304 104.605 202.562 104.657 202.997C105.397 204.131 105.788 207.237 105.748 208.222C105.438 215.693 113.084 218.788 117.393 214.444C119.823 211.996 120.013 209.133 120.164 206.862C120.257 205.474 120.334 204.308 120.898 203.592C121.587 202.719 122.671 202.486 123.497 202.308L123.53 202.301C133.635 200.125 134.397 191.135 127.577 188.003C125.71 187.145 124.331 187.407 122.762 187.706C121.841 187.881 120.854 188.069 119.665 188.049C117.425 188.012 116.636 187.766 115.834 187.516C115.396 187.379 114.954 187.242 114.269 187.136C109.427 186.388 104.268 188.207 102.942 193.611C102.395 195.839 102.675 197.237 102.842 198.072C102.905 198.382 102.951 198.615 102.934 198.784ZM122.908 176.393C121.74 174.951 119.999 173.96 118.399 173.695C113.963 172.957 111.605 180.334 114.542 184.507C116.587 187.413 120.871 186.931 123.006 185.059C126.025 182.411 124.909 178.863 122.907 176.393L122.908 176.393ZM101.248 201.393L101.247 201.392L101.144 201.323C98.8336 199.959 95.1146 200.677 92.8077 202.471C86.516 207.365 97.5122 215.443 102.324 210.586C104.207 208.686 104.868 204.3 102.439 202.189L102.439 202.188C102.042 201.924 101.645 201.658 101.249 201.393L101.248 201.393L101.248 201.393ZM87.9135 189.298C85.2506 195.176 97.1534 203.481 100.619 194.475C101.819 191.357 100.85 187.89 96.606 186.636C94.2222 185.93 89.4319 185.949 87.9142 189.297L87.9135 189.298ZM98.9141 175.848C97.714 178.475 98.2721 182.347 100.427 184.811C101.893 186.486 103.7 186.81 105.139 186.561C106.607 186.308 108.213 185.846 109.534 184.139C114.842 177.285 101.992 169.109 98.9141 175.848ZM202.654 167.78C202.601 167.345 201.207 164.087 200.93 163.567L200.929 163.568C200.946 163.399 200.9 163.166 200.837 162.856C200.67 162.02 200.39 160.622 200.937 158.395C202.263 152.992 207.422 151.172 212.264 151.92C212.949 152.026 213.39 152.163 213.829 152.3C214.631 152.55 215.42 152.796 217.66 152.833C218.85 152.852 219.836 152.665 220.758 152.489C222.326 152.191 223.705 151.929 225.57 152.786C232.391 155.919 231.63 164.909 221.526 167.084L221.498 167.09C220.672 167.267 219.584 167.501 218.895 168.374C218.33 169.09 218.253 170.257 218.16 171.645C218.009 173.916 217.819 176.779 215.39 179.227C211.079 183.571 203.434 180.477 203.745 173.005C203.785 172.021 203.393 168.913 202.654 167.78ZM216.395 138.477C217.995 138.743 219.737 139.734 220.903 141.174L220.904 141.176C222.905 143.645 224.02 147.195 221.002 149.841C218.867 151.714 214.584 152.196 212.538 149.289C209.601 145.117 211.958 137.74 216.395 138.477ZM199.235 166.17C199.449 166.314 199.663 166.457 199.878 166.6C200.064 166.724 200.249 166.848 200.435 166.971L200.434 166.972C202.863 169.084 202.203 173.468 200.32 175.369C195.508 180.226 184.511 172.149 190.804 167.253C193.111 165.459 196.83 164.742 199.14 166.107L199.234 166.17L199.235 166.17ZM198.615 159.259C195.15 168.263 183.246 159.959 185.909 154.081L185.91 154.081C187.427 150.732 192.218 150.713 194.602 151.418C198.846 152.673 199.815 156.14 198.615 159.259ZM198.424 149.594C196.268 147.131 195.71 143.259 196.91 140.631L196.911 140.63C199.989 133.892 212.839 142.066 207.53 148.922C206.21 150.627 204.604 151.089 203.136 151.344C201.696 151.592 199.89 151.269 198.424 149.594ZM179.062 226.443C179.339 226.963 180.733 230.221 180.786 230.657C181.525 231.79 181.916 234.897 181.876 235.881C181.566 243.352 189.211 246.446 193.522 242.104C195.951 239.655 196.142 236.792 196.292 234.521C196.385 233.134 196.462 231.967 197.027 231.251C197.714 230.38 198.795 230.146 199.62 229.967L199.658 229.959C209.763 227.784 210.523 218.794 203.703 215.662C201.838 214.805 200.459 215.067 198.891 215.365C197.969 215.54 196.982 215.728 195.792 215.708C193.551 215.671 192.762 215.425 191.959 215.175C191.522 215.038 191.08 214.9 190.397 214.794C185.555 214.047 180.396 215.867 179.07 221.27C178.522 223.498 178.802 224.896 178.97 225.732L178.97 225.732L178.97 225.732L178.97 225.733L178.97 225.733C179.032 226.043 179.079 226.275 179.062 226.444L179.062 226.443ZM199.036 204.052C197.869 202.611 196.128 201.62 194.527 201.354C190.092 200.617 187.733 207.994 190.671 212.167C192.716 215.073 197 214.591 199.135 212.719C202.154 210.071 201.038 206.523 199.036 204.053L199.036 204.052ZM178.568 229.848C178.171 229.584 177.774 229.318 177.377 229.053L177.273 228.983C174.962 227.619 171.243 228.336 168.937 230.131C162.646 235.026 173.641 243.102 178.454 238.246C180.337 236.346 180.997 231.959 178.569 229.849L178.568 229.848ZM164.042 216.957C161.379 222.835 173.282 231.14 176.748 222.136C177.948 219.017 176.979 215.55 172.734 214.295C170.351 213.59 165.56 213.608 164.042 216.956L164.042 216.957ZM175.042 203.507C173.843 206.135 174.4 210.006 176.556 212.471C178.023 214.145 179.829 214.47 181.269 214.22C182.737 213.967 184.342 213.505 185.664 211.798C190.971 204.943 178.121 196.768 175.043 203.506L175.042 203.507ZM281.185 188.429C281.133 187.994 279.739 184.737 279.462 184.216L279.461 184.217C279.478 184.048 279.432 183.815 279.369 183.504C279.202 182.668 278.922 181.27 279.468 179.044C280.795 173.641 285.954 171.821 290.796 172.569C291.48 172.675 291.922 172.813 292.36 172.949C293.163 173.199 293.952 173.445 296.192 173.482C297.382 173.502 298.369 173.314 299.291 173.139C300.859 172.841 302.238 172.579 304.103 173.436C310.923 176.568 310.163 185.558 300.058 187.733L300.03 187.739C299.203 187.916 298.116 188.15 297.427 189.024C296.862 189.74 296.785 190.907 296.692 192.295C296.541 194.565 296.351 197.428 293.922 199.877C289.611 204.22 281.967 201.125 282.276 193.654C282.317 192.67 281.926 189.563 281.185 188.429ZM294.927 159.126C296.528 159.393 298.268 160.383 299.436 161.824L299.437 161.825C301.437 164.295 302.552 167.844 299.535 170.491C297.399 172.363 293.115 172.845 291.071 169.939C288.133 165.766 290.49 158.389 294.927 159.126ZM277.672 186.757C278.103 187.046 278.536 187.334 278.967 187.622L278.967 187.624C281.396 189.734 280.736 194.12 278.853 196.02C274.04 200.877 263.043 192.799 269.336 187.904C271.642 186.109 275.361 185.392 277.672 186.757ZM277.146 179.908C273.681 188.913 261.777 180.609 264.44 174.731L264.441 174.73C265.958 171.382 270.75 171.364 273.133 172.068C277.378 173.322 278.346 176.79 277.146 179.908ZM276.956 170.244C274.799 167.78 274.241 163.909 275.441 161.28L275.442 161.28C278.52 154.542 291.37 162.716 286.062 169.573C284.741 171.277 283.136 171.74 281.667 171.993C280.227 172.242 278.42 171.92 276.956 170.244ZM257.596 247.093C257.873 247.614 259.266 250.872 259.319 251.307C260.058 252.44 260.45 255.547 260.41 256.532C260.1 264.003 267.745 267.097 272.055 262.754C274.485 260.305 274.675 257.443 274.826 255.171C274.918 253.784 274.996 252.618 275.56 251.901C276.249 251.028 277.335 250.795 278.161 250.618L278.191 250.611C288.296 248.435 289.057 239.445 282.237 236.313C280.371 235.456 278.992 235.718 277.423 236.016C276.502 236.192 275.515 236.379 274.325 236.36C272.086 236.323 271.297 236.077 270.495 235.827C270.057 235.69 269.615 235.552 268.93 235.447C264.088 234.698 258.929 236.518 257.603 241.921C257.055 244.149 257.335 245.548 257.503 246.383C257.565 246.694 257.612 246.926 257.594 247.095L257.596 247.093ZM277.57 224.702C276.402 223.261 274.66 222.27 273.061 222.005C268.624 221.267 266.267 228.644 269.204 232.817C271.249 235.723 275.533 235.241 277.668 233.369C280.686 230.721 279.57 227.173 277.569 224.703L277.57 224.702ZM255.905 249.701L255.904 249.7L255.805 249.634C253.494 248.27 249.775 248.988 247.469 250.78C241.178 255.675 252.174 263.752 256.985 258.896C258.869 256.996 259.529 252.61 257.1 250.499C256.81 250.306 256.521 250.112 256.231 249.919L255.905 249.701ZM242.574 237.609C239.911 243.487 251.814 251.791 255.28 242.786C256.48 239.668 255.511 236.201 251.267 234.946C248.883 234.24 244.093 234.259 242.575 237.608L242.574 237.609ZM253.575 224.159C252.375 226.786 252.933 230.658 255.088 233.122C256.554 234.797 258.361 235.12 259.801 234.871C261.269 234.617 262.874 234.155 264.196 232.449C269.503 225.594 256.653 217.418 253.575 224.157L253.575 224.159ZM346.629 234.836C346.577 234.402 345.182 231.144 344.905 230.623C344.923 230.455 344.876 230.222 344.814 229.91C344.646 229.075 344.366 227.677 344.913 225.451C346.24 220.048 351.398 218.227 356.24 218.976C356.925 219.081 357.367 219.219 357.805 219.356C358.607 219.606 359.397 219.852 361.636 219.888C362.826 219.908 363.814 219.72 364.735 219.545C366.304 219.247 367.682 218.985 369.548 219.842C376.368 222.974 375.608 231.964 365.502 234.14L365.471 234.146C364.645 234.324 363.558 234.558 362.871 235.431C362.306 236.147 362.229 237.314 362.136 238.702C361.985 240.973 361.795 243.835 359.366 246.284C355.055 250.628 347.411 247.533 347.72 240.061C347.761 239.077 347.369 235.97 346.629 234.836ZM360.371 205.534C361.971 205.8 363.712 206.79 364.88 208.231L364.88 208.233C366.88 210.702 367.996 214.251 364.979 216.898C362.843 218.77 358.559 219.252 356.515 216.346C353.577 212.173 355.935 204.798 360.371 205.534ZM343.222 233.235L343.24 233.247C343.63 233.508 344.021 233.769 344.411 234.029L344.41 234.029C346.839 236.139 346.18 240.526 344.296 242.426C339.483 247.282 328.487 239.205 334.78 234.31C337.086 232.516 340.805 231.798 343.116 233.164L343.222 233.235ZM342.59 226.315C339.125 235.32 327.222 227.016 329.885 221.138L329.885 221.137C331.403 217.789 336.194 217.77 338.578 218.474C342.822 219.729 343.79 223.196 342.59 226.315ZM342.4 216.651C340.243 214.187 339.685 210.315 340.886 207.687C343.963 200.949 356.814 209.124 351.506 215.98C350.185 217.685 348.58 218.147 347.11 218.401C345.672 218.649 343.864 218.326 342.4 216.651ZM323.04 293.501C323.317 294.021 324.71 297.279 324.763 297.714C325.502 298.848 325.894 301.955 325.854 302.939C325.543 310.41 333.189 313.505 337.499 309.161C339.929 306.713 340.119 303.85 340.27 301.579C340.362 300.191 340.439 299.025 341.004 298.309C341.693 297.435 342.779 297.202 343.605 297.025L343.635 297.019C353.74 294.843 354.501 285.853 347.681 282.721C345.815 281.863 344.436 282.125 342.867 282.424C341.946 282.599 340.959 282.787 339.769 282.767C337.53 282.73 336.741 282.484 335.939 282.234C335.501 282.097 335.059 281.96 334.374 281.854C329.532 281.106 324.373 282.925 323.046 288.329C322.499 290.557 322.779 291.955 322.947 292.791C323.009 293.101 323.055 293.334 323.038 293.502L323.04 293.501ZM343.013 271.11C341.846 269.668 340.104 268.677 338.504 268.412C334.068 267.674 331.71 275.051 334.647 279.224C336.693 282.13 340.976 281.648 343.112 279.776C346.13 277.128 345.014 273.58 343.013 271.111L343.013 271.11ZM322.544 296.906C322.113 296.618 321.68 296.33 321.249 296.041C318.938 294.677 315.219 295.395 312.913 297.188C306.621 302.082 317.618 310.16 322.429 305.303C324.312 303.403 324.973 299.017 322.544 296.906ZM308.018 284.016C305.355 289.894 317.258 298.199 320.724 289.193C321.923 286.075 320.955 282.608 316.711 281.353C314.327 280.648 309.537 280.667 308.019 284.015L308.018 284.016ZM319.019 270.566C317.819 273.193 318.377 277.065 320.532 279.529C321.998 281.204 323.805 281.528 325.245 281.278C326.712 281.025 328.318 280.563 329.639 278.856C334.947 272.002 322.097 263.826 319.019 270.565L319.019 270.566ZM395.399 299.764C395.346 299.329 393.952 296.072 393.675 295.551L393.674 295.552C393.692 295.383 393.645 295.15 393.583 294.838C393.416 294.002 393.136 292.605 393.683 290.379C395.009 284.975 400.168 283.156 405.01 283.904C405.695 284.009 406.136 284.147 406.575 284.283C407.377 284.533 408.166 284.779 410.406 284.816C411.596 284.836 412.582 284.648 413.504 284.473C415.072 284.175 416.451 283.913 418.317 284.77C425.137 287.902 424.377 296.892 414.272 299.068L414.241 299.074C413.414 299.252 412.328 299.486 411.64 300.359C411.076 301.075 410.998 302.242 410.906 303.629C410.755 305.9 410.564 308.763 408.135 311.211C403.824 315.556 396.18 312.46 396.49 304.989C396.53 304.004 396.138 300.898 395.399 299.764ZM409.141 270.463C410.741 270.728 412.483 271.719 413.65 273.16L413.65 273.161C415.651 275.631 416.767 279.18 413.749 281.826C411.613 283.699 407.33 284.181 405.284 281.274C402.347 277.102 404.705 269.726 409.141 270.463ZM391.984 298.158L392.538 298.528L392.824 298.719L393.181 298.957L393.18 298.957C395.61 301.068 394.948 305.453 393.066 307.354C388.254 312.211 377.258 304.134 383.55 299.238C385.857 297.445 389.576 296.727 391.886 298.092L391.984 298.158ZM391.361 291.244C387.896 300.248 375.992 291.945 378.655 286.067L378.656 286.066C380.174 282.717 384.964 282.698 387.348 283.403C391.593 284.658 392.561 288.125 391.361 291.244ZM391.17 281.579C389.014 279.116 388.456 275.244 389.656 272.616L389.657 272.615C392.735 265.877 405.585 274.051 400.277 280.907C398.956 282.612 397.35 283.075 395.882 283.329C394.443 283.577 392.636 283.254 391.17 281.579ZM371.809 358.427C372.086 358.947 373.48 362.206 373.532 362.641C374.272 363.774 374.663 366.881 374.622 367.865C374.313 375.337 381.958 378.431 386.268 374.088C388.698 371.639 388.888 368.776 389.039 366.505C389.132 365.118 389.209 363.951 389.773 363.235C390.461 362.364 391.542 362.13 392.367 361.951L392.404 361.943C402.51 359.768 403.271 350.777 396.451 347.645C394.585 346.789 393.207 347.051 391.638 347.349C390.716 347.524 389.729 347.712 388.539 347.692C386.3 347.655 385.511 347.409 384.709 347.159C384.27 347.022 383.828 346.884 383.144 346.779C378.302 346.031 373.143 347.851 371.817 353.254C371.269 355.482 371.549 356.881 371.717 357.716C371.779 358.027 371.826 358.259 371.809 358.428L371.809 358.427ZM391.783 336.036C390.616 334.596 388.875 333.604 387.274 333.338C382.839 332.601 380.48 339.978 383.418 344.151C385.463 347.058 389.747 346.575 391.882 344.703C394.901 342.056 393.785 338.507 391.783 336.038L391.783 336.036ZM370.95 361.59L370.667 361.401C370.451 361.257 370.235 361.113 370.019 360.968C367.708 359.604 363.989 360.321 361.684 362.115C355.393 367.01 366.388 375.087 371.201 370.231C373.083 368.33 373.744 363.945 371.315 361.834L371.314 361.833L370.95 361.59ZM356.788 348.942C354.125 354.82 366.028 363.125 369.494 354.121C370.693 351.003 369.725 347.536 365.48 346.281C363.097 345.576 358.306 345.595 356.788 348.942ZM367.788 335.492C366.588 338.12 367.146 341.992 369.303 344.456C370.769 346.131 372.575 346.455 374.015 346.205C375.483 345.952 377.089 345.49 378.41 343.784C383.717 336.928 370.867 328.753 367.789 335.492L367.788 335.492ZM438.536 368.615C438.482 368.18 437.088 364.922 436.812 364.402L436.81 364.4C436.827 364.232 436.781 363.999 436.719 363.688C436.551 362.853 436.271 361.455 436.818 359.228C438.145 353.825 443.304 352.004 448.146 352.752C448.83 352.858 449.271 352.995 449.709 353.132C450.511 353.382 451.3 353.628 453.541 353.665C454.731 353.685 455.719 353.497 456.64 353.322C458.209 353.024 459.587 352.762 461.453 353.619C468.273 356.752 467.514 365.742 457.408 367.917L457.377 367.924C456.551 368.102 455.466 368.336 454.777 369.209C454.212 369.925 454.135 371.092 454.042 372.48C453.892 374.751 453.701 377.613 451.272 380.062C446.961 384.406 439.317 381.311 439.626 373.839C439.667 372.856 439.275 369.748 438.536 368.615ZM452.277 339.313C453.878 339.578 455.619 340.57 456.786 342.011L456.785 342.012C458.786 344.481 459.901 348.03 456.884 350.677C454.749 352.549 450.465 353.032 448.42 350.125C445.483 345.952 447.841 338.577 452.277 339.313ZM435.021 366.942L436.316 367.807L436.317 367.808C438.746 369.918 438.086 374.304 436.203 376.204C431.39 381.061 420.394 372.984 426.686 368.089C428.991 366.294 432.71 365.577 435.021 366.942ZM434.496 360.095C431.03 369.1 419.128 360.795 421.791 354.917L421.789 354.917C423.307 351.568 428.098 351.551 430.481 352.255C434.727 353.51 435.696 356.976 434.496 360.095ZM434.305 350.431C432.148 347.967 431.59 344.095 432.791 341.467C435.869 334.728 448.72 342.903 443.412 349.759C442.091 351.465 440.486 351.927 439.017 352.181C437.578 352.429 435.771 352.106 434.305 350.431ZM416.668 431.493C416.614 431.058 415.22 427.8 414.944 427.28L414.944 427.278C414.961 427.109 414.915 426.876 414.852 426.565C414.685 425.729 414.406 424.331 414.952 422.105C416.278 416.703 421.438 414.882 426.28 415.63C426.963 415.736 427.405 415.874 427.842 416.01C428.645 416.26 429.434 416.507 431.675 416.543C432.865 416.563 433.852 416.376 434.774 416.2C436.342 415.902 437.721 415.641 439.586 416.498C446.406 419.629 445.646 428.619 435.541 430.795L435.51 430.801C434.684 430.979 433.599 431.213 432.91 432.086C432.345 432.802 432.267 433.969 432.175 435.357C432.024 437.628 431.834 440.491 429.405 442.939C425.094 447.283 417.449 444.188 417.759 436.716C417.799 435.734 417.407 432.626 416.668 431.493ZM430.41 402.19C432.01 402.457 433.751 403.449 434.918 404.889C436.919 407.359 438.034 410.907 435.017 413.554C432.881 415.427 428.598 415.909 426.552 413.002C423.615 408.83 425.973 401.454 430.41 402.19ZM413.153 429.821L414.448 430.685L414.449 430.686C416.878 432.796 416.218 437.182 414.335 439.082C409.522 443.939 398.525 435.863 404.817 430.967C407.123 429.173 410.842 428.455 413.153 429.821ZM412.628 422.973C409.162 431.978 397.26 423.673 399.922 417.795L399.921 417.796C401.439 414.446 406.23 414.429 408.613 415.133C412.859 416.388 413.828 419.855 412.628 422.973ZM412.437 413.309C410.28 410.845 409.722 406.974 410.923 404.345C414.001 397.607 426.851 405.782 421.544 412.637C420.223 414.343 418.618 414.805 417.149 415.059C415.71 415.308 413.903 414.984 412.437 413.309Z" fill="black"/>
</g>
<defs>
<clipPath id="clip0_539_386">
<rect width="173" height="528" fill="white" transform="translate(0 134.198) rotate(-50.8694)"/>
</clipPath>
</defs>
</svg>
