<svg width="269" height="810" viewBox="0 0 269 810" fill="none" xmlns="http://www.w3.org/2000/svg">
<path fill-rule="evenodd" clip-rule="evenodd" d="M101 560C103.761 560 106 557.761 106 555C106 552.239 103.761 550 101 550C98.2386 550 96 552.239 96 555C96 557.761 98.2386 560 101 560ZM101 610C103.761 610 106 607.761 106 605C106 602.239 103.761 600 101 600C98.2386 600 96 602.239 96 605C96 607.761 98.2386 610 101 610ZM106 655C106 657.761 103.761 660 101 660C98.2386 660 96 657.761 96 655C96 652.239 98.2386 650 101 650C103.761 650 106 652.239 106 655ZM101 710C103.761 710 106 707.761 106 705C106 702.239 103.761 700 101 700C98.2386 700 96 702.239 96 705C96 707.761 98.2386 710 101 710ZM106 755C106 757.761 103.761 760 101 760C98.2386 760 96 757.761 96 755C96 752.239 98.2386 750 101 750C103.761 750 106 752.239 106 755ZM101 810C103.761 810 106 807.761 106 805C106 802.239 103.761 800 101 800C98.2386 800 96 802.239 96 805C96 807.761 98.2386 810 101 810ZM156 555C156 557.761 153.761 560 151 560C148.239 560 146 557.761 146 555C146 552.239 148.239 550 151 550C153.761 550 156 552.239 156 555ZM151 610C153.761 610 156 607.761 156 605C156 602.239 153.761 600 151 600C148.239 600 146 602.239 146 605C146 607.761 148.239 610 151 610ZM156 655C156 657.761 153.761 660 151 660C148.239 660 146 657.761 146 655C146 652.239 148.239 650 151 650C153.761 650 156 652.239 156 655ZM151 710C153.761 710 156 707.761 156 705C156 702.239 153.761 700 151 700C148.239 700 146 702.239 146 705C146 707.761 148.239 710 151 710ZM156 755C156 757.761 153.761 760 151 760C148.239 760 146 757.761 146 755C146 752.239 148.239 750 151 750C153.761 750 156 752.239 156 755ZM151 810C153.761 810 156 807.761 156 805C156 802.239 153.761 800 151 800C148.239 800 146 802.239 146 805C146 807.761 148.239 810 151 810Z" fill="white"/>
<path fill-rule="evenodd" clip-rule="evenodd" d="M5 560C7.76142 560 10 557.761 10 555C10 552.239 7.76142 550 5 550C2.23858 550 0 552.239 0 555C0 557.761 2.23858 560 5 560ZM5 610C7.76142 610 10 607.761 10 605C10 602.239 7.76142 600 5 600C2.23858 600 0 602.239 0 605C0 607.761 2.23858 610 5 610ZM10 655C10 657.761 7.76142 660 5 660C2.23858 660 0 657.761 0 655C0 652.239 2.23858 650 5 650C7.76142 650 10 652.239 10 655ZM5 710C7.76142 710 10 707.761 10 705C10 702.239 7.76142 700 5 700C2.23858 700 0 702.239 0 705C0 707.761 2.23858 710 5 710ZM10 755C10 757.761 7.76142 760 5 760C2.23858 760 0 757.761 0 755C0 752.239 2.23858 750 5 750C7.76142 750 10 752.239 10 755ZM5 810C7.76142 810 10 807.761 10 805C10 802.239 7.76142 800 5 800C2.23858 800 0 802.239 0 805C0 807.761 2.23858 810 5 810ZM60 555C60 557.761 57.7614 560 55 560C52.2386 560 50 557.761 50 555C50 552.239 52.2386 550 55 550C57.7614 550 60 552.239 60 555ZM55 610C57.7614 610 60 607.761 60 605C60 602.239 57.7614 600 55 600C52.2386 600 50 602.239 50 605C50 607.761 52.2386 610 55 610ZM60 655C60 657.761 57.7614 660 55 660C52.2386 660 50 657.761 50 655C50 652.239 52.2386 650 55 650C57.7614 650 60 652.239 60 655ZM55 710C57.7614 710 60 707.761 60 705C60 702.239 57.7614 700 55 700C52.2386 700 50 702.239 50 705C50 707.761 52.2386 710 55 710ZM60 755C60 757.761 57.7614 760 55 760C52.2386 760 50 757.761 50 755C50 752.239 52.2386 750 55 750C57.7614 750 60 752.239 60 755ZM55 810C57.7614 810 60 807.761 60 805C60 802.239 57.7614 800 55 800C52.2386 800 50 802.239 50 805C50 807.761 52.2386 810 55 810Z" fill="white"/>
<path fill-rule="evenodd" clip-rule="evenodd" d="M198.443 0L200.886 1.36809L235.943 21L271 1.36809L273.443 0L275.886 1.36809L310.943 21L346 1.36809L348.443 0L350.886 1.36809L385.943 21L421 1.36809L425.886 10.0931L388.386 31.0931L385.943 32.4612L383.5 31.0931L348.443 11.4612L313.386 31.0931L310.943 32.4612L308.5 31.0931L273.443 11.4612L238.386 31.0931L235.943 32.4612L233.5 31.0931L198.443 11.4612L163.386 31.0931L160.943 32.4612L158.5 31.0931L121 10.0931L125.886 1.36809L160.943 21L196 1.36809L198.443 0ZM198.443 61L200.886 62.3681L235.943 82L271 62.3681L273.443 61L275.886 62.3681L310.943 82L346 62.3681L348.443 61L350.886 62.3681L385.943 82L421 62.3681L425.886 71.0932L388.386 92.0932L385.943 93.4612L383.5 92.0932L348.443 72.4612L313.386 92.0932L310.943 93.4612L308.5 92.0932L273.443 72.4612L238.386 92.0932L235.943 93.4612L233.5 92.0932L198.443 72.4612L163.386 92.0932L160.943 93.4612L158.5 92.0932L121 71.0932L125.886 62.3681L160.943 82L196 62.3681L198.443 61ZM200.886 123.368L198.443 122L196 123.368L160.943 143L125.886 123.368L121 132.093L158.5 153.093L160.943 154.461L163.386 153.093L198.443 133.461L233.5 153.093L235.943 154.461L238.386 153.093L273.443 133.461L308.5 153.093L310.943 154.461L313.386 153.093L348.443 133.461L383.5 153.093L385.943 154.461L388.386 153.093L425.886 132.093L421 123.368L385.943 143L350.886 123.368L348.443 122L346 123.368L310.943 143L275.886 123.368L273.443 122L271 123.368L235.943 143L200.886 123.368Z" fill="white"/>
<path d="M181 369L186.303 388.697L206 394L186.303 399.303L181 419L175.697 399.303L156 394L175.697 388.697L181 369Z" fill="white"/>
</svg>
