<svg width="233" height="506" viewBox="0 0 233 506" fill="none" xmlns="http://www.w3.org/2000/svg">
<path d="M222.287 275.77C223.118 277.209 223.927 278.662 224.714 280.129C223.285 279.194 222.33 277.595 222.287 275.77Z" fill="white"/>
<path d="M192.954 238.785C195.451 241.128 197.872 243.549 200.215 246.046C199.309 247.72 197.537 248.857 195.5 248.857C192.541 248.857 190.143 246.459 190.143 243.5C190.143 241.463 191.28 239.691 192.954 238.785Z" fill="white"/>
<path d="M158.871 214.286C160.338 215.073 161.791 215.882 163.23 216.713C161.405 216.67 159.806 215.715 158.871 214.286Z" fill="white"/>
<path d="M2.77028 216.713C4.20927 215.882 5.66235 215.073 7.12904 214.286C6.19418 215.715 4.59507 216.67 2.77028 216.713Z" fill="white"/>
<path d="M-34.2148 246.046C-31.8721 243.549 -29.4506 241.128 -26.9543 238.785C-25.28 239.691 -24.1429 241.463 -24.1429 243.5C-24.1429 246.459 -26.5413 248.857 -29.5 248.857C-31.5372 248.857 -33.3089 247.72 -34.2148 246.046Z" fill="white"/>
<path d="M-58.7137 280.129C-57.9269 278.662 -57.1179 277.209 -56.2872 275.77C-56.3298 277.595 -57.2848 279.194 -58.7137 280.129Z" fill="white"/>
<path d="M224.714 431.871C223.927 433.338 223.118 434.791 222.287 436.23C222.33 434.405 223.285 432.806 224.714 431.871Z" fill="white"/>
<path d="M200.215 465.954C199.309 464.28 197.537 463.143 195.5 463.143C192.541 463.143 190.143 465.541 190.143 468.5C190.143 470.537 191.28 472.309 192.954 473.215C195.451 470.872 197.872 468.451 200.215 465.954Z" fill="white"/>
<path d="M163.23 495.287C161.405 495.33 159.806 496.285 158.871 497.714C160.338 496.927 161.791 496.118 163.23 495.287Z" fill="white"/>
<path d="M7.12904 497.714C6.19418 496.285 4.59507 495.33 2.77028 495.287C4.20927 496.118 5.66235 496.927 7.12904 497.714Z" fill="white"/>
<path d="M-26.9543 473.215C-25.28 472.309 -24.1429 470.537 -24.1429 468.5C-24.1429 465.541 -26.5413 463.143 -29.5 463.143C-31.5372 463.143 -33.3089 464.28 -34.2148 465.954C-31.8721 468.451 -29.4506 470.872 -26.9543 473.215Z" fill="white"/>
<path d="M-56.2872 436.23C-56.3298 434.405 -57.2848 432.806 -58.7137 431.871C-57.9269 433.338 -57.1179 434.791 -56.2872 436.23Z" fill="white"/>
<path d="M40.1429 211.357C40.1429 214.316 37.7444 216.714 34.7857 216.714C31.827 216.714 29.4286 214.316 29.4286 211.357C29.4286 208.398 31.827 206 34.7857 206C37.7444 206 40.1429 208.398 40.1429 211.357Z" fill="white"/>
<path d="M72.2857 211.357C72.2857 214.316 69.8872 216.714 66.9286 216.714C63.9699 216.714 61.5714 214.316 61.5714 211.357C61.5714 208.398 63.9699 206 66.9286 206C69.8872 206 72.2857 208.398 72.2857 211.357Z" fill="white"/>
<path d="M104.429 211.357C104.429 214.316 102.03 216.714 99.0714 216.714C96.1128 216.714 93.7143 214.316 93.7143 211.357C93.7143 208.398 96.1128 206 99.0714 206C102.03 206 104.429 208.398 104.429 211.357Z" fill="white"/>
<path d="M136.571 211.357C136.571 214.316 134.173 216.714 131.214 216.714C128.256 216.714 125.857 214.316 125.857 211.357C125.857 208.398 128.256 206 131.214 206C134.173 206 136.571 208.398 136.571 211.357Z" fill="white"/>
<path d="M8 243.5C8 246.459 5.60153 248.857 2.64286 248.857C-0.315811 248.857 -2.71429 246.459 -2.71429 243.5C-2.71429 240.541 -0.315811 238.143 2.64286 238.143C5.60153 238.143 8 240.541 8 243.5Z" fill="white"/>
<path d="M40.1429 243.5C40.1429 246.459 37.7444 248.857 34.7857 248.857C31.827 248.857 29.4286 246.459 29.4286 243.5C29.4286 240.541 31.827 238.143 34.7857 238.143C37.7444 238.143 40.1429 240.541 40.1429 243.5Z" fill="white"/>
<path d="M72.2857 243.5C72.2857 246.459 69.8872 248.857 66.9286 248.857C63.9699 248.857 61.5714 246.459 61.5714 243.5C61.5714 240.541 63.9699 238.143 66.9286 238.143C69.8872 238.143 72.2857 240.541 72.2857 243.5Z" fill="white"/>
<path d="M104.429 243.5C104.429 246.459 102.03 248.857 99.0714 248.857C96.1128 248.857 93.7143 246.459 93.7143 243.5C93.7143 240.541 96.1128 238.143 99.0714 238.143C102.03 238.143 104.429 240.541 104.429 243.5Z" fill="white"/>
<path d="M136.571 243.5C136.571 246.459 134.173 248.857 131.214 248.857C128.256 248.857 125.857 246.459 125.857 243.5C125.857 240.541 128.256 238.143 131.214 238.143C134.173 238.143 136.571 240.541 136.571 243.5Z" fill="white"/>
<path d="M168.714 243.5C168.714 246.459 166.316 248.857 163.357 248.857C160.398 248.857 158 246.459 158 243.5C158 240.541 160.398 238.143 163.357 238.143C166.316 238.143 168.714 240.541 168.714 243.5Z" fill="white"/>
<path d="M-24.1429 275.643C-24.1429 278.602 -26.5413 281 -29.5 281C-32.4587 281 -34.8571 278.602 -34.8571 275.643C-34.8571 272.684 -32.4587 270.286 -29.5 270.286C-26.5413 270.286 -24.1429 272.684 -24.1429 275.643Z" fill="white"/>
<path d="M8 275.643C8 278.602 5.60153 281 2.64286 281C-0.315811 281 -2.71429 278.602 -2.71429 275.643C-2.71429 272.684 -0.315811 270.286 2.64286 270.286C5.60153 270.286 8 272.684 8 275.643Z" fill="white"/>
<path d="M40.1429 275.643C40.1429 278.602 37.7444 281 34.7857 281C31.827 281 29.4286 278.602 29.4286 275.643C29.4286 272.684 31.827 270.286 34.7857 270.286C37.7444 270.286 40.1429 272.684 40.1429 275.643Z" fill="white"/>
<path d="M72.2857 275.643C72.2857 278.602 69.8872 281 66.9286 281C63.9699 281 61.5714 278.602 61.5714 275.643C61.5714 272.684 63.9699 270.286 66.9286 270.286C69.8872 270.286 72.2857 272.684 72.2857 275.643Z" fill="white"/>
<path d="M104.429 275.643C104.429 278.602 102.03 281 99.0714 281C96.1128 281 93.7143 278.602 93.7143 275.643C93.7143 272.684 96.1128 270.286 99.0714 270.286C102.03 270.286 104.429 272.684 104.429 275.643Z" fill="white"/>
<path d="M136.571 275.643C136.571 278.602 134.173 281 131.214 281C128.256 281 125.857 278.602 125.857 275.643C125.857 272.684 128.256 270.286 131.214 270.286C134.173 270.286 136.571 272.684 136.571 275.643Z" fill="white"/>
<path d="M168.714 275.643C168.714 278.602 166.316 281 163.357 281C160.398 281 158 278.602 158 275.643C158 272.684 160.398 270.286 163.357 270.286C166.316 270.286 168.714 272.684 168.714 275.643Z" fill="white"/>
<path d="M200.857 275.643C200.857 278.602 198.459 281 195.5 281C192.541 281 190.143 278.602 190.143 275.643C190.143 272.684 192.541 270.286 195.5 270.286C198.459 270.286 200.857 272.684 200.857 275.643Z" fill="white"/>
<path d="M-56.2857 307.786C-56.2857 310.744 -58.6842 313.143 -61.6429 313.143C-64.6015 313.143 -67 310.744 -67 307.786C-67 304.827 -64.6015 302.429 -61.6429 302.429C-58.6842 302.429 -56.2857 304.827 -56.2857 307.786Z" fill="white"/>
<path d="M-24.1429 307.786C-24.1429 310.744 -26.5413 313.143 -29.5 313.143C-32.4587 313.143 -34.8571 310.744 -34.8571 307.786C-34.8571 304.827 -32.4587 302.429 -29.5 302.429C-26.5413 302.429 -24.1429 304.827 -24.1429 307.786Z" fill="white"/>
<path d="M8 307.786C8 310.744 5.60153 313.143 2.64286 313.143C-0.315811 313.143 -2.71429 310.744 -2.71429 307.786C-2.71429 304.827 -0.315811 302.429 2.64286 302.429C5.60153 302.429 8 304.827 8 307.786Z" fill="white"/>
<path d="M40.1429 307.786C40.1429 310.744 37.7444 313.143 34.7857 313.143C31.827 313.143 29.4286 310.744 29.4286 307.786C29.4286 304.827 31.827 302.429 34.7857 302.429C37.7444 302.429 40.1429 304.827 40.1429 307.786Z" fill="white"/>
<path d="M72.2857 307.786C72.2857 310.744 69.8872 313.143 66.9286 313.143C63.9699 313.143 61.5714 310.744 61.5714 307.786C61.5714 304.827 63.9699 302.429 66.9286 302.429C69.8872 302.429 72.2857 304.827 72.2857 307.786Z" fill="white"/>
<path d="M104.429 307.786C104.429 310.744 102.03 313.143 99.0714 313.143C96.1128 313.143 93.7143 310.744 93.7143 307.786C93.7143 304.827 96.1128 302.429 99.0714 302.429C102.03 302.429 104.429 304.827 104.429 307.786Z" fill="white"/>
<path d="M136.571 307.786C136.571 310.744 134.173 313.143 131.214 313.143C128.256 313.143 125.857 310.744 125.857 307.786C125.857 304.827 128.256 302.429 131.214 302.429C134.173 302.429 136.571 304.827 136.571 307.786Z" fill="white"/>
<path d="M168.714 307.786C168.714 310.744 166.316 313.143 163.357 313.143C160.398 313.143 158 310.744 158 307.786C158 304.827 160.398 302.429 163.357 302.429C166.316 302.429 168.714 304.827 168.714 307.786Z" fill="white"/>
<path d="M200.857 307.786C200.857 310.744 198.459 313.143 195.5 313.143C192.541 313.143 190.143 310.744 190.143 307.786C190.143 304.827 192.541 302.429 195.5 302.429C198.459 302.429 200.857 304.827 200.857 307.786Z" fill="white"/>
<path d="M233 307.786C233 310.744 230.602 313.143 227.643 313.143C224.684 313.143 222.286 310.744 222.286 307.786C222.286 304.827 224.684 302.429 227.643 302.429C230.602 302.429 233 304.827 233 307.786Z" fill="white"/>
<path d="M-56.2857 339.929C-56.2857 342.887 -58.6842 345.286 -61.6429 345.286C-64.6015 345.286 -67 342.887 -67 339.929C-67 336.97 -64.6015 334.571 -61.6429 334.571C-58.6842 334.571 -56.2857 336.97 -56.2857 339.929Z" fill="white"/>
<path d="M-24.1429 339.929C-24.1429 342.887 -26.5413 345.286 -29.5 345.286C-32.4587 345.286 -34.8571 342.887 -34.8571 339.929C-34.8571 336.97 -32.4587 334.571 -29.5 334.571C-26.5413 334.571 -24.1429 336.97 -24.1429 339.929Z" fill="white"/>
<path d="M8 339.929C8 342.887 5.60153 345.286 2.64286 345.286C-0.315811 345.286 -2.71429 342.887 -2.71429 339.929C-2.71429 336.97 -0.315811 334.571 2.64286 334.571C5.60153 334.571 8 336.97 8 339.929Z" fill="white"/>
<path d="M40.1429 339.929C40.1429 342.887 37.7444 345.286 34.7857 345.286C31.827 345.286 29.4286 342.887 29.4286 339.929C29.4286 336.97 31.827 334.571 34.7857 334.571C37.7444 334.571 40.1429 336.97 40.1429 339.929Z" fill="white"/>
<path d="M72.2857 339.929C72.2857 342.887 69.8872 345.286 66.9286 345.286C63.9699 345.286 61.5714 342.887 61.5714 339.929C61.5714 336.97 63.9699 334.571 66.9286 334.571C69.8872 334.571 72.2857 336.97 72.2857 339.929Z" fill="white"/>
<path d="M104.429 339.929C104.429 342.887 102.03 345.286 99.0714 345.286C96.1128 345.286 93.7143 342.887 93.7143 339.929C93.7143 336.97 96.1128 334.571 99.0714 334.571C102.03 334.571 104.429 336.97 104.429 339.929Z" fill="white"/>
<path d="M136.571 339.929C136.571 342.887 134.173 345.286 131.214 345.286C128.256 345.286 125.857 342.887 125.857 339.929C125.857 336.97 128.256 334.571 131.214 334.571C134.173 334.571 136.571 336.97 136.571 339.929Z" fill="white"/>
<path d="M168.714 339.929C168.714 342.887 166.316 345.286 163.357 345.286C160.398 345.286 158 342.887 158 339.929C158 336.97 160.398 334.571 163.357 334.571C166.316 334.571 168.714 336.97 168.714 339.929Z" fill="white"/>
<path d="M200.857 339.929C200.857 342.887 198.459 345.286 195.5 345.286C192.541 345.286 190.143 342.887 190.143 339.929C190.143 336.97 192.541 334.571 195.5 334.571C198.459 334.571 200.857 336.97 200.857 339.929Z" fill="white"/>
<path d="M233 339.929C233 342.887 230.602 345.286 227.643 345.286C224.684 345.286 222.286 342.887 222.286 339.929C222.286 336.97 224.684 334.571 227.643 334.571C230.602 334.571 233 336.97 233 339.929Z" fill="white"/>
<path d="M-56.2857 372.071C-56.2857 375.03 -58.6842 377.429 -61.6429 377.429C-64.6015 377.429 -67 375.03 -67 372.071C-67 369.113 -64.6015 366.714 -61.6429 366.714C-58.6842 366.714 -56.2857 369.113 -56.2857 372.071Z" fill="white"/>
<path d="M-24.1429 372.071C-24.1429 375.03 -26.5413 377.429 -29.5 377.429C-32.4587 377.429 -34.8571 375.03 -34.8571 372.071C-34.8571 369.113 -32.4587 366.714 -29.5 366.714C-26.5413 366.714 -24.1429 369.113 -24.1429 372.071Z" fill="white"/>
<path d="M8 372.071C8 375.03 5.60153 377.429 2.64286 377.429C-0.315811 377.429 -2.71429 375.03 -2.71429 372.071C-2.71429 369.113 -0.315811 366.714 2.64286 366.714C5.60153 366.714 8 369.113 8 372.071Z" fill="white"/>
<path d="M40.1429 372.071C40.1429 375.03 37.7444 377.429 34.7857 377.429C31.827 377.429 29.4286 375.03 29.4286 372.071C29.4286 369.113 31.827 366.714 34.7857 366.714C37.7444 366.714 40.1429 369.113 40.1429 372.071Z" fill="white"/>
<path d="M72.2857 372.071C72.2857 375.03 69.8872 377.429 66.9286 377.429C63.9699 377.429 61.5714 375.03 61.5714 372.071C61.5714 369.113 63.9699 366.714 66.9286 366.714C69.8872 366.714 72.2857 369.113 72.2857 372.071Z" fill="white"/>
<path d="M104.429 372.071C104.429 375.03 102.03 377.429 99.0714 377.429C96.1128 377.429 93.7143 375.03 93.7143 372.071C93.7143 369.113 96.1128 366.714 99.0714 366.714C102.03 366.714 104.429 369.113 104.429 372.071Z" fill="white"/>
<path d="M136.571 372.071C136.571 375.03 134.173 377.429 131.214 377.429C128.256 377.429 125.857 375.03 125.857 372.071C125.857 369.113 128.256 366.714 131.214 366.714C134.173 366.714 136.571 369.113 136.571 372.071Z" fill="white"/>
<path d="M168.714 372.071C168.714 375.03 166.316 377.429 163.357 377.429C160.398 377.429 158 375.03 158 372.071C158 369.113 160.398 366.714 163.357 366.714C166.316 366.714 168.714 369.113 168.714 372.071Z" fill="white"/>
<path d="M200.857 372.071C200.857 375.03 198.459 377.429 195.5 377.429C192.541 377.429 190.143 375.03 190.143 372.071C190.143 369.113 192.541 366.714 195.5 366.714C198.459 366.714 200.857 369.113 200.857 372.071Z" fill="white"/>
<path d="M233 372.071C233 375.03 230.602 377.429 227.643 377.429C224.684 377.429 222.286 375.03 222.286 372.071C222.286 369.113 224.684 366.714 227.643 366.714C230.602 366.714 233 369.113 233 372.071Z" fill="white"/>
<path d="M-56.2857 404.214C-56.2857 407.173 -58.6842 409.571 -61.6429 409.571C-64.6015 409.571 -67 407.173 -67 404.214C-67 401.256 -64.6015 398.857 -61.6429 398.857C-58.6842 398.857 -56.2857 401.256 -56.2857 404.214Z" fill="white"/>
<path d="M-24.1429 404.214C-24.1429 407.173 -26.5413 409.571 -29.5 409.571C-32.4587 409.571 -34.8571 407.173 -34.8571 404.214C-34.8571 401.256 -32.4587 398.857 -29.5 398.857C-26.5413 398.857 -24.1429 401.256 -24.1429 404.214Z" fill="white"/>
<path d="M8 404.214C8 407.173 5.60153 409.571 2.64286 409.571C-0.315811 409.571 -2.71429 407.173 -2.71429 404.214C-2.71429 401.256 -0.315811 398.857 2.64286 398.857C5.60153 398.857 8 401.256 8 404.214Z" fill="white"/>
<path d="M40.1429 404.214C40.1429 407.173 37.7444 409.571 34.7857 409.571C31.827 409.571 29.4286 407.173 29.4286 404.214C29.4286 401.256 31.827 398.857 34.7857 398.857C37.7444 398.857 40.1429 401.256 40.1429 404.214Z" fill="white"/>
<path d="M72.2857 404.214C72.2857 407.173 69.8872 409.571 66.9286 409.571C63.9699 409.571 61.5714 407.173 61.5714 404.214C61.5714 401.256 63.9699 398.857 66.9286 398.857C69.8872 398.857 72.2857 401.256 72.2857 404.214Z" fill="white"/>
<path d="M104.429 404.214C104.429 407.173 102.03 409.571 99.0714 409.571C96.1128 409.571 93.7143 407.173 93.7143 404.214C93.7143 401.256 96.1128 398.857 99.0714 398.857C102.03 398.857 104.429 401.256 104.429 404.214Z" fill="white"/>
<path d="M136.571 404.214C136.571 407.173 134.173 409.571 131.214 409.571C128.256 409.571 125.857 407.173 125.857 404.214C125.857 401.256 128.256 398.857 131.214 398.857C134.173 398.857 136.571 401.256 136.571 404.214Z" fill="white"/>
<path d="M168.714 404.214C168.714 407.173 166.316 409.571 163.357 409.571C160.398 409.571 158 407.173 158 404.214C158 401.256 160.398 398.857 163.357 398.857C166.316 398.857 168.714 401.256 168.714 404.214Z" fill="white"/>
<path d="M200.857 404.214C200.857 407.173 198.459 409.571 195.5 409.571C192.541 409.571 190.143 407.173 190.143 404.214C190.143 401.256 192.541 398.857 195.5 398.857C198.459 398.857 200.857 401.256 200.857 404.214Z" fill="white"/>
<path d="M233 404.214C233 407.173 230.602 409.571 227.643 409.571C224.684 409.571 222.286 407.173 222.286 404.214C222.286 401.256 224.684 398.857 227.643 398.857C230.602 398.857 233 401.256 233 404.214Z" fill="white"/>
<path d="M-24.1429 436.357C-24.1429 439.316 -26.5413 441.714 -29.5 441.714C-32.4587 441.714 -34.8571 439.316 -34.8571 436.357C-34.8571 433.398 -32.4587 431 -29.5 431C-26.5413 431 -24.1429 433.398 -24.1429 436.357Z" fill="white"/>
<path d="M8 436.357C8 439.316 5.60153 441.714 2.64286 441.714C-0.315811 441.714 -2.71429 439.316 -2.71429 436.357C-2.71429 433.398 -0.315811 431 2.64286 431C5.60153 431 8 433.398 8 436.357Z" fill="white"/>
<path d="M40.1429 436.357C40.1429 439.316 37.7444 441.714 34.7857 441.714C31.827 441.714 29.4286 439.316 29.4286 436.357C29.4286 433.398 31.827 431 34.7857 431C37.7444 431 40.1429 433.398 40.1429 436.357Z" fill="white"/>
<path d="M72.2857 436.357C72.2857 439.316 69.8872 441.714 66.9286 441.714C63.9699 441.714 61.5714 439.316 61.5714 436.357C61.5714 433.398 63.9699 431 66.9286 431C69.8872 431 72.2857 433.398 72.2857 436.357Z" fill="white"/>
<path d="M104.429 436.357C104.429 439.316 102.03 441.714 99.0714 441.714C96.1128 441.714 93.7143 439.316 93.7143 436.357C93.7143 433.398 96.1128 431 99.0714 431C102.03 431 104.429 433.398 104.429 436.357Z" fill="white"/>
<path d="M136.571 436.357C136.571 439.316 134.173 441.714 131.214 441.714C128.256 441.714 125.857 439.316 125.857 436.357C125.857 433.398 128.256 431 131.214 431C134.173 431 136.571 433.398 136.571 436.357Z" fill="white"/>
<path d="M168.714 436.357C168.714 439.316 166.316 441.714 163.357 441.714C160.398 441.714 158 439.316 158 436.357C158 433.398 160.398 431 163.357 431C166.316 431 168.714 433.398 168.714 436.357Z" fill="white"/>
<path d="M200.857 436.357C200.857 439.316 198.459 441.714 195.5 441.714C192.541 441.714 190.143 439.316 190.143 436.357C190.143 433.398 192.541 431 195.5 431C198.459 431 200.857 433.398 200.857 436.357Z" fill="white"/>
<path d="M8 468.5C8 471.459 5.60153 473.857 2.64286 473.857C-0.315811 473.857 -2.71429 471.459 -2.71429 468.5C-2.71429 465.541 -0.315811 463.143 2.64286 463.143C5.60153 463.143 8 465.541 8 468.5Z" fill="white"/>
<path d="M40.1429 468.5C40.1429 471.459 37.7444 473.857 34.7857 473.857C31.827 473.857 29.4286 471.459 29.4286 468.5C29.4286 465.541 31.827 463.143 34.7857 463.143C37.7444 463.143 40.1429 465.541 40.1429 468.5Z" fill="white"/>
<path d="M72.2857 468.5C72.2857 471.459 69.8872 473.857 66.9286 473.857C63.9699 473.857 61.5714 471.459 61.5714 468.5C61.5714 465.541 63.9699 463.143 66.9286 463.143C69.8872 463.143 72.2857 465.541 72.2857 468.5Z" fill="white"/>
<path d="M104.429 468.5C104.429 471.459 102.03 473.857 99.0714 473.857C96.1128 473.857 93.7143 471.459 93.7143 468.5C93.7143 465.541 96.1128 463.143 99.0714 463.143C102.03 463.143 104.429 465.541 104.429 468.5Z" fill="white"/>
<path d="M136.571 468.5C136.571 471.459 134.173 473.857 131.214 473.857C128.256 473.857 125.857 471.459 125.857 468.5C125.857 465.541 128.256 463.143 131.214 463.143C134.173 463.143 136.571 465.541 136.571 468.5Z" fill="white"/>
<path d="M168.714 468.5C168.714 471.459 166.316 473.857 163.357 473.857C160.398 473.857 158 471.459 158 468.5C158 465.541 160.398 463.143 163.357 463.143C166.316 463.143 168.714 465.541 168.714 468.5Z" fill="white"/>
<path d="M40.1429 500.643C40.1429 503.602 37.7444 506 34.7857 506C31.827 506 29.4286 503.602 29.4286 500.643C29.4286 497.684 31.827 495.286 34.7857 495.286C37.7444 495.286 40.1429 497.684 40.1429 500.643Z" fill="white"/>
<path d="M72.2857 500.643C72.2857 503.602 69.8872 506 66.9286 506C63.9699 506 61.5714 503.602 61.5714 500.643C61.5714 497.684 63.9699 495.286 66.9286 495.286C69.8872 495.286 72.2857 497.684 72.2857 500.643Z" fill="white"/>
<path d="M104.429 500.643C104.429 503.602 102.03 506 99.0714 506C96.1128 506 93.7143 503.602 93.7143 500.643C93.7143 497.684 96.1128 495.286 99.0714 495.286C102.03 495.286 104.429 497.684 104.429 500.643Z" fill="white"/>
<path d="M136.571 500.643C136.571 503.602 134.173 506 131.214 506C128.256 506 125.857 503.602 125.857 500.643C125.857 497.684 128.256 495.286 131.214 495.286C134.173 495.286 136.571 497.684 136.571 500.643Z" fill="white"/>
<path d="M99.9418 27.7054L100.017 27.9833L100.295 28.0582L102.018 28.5222C102.285 28.594 102.559 28.4361 102.631 28.1694L105.112 28.8375C105.04 29.1041 105.198 29.3785 105.465 29.4503L108.912 30.3784C109.179 30.4502 109.453 30.2922 109.525 30.0256L112.006 30.6937C111.934 30.9603 112.092 31.2347 112.359 31.3065L115.806 32.2345C116.072 32.3063 116.347 32.1484 116.419 31.8817L118.9 32.5498C118.828 32.8165 118.986 33.0908 119.253 33.1626L122.7 34.0907C122.966 34.1625 123.241 34.0045 123.312 33.7379L125.794 34.406C125.727 34.6532 125.858 34.9072 126.09 35C125.858 35.0928 125.727 35.3468 125.794 35.594L123.312 36.2621C123.241 35.9955 122.966 35.8375 122.7 35.9093L119.253 36.8374C118.986 36.9092 118.828 37.1835 118.9 37.4502L116.419 38.1183C116.347 37.8516 116.072 37.6937 115.806 37.7655L112.359 38.6935C112.092 38.7653 111.934 39.0397 112.006 39.3063L109.525 39.9744C109.453 39.7078 109.179 39.5498 108.912 39.6216L105.465 40.5497C105.198 40.6215 105.04 40.8959 105.112 41.1625L102.631 41.8306C102.559 41.5639 102.285 41.406 102.018 41.4778L100.295 41.9418L100.017 42.0167L99.9418 42.2946L99.4778 44.0181C99.406 44.2847 99.5639 44.5591 99.8306 44.6309L99.1625 47.1122C98.8959 47.0404 98.6215 47.1984 98.5497 47.465L97.6216 50.9119C97.5498 51.1786 97.7078 51.4529 97.9744 51.5247L97.3063 54.006C97.0397 53.9342 96.7653 54.0922 96.6935 54.3589L95.7655 57.8058C95.6937 58.0724 95.8516 58.3468 96.1183 58.4186L95.4502 60.8999C95.1835 60.8281 94.9092 60.9861 94.8374 61.2527L93.9093 64.6996C93.8375 64.9663 93.9955 65.2406 94.2621 65.3124L93.594 67.7937C93.3468 67.7271 93.0928 67.8582 93 68.0902C92.9072 67.8582 92.6532 67.7271 92.406 67.7937L91.7379 65.3124C92.0045 65.2406 92.1625 64.9663 92.0907 64.6996L91.1626 61.2527C91.0908 60.9861 90.8165 60.8281 90.5498 60.8999L89.8817 58.4186C90.1484 58.3468 90.3063 58.0724 90.2345 57.8058L89.3065 54.3589C89.2347 54.0922 88.9603 53.9342 88.6937 54.006L88.0256 51.5247C88.2922 51.4529 88.4502 51.1786 88.3784 50.9119L87.4503 47.465C87.3785 47.1984 87.1041 47.0404 86.8375 47.1122L86.1694 44.6309C86.4361 44.5591 86.594 44.2847 86.5222 44.0181L86.0582 42.2946L85.9833 42.0167L85.7054 41.9418L83.9819 41.4778C83.7153 41.406 83.4409 41.5639 83.3691 41.8306L80.8878 41.1625C80.9596 40.8959 80.8016 40.6215 80.535 40.5497L77.0881 39.6216C76.8214 39.5498 76.5471 39.7078 76.4753 39.9744L73.994 39.3063C74.0658 39.0397 73.9078 38.7653 73.6411 38.6935L70.1942 37.7655C69.9276 37.6937 69.6532 37.8516 69.5814 38.1183L67.1001 37.4502C67.1719 37.1835 67.0139 36.9092 66.7473 36.8374L63.3004 35.9093C63.0337 35.8375 62.7594 35.9955 62.6876 36.2621L60.2063 35.594C60.2728 35.3468 60.1418 35.0928 59.9098 35C60.1418 34.9072 60.2728 34.6532 60.2063 34.406L62.6876 33.7379C62.7594 34.0045 63.0337 34.1625 63.3004 34.0907L66.7473 33.1626C67.0139 33.0908 67.1719 32.8165 67.1001 32.5498L69.5814 31.8817C69.6532 32.1484 69.9276 32.3063 70.1942 32.2345L73.6411 31.3065C73.9078 31.2347 74.0658 30.9603 73.994 30.6937L76.4753 30.0256C76.5471 30.2922 76.8214 30.4502 77.0881 30.3784L80.535 29.4503C80.8016 29.3785 80.9596 29.1041 80.8878 28.8375L83.3691 28.1694C83.4409 28.4361 83.7153 28.594 83.9819 28.5222L85.7054 28.0582L85.9833 27.9833L86.0582 27.7054L86.5222 25.9819C86.594 25.7153 86.4361 25.4409 86.1694 25.3691L86.8375 22.8878C87.1041 22.9596 87.3785 22.8016 87.4503 22.535L88.3784 19.0881C88.4502 18.8214 88.2922 18.5471 88.0256 18.4753L88.6937 15.994C88.9603 16.0658 89.2347 15.9078 89.3065 15.6411L90.2345 12.1942C90.3063 11.9276 90.1484 11.6532 89.8817 11.5814L90.5498 9.10011C90.8165 9.17191 91.0908 9.01395 91.1626 8.7473L92.0907 5.30038C92.1625 5.03373 92.0045 4.75937 91.7379 4.68758L92.406 2.20627C92.6532 2.27285 92.9072 2.14183 93 1.90978C93.0928 2.14183 93.3468 2.27285 93.594 2.20627L94.2621 4.68758C93.9955 4.75937 93.8375 5.03373 93.9093 5.30038L94.8374 8.7473C94.9092 9.01395 95.1835 9.17191 95.4502 9.10011L96.1183 11.5814C95.8516 11.6532 95.6937 11.9276 95.7655 12.1942L96.6935 15.6411C96.7653 15.9078 97.0397 16.0658 97.3063 15.994L97.9744 18.4753C97.7078 18.5471 97.5498 18.8214 97.6216 19.0881L98.5497 22.535C98.6215 22.8016 98.8959 22.9596 99.1625 22.8878L99.8306 25.3691C99.5639 25.4409 99.406 25.7153 99.4778 25.9819L99.9418 27.7054Z" stroke="white" stroke-linecap="round" stroke-dasharray="4 4"/>
</svg>
