<svg width="300" height="506" viewBox="0 0 300 506" fill="none" xmlns="http://www.w3.org/2000/svg">
<path d="M289.287 275.77C290.118 277.209 290.927 278.662 291.714 280.129C290.285 279.194 289.33 277.595 289.287 275.77Z" fill="white"/>
<path d="M259.954 238.785C262.451 241.128 264.872 243.549 267.215 246.046C266.309 247.72 264.537 248.857 262.5 248.857C259.541 248.857 257.143 246.459 257.143 243.5C257.143 241.463 258.28 239.691 259.954 238.785Z" fill="white"/>
<path d="M225.871 214.286C227.338 215.073 228.791 215.882 230.23 216.713C228.405 216.67 226.806 215.715 225.871 214.286Z" fill="white"/>
<path d="M69.7703 216.713C71.2093 215.882 72.6623 215.073 74.129 214.286C73.1942 215.715 71.5951 216.67 69.7703 216.713Z" fill="white"/>
<path d="M32.7852 246.046C35.1279 243.549 37.5494 241.128 40.0457 238.785C41.72 239.691 42.8571 241.463 42.8571 243.5C42.8571 246.459 40.4587 248.857 37.5 248.857C35.4628 248.857 33.6911 247.72 32.7852 246.046Z" fill="white"/>
<path d="M8.28625 280.129C9.07314 278.662 9.88214 277.209 10.7128 275.77C10.6702 277.595 9.71517 279.194 8.28625 280.129Z" fill="white"/>
<path d="M291.714 431.871C290.927 433.338 290.118 434.791 289.287 436.23C289.33 434.405 290.285 432.806 291.714 431.871Z" fill="white"/>
<path d="M267.215 465.954C266.309 464.28 264.537 463.143 262.5 463.143C259.541 463.143 257.143 465.541 257.143 468.5C257.143 470.537 258.28 472.309 259.954 473.215C262.451 470.872 264.872 468.451 267.215 465.954Z" fill="white"/>
<path d="M230.23 495.287C228.405 495.33 226.806 496.285 225.871 497.714C227.338 496.927 228.791 496.118 230.23 495.287Z" fill="white"/>
<path d="M74.129 497.714C73.1942 496.285 71.5951 495.33 69.7703 495.287C71.2093 496.118 72.6623 496.927 74.129 497.714Z" fill="white"/>
<path d="M40.0457 473.215C41.72 472.309 42.8571 470.537 42.8571 468.5C42.8571 465.541 40.4587 463.143 37.5 463.143C35.4628 463.143 33.6911 464.28 32.7852 465.954C35.1279 468.451 37.5494 470.872 40.0457 473.215Z" fill="white"/>
<path d="M10.7128 436.23C10.6702 434.405 9.71517 432.806 8.28625 431.871C9.07314 433.338 9.88214 434.791 10.7128 436.23Z" fill="white"/>
<path d="M107.143 211.357C107.143 214.316 104.744 216.714 101.786 216.714C98.827 216.714 96.4286 214.316 96.4286 211.357C96.4286 208.398 98.827 206 101.786 206C104.744 206 107.143 208.398 107.143 211.357Z" fill="white"/>
<path d="M139.286 211.357C139.286 214.316 136.887 216.714 133.929 216.714C130.97 216.714 128.571 214.316 128.571 211.357C128.571 208.398 130.97 206 133.929 206C136.887 206 139.286 208.398 139.286 211.357Z" fill="white"/>
<path d="M171.429 211.357C171.429 214.316 169.03 216.714 166.071 216.714C163.113 216.714 160.714 214.316 160.714 211.357C160.714 208.398 163.113 206 166.071 206C169.03 206 171.429 208.398 171.429 211.357Z" fill="white"/>
<path d="M203.571 211.357C203.571 214.316 201.173 216.714 198.214 216.714C195.256 216.714 192.857 214.316 192.857 211.357C192.857 208.398 195.256 206 198.214 206C201.173 206 203.571 208.398 203.571 211.357Z" fill="white"/>
<path d="M75 243.5C75 246.459 72.6015 248.857 69.6429 248.857C66.6842 248.857 64.2857 246.459 64.2857 243.5C64.2857 240.541 66.6842 238.143 69.6429 238.143C72.6015 238.143 75 240.541 75 243.5Z" fill="white"/>
<path d="M107.143 243.5C107.143 246.459 104.744 248.857 101.786 248.857C98.827 248.857 96.4286 246.459 96.4286 243.5C96.4286 240.541 98.827 238.143 101.786 238.143C104.744 238.143 107.143 240.541 107.143 243.5Z" fill="white"/>
<path d="M139.286 243.5C139.286 246.459 136.887 248.857 133.929 248.857C130.97 248.857 128.571 246.459 128.571 243.5C128.571 240.541 130.97 238.143 133.929 238.143C136.887 238.143 139.286 240.541 139.286 243.5Z" fill="white"/>
<path d="M171.429 243.5C171.429 246.459 169.03 248.857 166.071 248.857C163.113 248.857 160.714 246.459 160.714 243.5C160.714 240.541 163.113 238.143 166.071 238.143C169.03 238.143 171.429 240.541 171.429 243.5Z" fill="white"/>
<path d="M203.571 243.5C203.571 246.459 201.173 248.857 198.214 248.857C195.256 248.857 192.857 246.459 192.857 243.5C192.857 240.541 195.256 238.143 198.214 238.143C201.173 238.143 203.571 240.541 203.571 243.5Z" fill="white"/>
<path d="M235.714 243.5C235.714 246.459 233.316 248.857 230.357 248.857C227.398 248.857 225 246.459 225 243.5C225 240.541 227.398 238.143 230.357 238.143C233.316 238.143 235.714 240.541 235.714 243.5Z" fill="white"/>
<path d="M42.8571 275.643C42.8571 278.602 40.4587 281 37.5 281C34.5413 281 32.1429 278.602 32.1429 275.643C32.1429 272.684 34.5413 270.286 37.5 270.286C40.4587 270.286 42.8571 272.684 42.8571 275.643Z" fill="white"/>
<path d="M75 275.643C75 278.602 72.6015 281 69.6429 281C66.6842 281 64.2857 278.602 64.2857 275.643C64.2857 272.684 66.6842 270.286 69.6429 270.286C72.6015 270.286 75 272.684 75 275.643Z" fill="white"/>
<path d="M107.143 275.643C107.143 278.602 104.744 281 101.786 281C98.827 281 96.4286 278.602 96.4286 275.643C96.4286 272.684 98.827 270.286 101.786 270.286C104.744 270.286 107.143 272.684 107.143 275.643Z" fill="white"/>
<path d="M139.286 275.643C139.286 278.602 136.887 281 133.929 281C130.97 281 128.571 278.602 128.571 275.643C128.571 272.684 130.97 270.286 133.929 270.286C136.887 270.286 139.286 272.684 139.286 275.643Z" fill="white"/>
<path d="M171.429 275.643C171.429 278.602 169.03 281 166.071 281C163.113 281 160.714 278.602 160.714 275.643C160.714 272.684 163.113 270.286 166.071 270.286C169.03 270.286 171.429 272.684 171.429 275.643Z" fill="white"/>
<path d="M203.571 275.643C203.571 278.602 201.173 281 198.214 281C195.256 281 192.857 278.602 192.857 275.643C192.857 272.684 195.256 270.286 198.214 270.286C201.173 270.286 203.571 272.684 203.571 275.643Z" fill="white"/>
<path d="M235.714 275.643C235.714 278.602 233.316 281 230.357 281C227.398 281 225 278.602 225 275.643C225 272.684 227.398 270.286 230.357 270.286C233.316 270.286 235.714 272.684 235.714 275.643Z" fill="white"/>
<path d="M267.857 275.643C267.857 278.602 265.459 281 262.5 281C259.541 281 257.143 278.602 257.143 275.643C257.143 272.684 259.541 270.286 262.5 270.286C265.459 270.286 267.857 272.684 267.857 275.643Z" fill="white"/>
<path d="M10.7143 307.786C10.7143 310.744 8.31581 313.143 5.35714 313.143C2.39847 313.143 0 310.744 0 307.786C0 304.827 2.39847 302.429 5.35714 302.429C8.31581 302.429 10.7143 304.827 10.7143 307.786Z" fill="white"/>
<path d="M42.8571 307.786C42.8571 310.744 40.4587 313.143 37.5 313.143C34.5413 313.143 32.1429 310.744 32.1429 307.786C32.1429 304.827 34.5413 302.429 37.5 302.429C40.4587 302.429 42.8571 304.827 42.8571 307.786Z" fill="white"/>
<path d="M75 307.786C75 310.744 72.6015 313.143 69.6429 313.143C66.6842 313.143 64.2857 310.744 64.2857 307.786C64.2857 304.827 66.6842 302.429 69.6429 302.429C72.6015 302.429 75 304.827 75 307.786Z" fill="white"/>
<path d="M107.143 307.786C107.143 310.744 104.744 313.143 101.786 313.143C98.827 313.143 96.4286 310.744 96.4286 307.786C96.4286 304.827 98.827 302.429 101.786 302.429C104.744 302.429 107.143 304.827 107.143 307.786Z" fill="white"/>
<path d="M139.286 307.786C139.286 310.744 136.887 313.143 133.929 313.143C130.97 313.143 128.571 310.744 128.571 307.786C128.571 304.827 130.97 302.429 133.929 302.429C136.887 302.429 139.286 304.827 139.286 307.786Z" fill="white"/>
<path d="M171.429 307.786C171.429 310.744 169.03 313.143 166.071 313.143C163.113 313.143 160.714 310.744 160.714 307.786C160.714 304.827 163.113 302.429 166.071 302.429C169.03 302.429 171.429 304.827 171.429 307.786Z" fill="white"/>
<path d="M203.571 307.786C203.571 310.744 201.173 313.143 198.214 313.143C195.256 313.143 192.857 310.744 192.857 307.786C192.857 304.827 195.256 302.429 198.214 302.429C201.173 302.429 203.571 304.827 203.571 307.786Z" fill="white"/>
<path d="M235.714 307.786C235.714 310.744 233.316 313.143 230.357 313.143C227.398 313.143 225 310.744 225 307.786C225 304.827 227.398 302.429 230.357 302.429C233.316 302.429 235.714 304.827 235.714 307.786Z" fill="white"/>
<path d="M267.857 307.786C267.857 310.744 265.459 313.143 262.5 313.143C259.541 313.143 257.143 310.744 257.143 307.786C257.143 304.827 259.541 302.429 262.5 302.429C265.459 302.429 267.857 304.827 267.857 307.786Z" fill="white"/>
<path d="M300 307.786C300 310.744 297.602 313.143 294.643 313.143C291.684 313.143 289.286 310.744 289.286 307.786C289.286 304.827 291.684 302.429 294.643 302.429C297.602 302.429 300 304.827 300 307.786Z" fill="white"/>
<path d="M10.7143 339.929C10.7143 342.887 8.31581 345.286 5.35714 345.286C2.39847 345.286 0 342.887 0 339.929C0 336.97 2.39847 334.571 5.35714 334.571C8.31581 334.571 10.7143 336.97 10.7143 339.929Z" fill="white"/>
<path d="M42.8571 339.929C42.8571 342.887 40.4587 345.286 37.5 345.286C34.5413 345.286 32.1429 342.887 32.1429 339.929C32.1429 336.97 34.5413 334.571 37.5 334.571C40.4587 334.571 42.8571 336.97 42.8571 339.929Z" fill="white"/>
<path d="M75 339.929C75 342.887 72.6015 345.286 69.6429 345.286C66.6842 345.286 64.2857 342.887 64.2857 339.929C64.2857 336.97 66.6842 334.571 69.6429 334.571C72.6015 334.571 75 336.97 75 339.929Z" fill="white"/>
<path d="M107.143 339.929C107.143 342.887 104.744 345.286 101.786 345.286C98.827 345.286 96.4286 342.887 96.4286 339.929C96.4286 336.97 98.827 334.571 101.786 334.571C104.744 334.571 107.143 336.97 107.143 339.929Z" fill="white"/>
<path d="M139.286 339.929C139.286 342.887 136.887 345.286 133.929 345.286C130.97 345.286 128.571 342.887 128.571 339.929C128.571 336.97 130.97 334.571 133.929 334.571C136.887 334.571 139.286 336.97 139.286 339.929Z" fill="white"/>
<path d="M171.429 339.929C171.429 342.887 169.03 345.286 166.071 345.286C163.113 345.286 160.714 342.887 160.714 339.929C160.714 336.97 163.113 334.571 166.071 334.571C169.03 334.571 171.429 336.97 171.429 339.929Z" fill="white"/>
<path d="M203.571 339.929C203.571 342.887 201.173 345.286 198.214 345.286C195.256 345.286 192.857 342.887 192.857 339.929C192.857 336.97 195.256 334.571 198.214 334.571C201.173 334.571 203.571 336.97 203.571 339.929Z" fill="white"/>
<path d="M235.714 339.929C235.714 342.887 233.316 345.286 230.357 345.286C227.398 345.286 225 342.887 225 339.929C225 336.97 227.398 334.571 230.357 334.571C233.316 334.571 235.714 336.97 235.714 339.929Z" fill="white"/>
<path d="M267.857 339.929C267.857 342.887 265.459 345.286 262.5 345.286C259.541 345.286 257.143 342.887 257.143 339.929C257.143 336.97 259.541 334.571 262.5 334.571C265.459 334.571 267.857 336.97 267.857 339.929Z" fill="white"/>
<path d="M300 339.929C300 342.887 297.602 345.286 294.643 345.286C291.684 345.286 289.286 342.887 289.286 339.929C289.286 336.97 291.684 334.571 294.643 334.571C297.602 334.571 300 336.97 300 339.929Z" fill="white"/>
<path d="M10.7143 372.071C10.7143 375.03 8.31581 377.429 5.35714 377.429C2.39847 377.429 0 375.03 0 372.071C0 369.113 2.39847 366.714 5.35714 366.714C8.31581 366.714 10.7143 369.113 10.7143 372.071Z" fill="white"/>
<path d="M42.8571 372.071C42.8571 375.03 40.4587 377.429 37.5 377.429C34.5413 377.429 32.1429 375.03 32.1429 372.071C32.1429 369.113 34.5413 366.714 37.5 366.714C40.4587 366.714 42.8571 369.113 42.8571 372.071Z" fill="white"/>
<path d="M75 372.071C75 375.03 72.6015 377.429 69.6429 377.429C66.6842 377.429 64.2857 375.03 64.2857 372.071C64.2857 369.113 66.6842 366.714 69.6429 366.714C72.6015 366.714 75 369.113 75 372.071Z" fill="white"/>
<path d="M107.143 372.071C107.143 375.03 104.744 377.429 101.786 377.429C98.827 377.429 96.4286 375.03 96.4286 372.071C96.4286 369.113 98.827 366.714 101.786 366.714C104.744 366.714 107.143 369.113 107.143 372.071Z" fill="white"/>
<path d="M139.286 372.071C139.286 375.03 136.887 377.429 133.929 377.429C130.97 377.429 128.571 375.03 128.571 372.071C128.571 369.113 130.97 366.714 133.929 366.714C136.887 366.714 139.286 369.113 139.286 372.071Z" fill="white"/>
<path d="M171.429 372.071C171.429 375.03 169.03 377.429 166.071 377.429C163.113 377.429 160.714 375.03 160.714 372.071C160.714 369.113 163.113 366.714 166.071 366.714C169.03 366.714 171.429 369.113 171.429 372.071Z" fill="white"/>
<path d="M203.571 372.071C203.571 375.03 201.173 377.429 198.214 377.429C195.256 377.429 192.857 375.03 192.857 372.071C192.857 369.113 195.256 366.714 198.214 366.714C201.173 366.714 203.571 369.113 203.571 372.071Z" fill="white"/>
<path d="M235.714 372.071C235.714 375.03 233.316 377.429 230.357 377.429C227.398 377.429 225 375.03 225 372.071C225 369.113 227.398 366.714 230.357 366.714C233.316 366.714 235.714 369.113 235.714 372.071Z" fill="white"/>
<path d="M267.857 372.071C267.857 375.03 265.459 377.429 262.5 377.429C259.541 377.429 257.143 375.03 257.143 372.071C257.143 369.113 259.541 366.714 262.5 366.714C265.459 366.714 267.857 369.113 267.857 372.071Z" fill="white"/>
<path d="M300 372.071C300 375.03 297.602 377.429 294.643 377.429C291.684 377.429 289.286 375.03 289.286 372.071C289.286 369.113 291.684 366.714 294.643 366.714C297.602 366.714 300 369.113 300 372.071Z" fill="white"/>
<path d="M10.7143 404.214C10.7143 407.173 8.31581 409.571 5.35714 409.571C2.39847 409.571 0 407.173 0 404.214C0 401.256 2.39847 398.857 5.35714 398.857C8.31581 398.857 10.7143 401.256 10.7143 404.214Z" fill="white"/>
<path d="M42.8571 404.214C42.8571 407.173 40.4587 409.571 37.5 409.571C34.5413 409.571 32.1429 407.173 32.1429 404.214C32.1429 401.256 34.5413 398.857 37.5 398.857C40.4587 398.857 42.8571 401.256 42.8571 404.214Z" fill="white"/>
<path d="M75 404.214C75 407.173 72.6015 409.571 69.6429 409.571C66.6842 409.571 64.2857 407.173 64.2857 404.214C64.2857 401.256 66.6842 398.857 69.6429 398.857C72.6015 398.857 75 401.256 75 404.214Z" fill="white"/>
<path d="M107.143 404.214C107.143 407.173 104.744 409.571 101.786 409.571C98.827 409.571 96.4286 407.173 96.4286 404.214C96.4286 401.256 98.827 398.857 101.786 398.857C104.744 398.857 107.143 401.256 107.143 404.214Z" fill="white"/>
<path d="M139.286 404.214C139.286 407.173 136.887 409.571 133.929 409.571C130.97 409.571 128.571 407.173 128.571 404.214C128.571 401.256 130.97 398.857 133.929 398.857C136.887 398.857 139.286 401.256 139.286 404.214Z" fill="white"/>
<path d="M171.429 404.214C171.429 407.173 169.03 409.571 166.071 409.571C163.113 409.571 160.714 407.173 160.714 404.214C160.714 401.256 163.113 398.857 166.071 398.857C169.03 398.857 171.429 401.256 171.429 404.214Z" fill="white"/>
<path d="M203.571 404.214C203.571 407.173 201.173 409.571 198.214 409.571C195.256 409.571 192.857 407.173 192.857 404.214C192.857 401.256 195.256 398.857 198.214 398.857C201.173 398.857 203.571 401.256 203.571 404.214Z" fill="white"/>
<path d="M235.714 404.214C235.714 407.173 233.316 409.571 230.357 409.571C227.398 409.571 225 407.173 225 404.214C225 401.256 227.398 398.857 230.357 398.857C233.316 398.857 235.714 401.256 235.714 404.214Z" fill="white"/>
<path d="M267.857 404.214C267.857 407.173 265.459 409.571 262.5 409.571C259.541 409.571 257.143 407.173 257.143 404.214C257.143 401.256 259.541 398.857 262.5 398.857C265.459 398.857 267.857 401.256 267.857 404.214Z" fill="white"/>
<path d="M300 404.214C300 407.173 297.602 409.571 294.643 409.571C291.684 409.571 289.286 407.173 289.286 404.214C289.286 401.256 291.684 398.857 294.643 398.857C297.602 398.857 300 401.256 300 404.214Z" fill="white"/>
<path d="M42.8571 436.357C42.8571 439.316 40.4587 441.714 37.5 441.714C34.5413 441.714 32.1429 439.316 32.1429 436.357C32.1429 433.398 34.5413 431 37.5 431C40.4587 431 42.8571 433.398 42.8571 436.357Z" fill="white"/>
<path d="M75 436.357C75 439.316 72.6015 441.714 69.6429 441.714C66.6842 441.714 64.2857 439.316 64.2857 436.357C64.2857 433.398 66.6842 431 69.6429 431C72.6015 431 75 433.398 75 436.357Z" fill="white"/>
<path d="M107.143 436.357C107.143 439.316 104.744 441.714 101.786 441.714C98.827 441.714 96.4286 439.316 96.4286 436.357C96.4286 433.398 98.827 431 101.786 431C104.744 431 107.143 433.398 107.143 436.357Z" fill="white"/>
<path d="M139.286 436.357C139.286 439.316 136.887 441.714 133.929 441.714C130.97 441.714 128.571 439.316 128.571 436.357C128.571 433.398 130.97 431 133.929 431C136.887 431 139.286 433.398 139.286 436.357Z" fill="white"/>
<path d="M171.429 436.357C171.429 439.316 169.03 441.714 166.071 441.714C163.113 441.714 160.714 439.316 160.714 436.357C160.714 433.398 163.113 431 166.071 431C169.03 431 171.429 433.398 171.429 436.357Z" fill="white"/>
<path d="M203.571 436.357C203.571 439.316 201.173 441.714 198.214 441.714C195.256 441.714 192.857 439.316 192.857 436.357C192.857 433.398 195.256 431 198.214 431C201.173 431 203.571 433.398 203.571 436.357Z" fill="white"/>
<path d="M235.714 436.357C235.714 439.316 233.316 441.714 230.357 441.714C227.398 441.714 225 439.316 225 436.357C225 433.398 227.398 431 230.357 431C233.316 431 235.714 433.398 235.714 436.357Z" fill="white"/>
<path d="M267.857 436.357C267.857 439.316 265.459 441.714 262.5 441.714C259.541 441.714 257.143 439.316 257.143 436.357C257.143 433.398 259.541 431 262.5 431C265.459 431 267.857 433.398 267.857 436.357Z" fill="white"/>
<path d="M75 468.5C75 471.459 72.6015 473.857 69.6429 473.857C66.6842 473.857 64.2857 471.459 64.2857 468.5C64.2857 465.541 66.6842 463.143 69.6429 463.143C72.6015 463.143 75 465.541 75 468.5Z" fill="white"/>
<path d="M107.143 468.5C107.143 471.459 104.744 473.857 101.786 473.857C98.827 473.857 96.4286 471.459 96.4286 468.5C96.4286 465.541 98.827 463.143 101.786 463.143C104.744 463.143 107.143 465.541 107.143 468.5Z" fill="white"/>
<path d="M139.286 468.5C139.286 471.459 136.887 473.857 133.929 473.857C130.97 473.857 128.571 471.459 128.571 468.5C128.571 465.541 130.97 463.143 133.929 463.143C136.887 463.143 139.286 465.541 139.286 468.5Z" fill="white"/>
<path d="M171.429 468.5C171.429 471.459 169.03 473.857 166.071 473.857C163.113 473.857 160.714 471.459 160.714 468.5C160.714 465.541 163.113 463.143 166.071 463.143C169.03 463.143 171.429 465.541 171.429 468.5Z" fill="white"/>
<path d="M203.571 468.5C203.571 471.459 201.173 473.857 198.214 473.857C195.256 473.857 192.857 471.459 192.857 468.5C192.857 465.541 195.256 463.143 198.214 463.143C201.173 463.143 203.571 465.541 203.571 468.5Z" fill="white"/>
<path d="M235.714 468.5C235.714 471.459 233.316 473.857 230.357 473.857C227.398 473.857 225 471.459 225 468.5C225 465.541 227.398 463.143 230.357 463.143C233.316 463.143 235.714 465.541 235.714 468.5Z" fill="white"/>
<path d="M107.143 500.643C107.143 503.602 104.744 506 101.786 506C98.827 506 96.4286 503.602 96.4286 500.643C96.4286 497.684 98.827 495.286 101.786 495.286C104.744 495.286 107.143 497.684 107.143 500.643Z" fill="white"/>
<path d="M139.286 500.643C139.286 503.602 136.887 506 133.929 506C130.97 506 128.571 503.602 128.571 500.643C128.571 497.684 130.97 495.286 133.929 495.286C136.887 495.286 139.286 497.684 139.286 500.643Z" fill="white"/>
<path d="M171.429 500.643C171.429 503.602 169.03 506 166.071 506C163.113 506 160.714 503.602 160.714 500.643C160.714 497.684 163.113 495.286 166.071 495.286C169.03 495.286 171.429 497.684 171.429 500.643Z" fill="white"/>
<path d="M203.571 500.643C203.571 503.602 201.173 506 198.214 506C195.256 506 192.857 503.602 192.857 500.643C192.857 497.684 195.256 495.286 198.214 495.286C201.173 495.286 203.571 497.684 203.571 500.643Z" fill="white"/>
<path d="M166.942 27.7054L167.017 27.9833L167.295 28.0582L169.018 28.5222C169.285 28.594 169.559 28.4361 169.631 28.1694L172.112 28.8375C172.04 29.1041 172.198 29.3785 172.465 29.4503L175.912 30.3784C176.179 30.4502 176.453 30.2922 176.525 30.0256L179.006 30.6937C178.934 30.9603 179.092 31.2347 179.359 31.3065L182.806 32.2345C183.072 32.3063 183.347 32.1484 183.419 31.8817L185.9 32.5498C185.828 32.8165 185.986 33.0908 186.253 33.1626L189.7 34.0907C189.966 34.1625 190.241 34.0045 190.312 33.7379L192.794 34.406C192.727 34.6532 192.858 34.9072 193.09 35C192.858 35.0928 192.727 35.3468 192.794 35.594L190.312 36.2621C190.241 35.9955 189.966 35.8375 189.7 35.9093L186.253 36.8374C185.986 36.9092 185.828 37.1835 185.9 37.4502L183.419 38.1183C183.347 37.8516 183.072 37.6937 182.806 37.7655L179.359 38.6935C179.092 38.7653 178.934 39.0397 179.006 39.3063L176.525 39.9744C176.453 39.7078 176.179 39.5498 175.912 39.6216L172.465 40.5497C172.198 40.6215 172.04 40.8959 172.112 41.1625L169.631 41.8306C169.559 41.5639 169.285 41.406 169.018 41.4778L167.295 41.9418L167.017 42.0167L166.942 42.2946L166.478 44.0181C166.406 44.2847 166.564 44.5591 166.831 44.6309L166.162 47.1122C165.896 47.0404 165.621 47.1984 165.55 47.465L164.622 50.9119C164.55 51.1786 164.708 51.4529 164.974 51.5247L164.306 54.006C164.04 53.9342 163.765 54.0922 163.694 54.3589L162.765 57.8058C162.694 58.0724 162.852 58.3468 163.118 58.4186L162.45 60.8999C162.184 60.8281 161.909 60.9861 161.837 61.2527L160.909 64.6996C160.838 64.9663 160.995 65.2406 161.262 65.3124L160.594 67.7937C160.347 67.7271 160.093 67.8582 160 68.0902C159.907 67.8582 159.653 67.7271 159.406 67.7937L158.738 65.3124C159.005 65.2406 159.162 64.9663 159.091 64.6996L158.163 61.2527C158.091 60.9861 157.816 60.8281 157.55 60.8999L156.882 58.4186C157.148 58.3468 157.306 58.0724 157.235 57.8058L156.306 54.3589C156.235 54.0922 155.96 53.9342 155.694 54.006L155.026 51.5247C155.292 51.4529 155.45 51.1786 155.378 50.9119L154.45 47.465C154.379 47.1984 154.104 47.0404 153.837 47.1122L153.169 44.6309C153.436 44.5591 153.594 44.2847 153.522 44.0181L153.058 42.2946L152.983 42.0167L152.705 41.9418L150.982 41.4778C150.715 41.406 150.441 41.5639 150.369 41.8306L147.888 41.1625C147.96 40.8959 147.802 40.6215 147.535 40.5497L144.088 39.6216C143.821 39.5498 143.547 39.7078 143.475 39.9744L140.994 39.3063C141.066 39.0397 140.908 38.7653 140.641 38.6935L137.194 37.7655C136.928 37.6937 136.653 37.8516 136.581 38.1183L134.1 37.4502C134.172 37.1835 134.014 36.9092 133.747 36.8374L130.3 35.9093C130.034 35.8375 129.759 35.9955 129.688 36.2621L127.206 35.594C127.273 35.3468 127.142 35.0928 126.91 35C127.142 34.9072 127.273 34.6532 127.206 34.406L129.688 33.7379C129.759 34.0045 130.034 34.1625 130.3 34.0907L133.747 33.1626C134.014 33.0908 134.172 32.8165 134.1 32.5498L136.581 31.8817C136.653 32.1484 136.928 32.3063 137.194 32.2345L140.641 31.3065C140.908 31.2347 141.066 30.9603 140.994 30.6937L143.475 30.0256C143.547 30.2922 143.821 30.4502 144.088 30.3784L147.535 29.4503C147.802 29.3785 147.96 29.1041 147.888 28.8375L150.369 28.1694C150.441 28.4361 150.715 28.594 150.982 28.5222L152.705 28.0582L152.983 27.9833L153.058 27.7054L153.522 25.9819C153.594 25.7153 153.436 25.4409 153.169 25.3691L153.838 22.8878C154.104 22.9596 154.379 22.8016 154.45 22.535L155.378 19.0881C155.45 18.8214 155.292 18.5471 155.026 18.4753L155.694 15.994C155.96 16.0658 156.235 15.9078 156.306 15.6411L157.235 12.1942C157.306 11.9276 157.148 11.6532 156.882 11.5814L157.55 9.10011C157.816 9.17191 158.091 9.01395 158.163 8.7473L159.091 5.30038C159.162 5.03373 159.005 4.75937 158.738 4.68758L159.406 2.20627C159.653 2.27285 159.907 2.14183 160 1.90978C160.093 2.14183 160.347 2.27285 160.594 2.20627L161.262 4.68758C160.995 4.75937 160.838 5.03373 160.909 5.30038L161.837 8.7473C161.909 9.01395 162.184 9.17191 162.45 9.10011L163.118 11.5814C162.852 11.6532 162.694 11.9276 162.765 12.1942L163.694 15.6411C163.765 15.9078 164.04 16.0658 164.306 15.994L164.974 18.4753C164.708 18.5471 164.55 18.8214 164.622 19.0881L165.55 22.535C165.621 22.8016 165.896 22.9596 166.162 22.8878L166.831 25.3691C166.564 25.4409 166.406 25.7153 166.478 25.9819L166.942 27.7054Z" stroke="white" stroke-linecap="round" stroke-dasharray="4 4"/>
</svg>
